<?xml version="1.0" standalone="no"?>
<!DOCTYPE svg PUBLIC "-//W3C//DTD SVG 1.1//EN" "http://www.w3.org/Graphics/SVG/1.1/DTD/svg11.dtd" >
<svg xmlns="http://www.w3.org/2000/svg" xmlns:xlink="http://www.w3.org/1999/xlink" version="1.1">
<metadata>
Created by FontForge 20161013 at Fri Feb 21 20:33:09 2014
 By ,,,
Copyright (c) 2013 Parachute, www.parachute.gr.  All rights reserved.
</metadata>
<defs>
<font id="PFBagueSansPro-Bold" horiz-adv-x="0" >
  <font-face 
    font-family="PF Bague Sans Pro"
    font-weight="700"
    font-stretch="normal"
    units-per-em="1000"
    panose-1="2 0 8 3 0 0 0 2 0 3"
    ascent="800"
    descent="-200"
    x-height="445"
    cap-height="660"
    bbox="-480 -307 1724 937"
    underline-thickness="70"
    underline-position="-260"
    unicode-range="U+0020-FB06"
  />
<missing-glyph horiz-adv-x="455" 
d="M448 0h-443v699h443v-699zM357 58l-131 233l-131 -233h262zM357 639h-262l131 -233zM389 575l-127 -226l127 -227v453zM63 122l128 227l-128 226v-453z" />
    <glyph glyph-name="fj" unicode="fj" horiz-adv-x="537" 
d="M263 -231l-23 56l-20 49q71 5 98.5 37.5t27.5 107.5v325h-134v-344h-133v344h-74v89l74 13v85q0 97 57 152t161 55q90 0 153 -27v-111q-65 33 -133 33q-105 0 -105 -109v-79h269v-405q0 -251 -218 -271z" />
    <glyph glyph-name="ffj" unicode="ffj" horiz-adv-x="819" 
d="M625 345h-134v-345h-134v344h-145v-344h-133v344h-74v89l74 13v65q0 97 54 153t153 56q74 0 136 -27q54 45 154 45q94 0 153 -27v-111q-65 33 -132 33q-106 0 -106 -109v-78h269v-419q0 -240 -218 -257l-43 105q80 5 102 44q24 39 24 136v290zM357 446v85q0 42 10 71
q-40 14 -64 14q-91 0 -91 -103v-67h145z" />
    <glyph glyph-name="f_t" unicode="ft" horiz-adv-x="639" 
d="M353 446l116 145h22v-146h119v-101h-119v-176q0 -73 58 -73q35 0 76 24v-99q-49 -31 -117 -31q-80 0 -115.5 43.5t-35.5 137.5v174h-145v-344h-133v344h-74v89l74 13v48q0 116 48 174t154 58q48 0 97 -13v-105q-39 14 -75 14q-91 0 -91 -105v-71h141z" />
    <glyph glyph-name="ff" unicode="ff" horiz-adv-x="621" 
d="M5 433l74 13v68q0 96 54.5 150.5t153.5 54.5q83 0 147 -33q46 39 134 39q45 0 91 -13v-105q-36 14 -73 14q-92 0 -92 -105v-70h128v-102h-128v-344h-134v344h-148v-344h-133v344h-74v89zM212 446h148v73q0 44 11 82q-33 13 -79 13q-39 0 -59.5 -28t-20.5 -74v-66z" />
    <glyph glyph-name="fi" unicode="fi" horiz-adv-x="536" 
d="M482 446v-446h-136v345h-133v-345h-134v345h-74v89l74 12v86q0 102 56 154.5t163 52.5q91 0 153 -28v-110q-66 32 -133 32q-105 0 -105 -108v-79h269z" />
    <glyph glyph-name="fl" unicode="fl" horiz-adv-x="546" 
d="M212 445h97v-101h-97v-344h-133v344h-74v89l74 13v83q0 98 55 152.5t157 54.5q98 0 199 -23v-713h-135v623q-19 6 -43 6q-100 0 -100 -107v-77z" />
    <glyph glyph-name="ffi" unicode="ffi" horiz-adv-x="822" 
d="M491 524v-78q76 0 137 -1h137v-445h-136v344h-138v-344h-134v344h-145v-344h-133v344h-74v89l74 13v70q0 96 54 150t153 54q74 0 136 -27q56 44 167 44q80 0 140 -26v-111q-65 33 -132 33q-106 0 -106 -109zM212 446h145v85q0 42 10 71q-40 14 -64 14q-91 0 -91 -103v-67
z" />
    <glyph glyph-name="ffl" unicode="ffl" horiz-adv-x="827" 
d="M489 445h97v-101h-97v-344h-134v344h-143v-344h-133v344h-74v89l74 13v44q0 230 207 230q74 0 136 -28q56 44 148 44q112 0 201 -23v-713h-135v623q-19 6 -44 6q-103 0 -103 -107v-77zM212 446h143v83q0 43 11 74q-30 13 -62 13q-92 0 -92 -103v-67z" />
    <glyph glyph-name="longs_t" unicode="&#x17f;t" horiz-adv-x="632" 
d="M212 517v-517h-133v344h-74v89l74 13v78q0 95 52.5 148.5t151.5 53.5q65 0 120 -24v-105q-50 25 -99 25q-92 0 -92 -105zM364 447l97 144h22v-146h119v-100h-119v-177q0 -36 13.5 -52.5t44.5 -16.5q35 0 76 24v-103q-49 -31 -117 -31q-151 0 -151 156v200h-69v75z" />
    <glyph glyph-name=".notdef" horiz-adv-x="455" 
d="M448 0h-443v699h443v-699zM357 58l-131 233l-131 -233h262zM357 639h-262l131 -233zM389 575l-127 -226l127 -227v453zM63 122l128 227l-128 226v-453z" />
    <glyph glyph-name=".null" 
 />
    <glyph glyph-name="nonmarkingreturn" horiz-adv-x="333" 
 />
    <glyph glyph-name="space" unicode=" " horiz-adv-x="240" 
 />
    <glyph glyph-name="exclam" unicode="!" horiz-adv-x="317" 
d="M227 692l-13 -505h-110l-15 505h138zM230 59q0 -28 -21 -48.5t-50 -20.5q-30 0 -51.5 20.5t-21.5 48.5q0 30 21.5 51.5t51.5 21.5q29 0 50 -21.5t21 -51.5z" />
    <glyph glyph-name="quotedbl" unicode="&#x22;" horiz-adv-x="354" 
d="M155 683v-236h-99v236h99zM298 683v-236h-99v236h99z" />
    <glyph glyph-name="numbersign" unicode="#" horiz-adv-x="556" 
d="M358 457l37 170h77l-18 -84q-15 -69 -19 -86h86v-66h-100l-28 -123h92v-67h-106l-44 -201h-78q36 159 44 201h-112l-43 -201h-79l45 201h-79v67h93q21 95 28 123h-88v66h102l38 170h77l-37 -170h112zM343 391h-112l-27 -123h113q21 98 26 123z" />
    <glyph glyph-name="dollar" unicode="$" horiz-adv-x="572" 
d="M330 -106h-79v104q-108 8 -181 52v120q44 -32 105 -51q65 -20 106 -20q51 0 78.5 21.5t27.5 58.5q0 16 -7 30.5t-15 24t-27 21.5t-30 17.5t-38 18.5t-37 18q-73 34 -113.5 73.5t-40.5 105.5q0 69 46 115.5t126 56.5v110h79v-109q84 -8 147 -38v-112q-82 54 -176 54
q-95 0 -95 -76q0 -44 110 -93q40 -16 70 -32.5t63.5 -42t51.5 -59.5t17 -74q0 -74 -49.5 -126t-138.5 -63v-105z" />
    <glyph glyph-name="percent" unicode="%" horiz-adv-x="797" 
d="M591 684h84l-478 -711h-84zM205 682q75 0 122 -47t47 -116t-48 -117q-47 -47 -121 -47q-77 0 -123.5 45.5t-46.5 118.5q0 69 47 116q49 47 123 47zM206 597q-32 0 -52.5 -22.5t-20.5 -55.5q0 -36 20 -58.5t53 -22.5q32 0 52 23.5t20 57.5q0 33 -20.5 55.5t-51.5 22.5z
M591 316q75 0 122 -47t47 -116t-48 -116q-47 -47 -121 -47q-77 0 -123.5 45t-46.5 117q0 69 47 116q48 48 123 48zM592 232q-30 0 -51 -23t-21 -56q0 -36 19.5 -58.5t52.5 -22.5t53 22.5t20 58.5q0 33 -20.5 56t-52.5 23z" />
    <glyph glyph-name="ampersand" unicode="&#x26;" horiz-adv-x="713" 
d="M711 7l-92 -70q-83 46 -155 99q-86 -60 -192 -60q-104 0 -162 48t-58 134q0 53 34 108q34 56 99 87q-29 69 -29 120q0 90 56.5 142t155.5 52q88 0 158 -37q-1 -23 -8 -101q-78 35 -135 35q-48 0 -73 -24.5t-25 -69.5q0 -62 47.5 -137.5t134.5 -153.5q56 72 91 203l91 -58
q-38 -130 -102 -212q73 -58 164 -105zM288 73q50 0 92 30q-90 79 -141 159q-28 -14 -45 -39.5t-17 -51.5q0 -45 31 -71.5t80 -26.5z" />
    <glyph glyph-name="quotesingle" unicode="'" horiz-adv-x="219" 
d="M159 683v-236h-99v236h99z" />
    <glyph glyph-name="parenleft" unicode="(" horiz-adv-x="314" 
d="M227 735l75 -30q-126 -193 -126 -405q0 -211 126 -401l-76 -36q-77 89 -122 208q-43 116 -43 229q0 114 43.5 228.5t122.5 206.5z" />
    <glyph glyph-name="parenright" unicode=")" horiz-adv-x="314" 
d="M20 705l75 30q79 -92 123 -206.5t44 -228.5q0 -111 -44 -229q-45 -119 -122 -208l-75 36q126 192 126 401t-127 405z" />
    <glyph glyph-name="asterisk" unicode="*" horiz-adv-x="452" 
d="M283 517l99 -39l-44 -78l-84 67l14 -109h-87l13 108l-85 -67l-45 78q84 32 102 38l-102 41l44 78l84 -68l-7 54l-6 54h89l-15 -107l85 66l44 -77z" />
    <glyph glyph-name="plus" unicode="+" horiz-adv-x="572" 
d="M489 252h-162v-167h-84v167h-163v81h163v164h84v-164h162v-81z" />
    <glyph glyph-name="comma" unicode="," horiz-adv-x="239" 
d="M45 61q0 31 21 52t51 21q32 0 52 -21t20 -54q0 -41 -32 -107t-69 -113l-53 7l49 152q-39 16 -39 63z" />
    <glyph glyph-name="hyphen" unicode="-" horiz-adv-x="374" 
d="M320 201h-267v89h267v-89z" />
    <glyph glyph-name="period" unicode="." horiz-adv-x="243" 
d="M190 61q0 -28 -21 -49.5t-49 -21.5q-30 0 -51 21t-21 50q0 31 21 52t51 21q29 0 49.5 -21t20.5 -52z" />
    <glyph glyph-name="slash" unicode="/" horiz-adv-x="343" 
d="M365 683l-285 -773h-96l282 773h99z" />
    <glyph glyph-name="zero" unicode="0" horiz-adv-x="572" 
d="M286 672q149 0 207 -114q52 -97 52 -228q0 -127 -54 -228q-28 -52 -82 -82t-125 -30q-146 0 -206 108q-53 97 -53 232q0 130 53 229q28 53 82.5 83t125.5 30zM286 563q-124 0 -124 -232q0 -233 124 -233q122 0 122 233q0 232 -122 232z" />
    <glyph glyph-name="one" unicode="1" horiz-adv-x="572" 
d="M377 667h19v-667h-141v472l-154 -68v125z" />
    <glyph glyph-name="two" unicode="2" horiz-adv-x="572" 
d="M520 0h-460l-18 13q4 120 57 190q45 59 132 115l23 15l24 16q29 18 43 32q30 27 36 36q23 36 23 64q0 42 -28 65t-72 23t-71.5 -28.5t-27.5 -74.5q0 -21 7 -48l-124 22q-5 27 -5 47q0 84 67 136q68 53 160 53q97 0 164 -50q66 -50 66 -142q0 -108 -144 -202l-45 -29
q-33 -20 -50 -33l-37 -32q-41 -36 -52 -88h332v-100z" />
    <glyph glyph-name="three" unicode="3" horiz-adv-x="572" 
d="M159 330l-14 19l162 207l-1 2v2h-252v99h453v-19l-180 -219q177 -40 177 -207q0 -98 -73 -161q-74 -62 -186 -62q-121 0 -210 51v120q77 -67 188 -67q70 0 111 34t41 90q0 58 -43 88t-112 30q-30 0 -61 -7z" />
    <glyph glyph-name="four" unicode="4" horiz-adv-x="572" 
d="M350 338l69 109h64v-199h70v-99h-70v-149h-133v149h-345v16l300 495h144l-256 -412h157v90z" />
    <glyph glyph-name="five" unicode="5" horiz-adv-x="572" 
d="M293 427q98 0 166 -56t68 -157q0 -100 -73 -161q-74 -62 -187 -62q-117 0 -208 51v121q31 -30 82.5 -49t104.5 -19q69 0 110.5 33.5t41.5 88.5q0 56 -40.5 86t-107.5 30q-79 0 -149 -35l-18 9l45 353h369v-99h-271q-5 -32 -19 -147q35 13 86 13z" />
    <glyph glyph-name="six" unicode="6" horiz-adv-x="572" 
d="M87 378l173 281h146l-162 -255q0 -2 2 -4q33 15 79 15q93 0 152 -59q58 -58 58 -148q0 -97 -69 -158q-69 -60 -179 -60q-114 0 -182 58q-69 58 -69 162q0 86 51 168zM287 326q-51 0 -84.5 -32t-33.5 -82q0 -51 32 -83t86 -32q53 0 85 32t32 83q0 50 -32 82t-85 32z" />
    <glyph glyph-name="seven" unicode="7" horiz-adv-x="572" 
d="M524 642l-286 -642h-139l250 559h-288v100h463v-17z" />
    <glyph glyph-name="eight" unicode="8" horiz-adv-x="572" 
d="M387 475q0 40 -27.5 65.5t-70.5 25.5q-42 0 -69.5 -26t-27.5 -65t27.5 -64t70.5 -25q42 0 69.5 25.5t27.5 63.5zM288 310q-51 0 -83.5 -30t-32.5 -76q0 -47 32 -77.5t84 -30.5t84 30.5t32 77.5t-31.5 76.5t-84.5 29.5zM431 355v-4q104 -48 104 -161q0 -89 -68 -145
q-67 -55 -179 -55q-115 0 -182.5 53.5t-67.5 143.5q0 52 27.5 95t74.5 64l1 4q-78 42 -78 136q0 83 64 134q64 52 161 52q98 0 159 -52q63 -51 63 -133q0 -40 -21.5 -77t-57.5 -55z" />
    <glyph glyph-name="nine" unicode="9" horiz-adv-x="572" 
d="M311 0h-146l163 257q-3 3 -3 4q-35 -15 -79 -15q-93 0 -151 58q-57 58 -57 148q0 98 68 158q68 61 180 61t180 -59q69 -58 69 -161q0 -79 -51 -167q-50 -90 -173 -284zM285 336q51 0 84 31t33 81q0 52 -31.5 84t-84.5 32t-85 -32.5t-32 -83.5q0 -48 32.5 -80t83.5 -32z
" />
    <glyph glyph-name="colon" unicode=":" horiz-adv-x="257" 
d="M197 61q0 -28 -21 -49t-50 -21t-50.5 21t-21.5 49q0 30 21.5 51t50.5 21t50 -21t21 -51zM176 394q21 -21 21 -50t-21 -50t-50 -21t-50 21t-21 50t21 50t50 21t50 -21z" />
    <glyph glyph-name="semicolon" unicode=";" horiz-adv-x="263" 
d="M181 394q21 -21 21 -50t-21 -50t-50 -21t-50 21t-21 50t21 50t50 21t50 -21zM55 61q0 31 21 52t51 21q32 0 52 -21t20 -54q0 -41 -32 -107t-69 -113l-53 7l49 152q-39 16 -39 63z" />
    <glyph glyph-name="less" unicode="&#x3c;" horiz-adv-x="572" 
d="M236 290l256 -141v-101l-412 233v16l412 235v-104z" />
    <glyph glyph-name="equal" unicode="=" horiz-adv-x="572" 
d="M489 249v-79h-407v79h407zM489 421v-79h-407v79h407z" />
    <glyph glyph-name="greater" unicode="&#x3e;" horiz-adv-x="572" 
d="M492 281l-412 -233v101l255 142l-255 137v104l412 -235v-16z" />
    <glyph glyph-name="question" unicode="?" horiz-adv-x="522" 
d="M319 496q0 37 -28 60t-76 23q-77 0 -161 -45v120q91 38 182 38q107 0 168 -52q62 -51 62 -130q0 -76 -72 -143q-12 -11 -35.5 -31t-37.5 -32t-29.5 -28.5t-23 -31t-7.5 -27.5q0 -16 9 -29l-109 -21q-18 37 -18 64q0 31 18 61t44 53.5t52 46.5t44 50t18 54zM295 57
q0 -29 -20.5 -49.5t-49.5 -20.5q-33 0 -52.5 19.5t-19.5 50.5q0 30 20.5 50.5t51.5 20.5q30 0 50 -20.5t20 -50.5z" />
    <glyph glyph-name="at" unicode="@" horiz-adv-x="921" 
d="M512 283v20h-46q-83 0 -83 -54q0 -20 14 -32t38 -12q37 0 57 21t20 57zM394 131q-57 0 -89 29.5t-32 74.5q0 60 47 91t127 31h64v11q0 62 -80 62q-57 0 -112 -31v85q57 28 139 28q164 0 164 -156v-92q0 -34 10 -49t36 -15q39 0 63 37t24 97q0 115 -75 187q-74 73 -202 73
q-138 0 -226 -85t-88 -214t80 -211q80 -81 218 -81q112 0 210 62v-90q-89 -56 -211 -56q-179 0 -284 105t-105 269q0 163 116 274q116 112 289 112q166 0 268 -96q102 -95 102 -242q0 -93 -52 -157q-51 -65 -143 -65q-47 0 -77 20.5t-39 52.5q-1 1 -4 1q-50 -62 -138 -62z
" />
    <glyph glyph-name="A" unicode="A" horiz-adv-x="662" 
d="M653 0h-151l-45 104h-253l-46 -104h-148l313 672h22zM334 389h-4l-81 -183h164z" />
    <glyph glyph-name="B" unicode="B" horiz-adv-x="639" 
d="M479 360v-4q56 -20 85.5 -64t29.5 -98q0 -82 -59 -138t-150 -56h-317v661h294q87 0 139 -46q54 -45 54 -119q0 -40 -20 -76.5t-56 -59.5zM451 206q0 41 -29.5 64.5t-80.5 23.5h-128v-179h135q53 0 78 25.5t25 65.5zM329 549h-116v-149h111q40 0 65.5 17.5t25.5 55.5
q0 34 -22.5 55t-63.5 21z" />
    <glyph glyph-name="C" unicode="C" horiz-adv-x="622" 
d="M589 153l1 -126q-80 -39 -192 -39q-165 0 -260 95q-93 95 -93 244q0 145 98 246q99 100 259 100q102 0 167 -27v-125q-68 31 -146 31q-96 0 -162 -60q-65 -59 -65 -165q0 -102 58.5 -160t160.5 -58q88 0 174 44z" />
    <glyph glyph-name="D" unicode="D" horiz-adv-x="697" 
d="M505 332q0 100 -49 156.5t-143 56.5h-98v-430h104q86 0 136 56.5t50 160.5zM323 0h-256v660h242q163 0 252 -92q90 -91 90 -236q0 -143 -86 -238q-85 -94 -242 -94z" />
    <glyph glyph-name="E" unicode="E" horiz-adv-x="569" 
d="M216 115h317v-115h-466v660h447v-115h-298v-146h267v-111h-267v-173z" />
    <glyph glyph-name="F" unicode="F" horiz-adv-x="535" 
d="M216 265v-265h-149v660h452v-115h-303v-169h265v-111h-265z" />
    <glyph glyph-name="G" unicode="G" horiz-adv-x="680" 
d="M44 325q0 147 99 248q101 101 263 101q112 0 188 -36v-129q-80 42 -176 42t-160 -62q-62 -62 -62 -166q0 -95 52 -156q52 -60 154 -60q48 0 89 15v218h132v-313q-93 -38 -233 -38q-164 0 -256 93q-90 93 -90 243z" />
    <glyph glyph-name="H" unicode="H" horiz-adv-x="694" 
d="M626 660v-660h-149v285h-261v-285h-149v660h149v-259h261v259h149z" />
    <glyph glyph-name="I" unicode="I" horiz-adv-x="295" 
d="M221 660v-660h-149v660h149z" />
    <glyph glyph-name="J" unicode="J" horiz-adv-x="497" 
d="M148 108q70 0 100 39t30 119v394h151v-381q0 -98 -27 -166q-51 -125 -230 -125q-91 0 -158 34v125q69 -39 134 -39z" />
    <glyph glyph-name="K" unicode="K" horiz-adv-x="645" 
d="M67 660h150v-303l240 303h162l-259 -318l277 -342h-172l-248 327v-327h-150v660z" />
    <glyph glyph-name="L" unicode="L" horiz-adv-x="532" 
d="M67 0v660h149v-545h305v-115h-454z" />
    <glyph glyph-name="M" unicode="M" horiz-adv-x="815" 
d="M599 323l-180 -201h-22l-184 201q-1 -1 -3 -1v-322h-143v671h22l319 -369l318 369h21v-671h-144v322q-1 1 -4 1z" />
    <glyph glyph-name="N" unicode="N" horiz-adv-x="721" 
d="M215 381v-381h-148v673h22q63 -62 207 -193q149 -134 205 -189h4v369h148v-671h-21l-414 392h-3z" />
    <glyph glyph-name="O" unicode="O" horiz-adv-x="799" 
d="M399 -11q-161 0 -259 96q-96 97 -96 245q0 144 101 243q102 99 255 99q155 0 254 -99q99 -97 99 -243q0 -147 -100 -244q-98 -97 -254 -97zM401 549q-91 0 -149 -63q-58 -62 -58 -156q0 -95 56 -159q57 -63 151 -63q93 0 148 64q57 64 57 158q0 93 -57 156
q-55 63 -148 63z" />
    <glyph glyph-name="P" unicode="P" horiz-adv-x="590" 
d="M216 0h-150v659h253q120 0 185 -65t65 -156q0 -96 -68 -161q-67 -64 -175 -64h-110v-213zM294 548h-79v-224h78q64 0 95.5 31t31.5 80t-33 81t-93 32z" />
    <glyph glyph-name="Q" unicode="Q" horiz-adv-x="804" 
d="M403 549q-91 0 -149 -63q-58 -62 -58 -156q0 -95 56 -159q57 -63 151 -63q92 0 149 63q57 65 57 159q0 93 -57 156t-149 63zM402 672q155 0 254 -99q99 -97 99 -243q0 -104 -54 -187q-55 -84 -147 -121q-1 -1 -1 -3l200 -49l-46 -119l-386 146q-127 23 -201 114
q-73 91 -73 221q0 144 101 242t254 98z" />
    <glyph glyph-name="R" unicode="R" horiz-adv-x="634" 
d="M66 659h267q103 0 173 -58q72 -57 72 -158q0 -60 -34 -115.5t-98 -84.5l174 -243h-170l-174 269v14q74 9 114.5 48t40.5 91q0 57 -34 90.5t-92 33.5h-90v-546h-149v659z" />
    <glyph glyph-name="S" unicode="S" horiz-adv-x="538" 
d="M32 41v136q42 -32 103 -52q58 -19 106 -19q53 0 84 18.5t31 54.5q0 59 -111 108q-39 17 -57 25.5t-52 29.5t-51 39.5t-31 47.5t-13 62q0 83 62 133q64 50 163 50q106 0 197 -42v-128q-35 23 -85 38t-88 15q-46 0 -73 -16.5t-27 -48.5q0 -14 8.5 -25.5t25.5 -22t34 -18
t44 -20t45 -21.5q44 -23 76 -45q37 -24 59.5 -66t22.5 -92q0 -84 -64 -139q-62 -55 -181 -55q-137 0 -228 53z" />
    <glyph glyph-name="T" unicode="T" horiz-adv-x="559" 
d="M546 661v-115h-192v-546h-149v546h-193v115h534z" />
    <glyph glyph-name="U" unicode="U" horiz-adv-x="701" 
d="M485 255v405h148v-398q0 -122 -73 -198q-74 -75 -210 -75q-138 0 -210.5 72t-72.5 198v401h149v-400q0 -65 35.5 -107t99.5 -42q63 0 98.5 40.5t35.5 103.5z" />
    <glyph glyph-name="V" unicode="V" horiz-adv-x="641" 
d="M632 659l-297 -671h-23l-305 671h159l154 -365h4l152 365h156z" />
    <glyph glyph-name="W" unicode="W" horiz-adv-x="960" 
d="M654 -12l-175 391h-4l-171 -391h-22l-275 671h164l138 -331h4l155 339h21l160 -339h4l135 331h163l-275 -671h-22z" />
    <glyph glyph-name="X" unicode="X" horiz-adv-x="671" 
d="M662 0h-161l-166 317l-168 -317h-160l196 341l-183 318h160l155 -296l154 296h161l-185 -318z" />
    <glyph glyph-name="Y" unicode="Y" horiz-adv-x="611" 
d="M168 660l142 -278h4l130 278h159l-220 -399v-261h-149v261l-227 399h161z" />
    <glyph glyph-name="Z" unicode="Z" horiz-adv-x="577" 
d="M58 660h498v-16l-314 -530h305v-114h-530v15l317 530h-276v115z" />
    <glyph glyph-name="bracketleft" unicode="[" horiz-adv-x="289" 
d="M257 -128h-194v855h194v-84h-80v-692h80v-79z" />
    <glyph glyph-name="backslash" unicode="\" horiz-adv-x="343" 
d="M81 683l284 -773h-98l-283 773h97z" />
    <glyph glyph-name="bracketright" unicode="]" horiz-adv-x="289" 
d="M36 727h193v-855h-193v79h79v692h-79v84z" />
    <glyph glyph-name="asciicircum" unicode="^" horiz-adv-x="505" 
d="M260 650l218 -330h-102l-126 197l-128 -197h-101l218 330h21z" />
    <glyph glyph-name="underscore" unicode="_" horiz-adv-x="496" 
d="M493 -139h-491v70h491v-70z" />
    <glyph glyph-name="grave" unicode="`" horiz-adv-x="507" 
d="M209 695l118 -179h-77l-138 136z" />
    <glyph glyph-name="a" unicode="a" horiz-adv-x="520" 
d="M350 0l-10 52h-3q-53 -63 -157 -63q-70 0 -108.5 35.5t-38.5 91.5q0 71 53.5 113.5t154.5 42.5h87v9q0 81 -102 81q-67 0 -138 -38v101q74 34 171 34q203 0 203 -192v-267h-112zM163 136q0 -26 19.5 -40.5t50.5 -14.5q44 0 69.5 27.5t25.5 70.5v17h-70q-95 0 -95 -60z
" />
    <glyph glyph-name="b" unicode="b" horiz-adv-x="583" 
d="M181 711v-308h3q49 55 140 55q100 0 162 -65t62 -169q0 -102 -64 -169q-64 -66 -169 -66q-45 0 -87.5 16.5t-65.5 47.5h-4l-14 -53h-94v711h131zM188 223q0 -58 30.5 -92.5t82.5 -34.5q51 0 84 36t33 91q0 54 -32.5 90.5t-83.5 36.5q-52 0 -83 -36t-31 -91z" />
    <glyph glyph-name="c" unicode="c" horiz-adv-x="440" 
d="M280 459q66 0 117 -20v-110q-41 24 -95 24q-58 0 -94.5 -35.5t-36.5 -95.5q0 -59 34.5 -93t93.5 -34q62 0 114 31v-107q-55 -30 -146 -30q-110 0 -171 64t-61 165q0 106 68 174q68 67 177 67z" />
    <glyph glyph-name="d" unicode="d" horiz-adv-x="585" 
d="M280 351q-50 0 -82 -37t-32 -92q0 -57 31 -91.5t85 -34.5q50 0 83 37t33 91q0 55 -32 91t-86 36zM397 412l5 3v147q1 66 1 148h130v-355q1 -157 1 -355h-102l-18 52q-26 -31 -69.5 -47t-89.5 -16q-103 0 -162 62q-59 64 -59 165q0 107 64 174q65 68 163 68q84 0 136 -46z
" />
    <glyph glyph-name="e" unicode="e" horiz-adv-x="522" 
d="M265 460q103 0 162 -62.5t59 -170.5v-30h-317q11 -105 134 -105q82 0 161 52v-107q-74 -48 -175 -48q-123 0 -189 66q-65 67 -65 170q0 100 64 167q65 68 166 68zM270 363q-36 0 -62 -22.5t-35 -59.5h189q-18 82 -92 82z" />
    <glyph glyph-name="f" unicode="f" horiz-adv-x="348" 
d="M378 713v-104q-39 14 -74 14q-91 0 -91 -106v-71h127v-101h-127v-345h-134v345h-74v87l74 14v74q0 99 52 153t151 54q46 0 96 -14z" />
    <glyph glyph-name="g" unicode="g" horiz-adv-x="519" 
d="M33 -95q0 73 69 118l-27 5q-26 5 -40.5 19.5t-14.5 33.5v6l83 83q-46 40 -46 115q0 74 56 124t140 50q34 0 84 -14h159v-62q-8 -1 -70 -11q30 -42 30 -89q0 -68 -52 -114q-53 -47 -139 -47q-50 0 -92 17l-23 -38l217 -24q65 -8 94.5 -36t29.5 -83q0 -56 -55 -114
q-29 -31 -80.5 -50t-115.5 -19q-108 0 -157 39q-50 39 -50 91zM241 -123q54 0 85 26q30 25 30 58q0 32 -50 37l-129 14q-29 -32 -29 -66q0 -30 24.5 -49.5t68.5 -19.5zM339 291q0 35 -23 58.5t-57 23.5q-35 0 -57 -24t-22 -58q0 -38 21 -61t58 -23q36 0 58 23.5t22 60.5z
" />
    <glyph glyph-name="h" unicode="h" horiz-adv-x="552" 
d="M494 283v-283h-135v256q0 43 -20 68.5t-55 25.5q-44 0 -70.5 -31.5t-26.5 -89.5v-229h-136v711h131v-319h1q1 -1 2 -1q52 64 144 64q78 0 121.5 -45.5t43.5 -126.5z" />
    <glyph glyph-name="i" unicode="i" horiz-adv-x="264" 
d="M200 446v-446h-137v446h137zM134 519q-32 0 -53.5 22t-21.5 53q0 30 22.5 52t52.5 22q32 0 53 -21.5t21 -52.5t-21 -53t-53 -22z" />
    <glyph glyph-name="j" unicode="j" horiz-adv-x="255" 
d="M202 594q0 -31 -21 -53t-53 -22q-33 0 -54 21.5t-21 52.5q0 30 22.5 52t52.5 22q32 0 53 -21.5t21 -51.5zM-21 -224q-11 29 -22 54q-14 30 -22 51q71 5 98 37.5t27 107.5v419h135v-428q0 -117 -57 -176t-159 -65z" />
    <glyph glyph-name="k" unicode="k" horiz-adv-x="528" 
d="M361 445h148l-185 -212l198 -233h-154l-177 217v-217h-139v711h139v-466z" />
    <glyph glyph-name="l" unicode="l" horiz-adv-x="250" 
d="M194 711v-711h-136v711h136z" />
    <glyph glyph-name="m" unicode="m" horiz-adv-x="833" 
d="M163 445l17 -54l4 -3q55 70 145 70q101 0 137 -86q52 87 147 87q86 0 124 -49t38 -152v-258h-135v262q0 40 -18.5 64t-51.5 24q-39 0 -62.5 -30t-23.5 -91v-229h-135v258q0 43 -18.5 67.5t-51.5 24.5q-39 0 -63 -31t-24 -87v-232h-135v445h106z" />
    <glyph glyph-name="n" unicode="n" horiz-adv-x="557" 
d="M499 283v-283h-135v255q0 42 -20.5 68.5t-53.5 26.5q-44 0 -71 -31.5t-27 -89.5v-229h-135v445h105q4 -11 9 -35q5 -23 6 -26h4q59 72 159 72q77 0 118 -45.5t41 -127.5z" />
    <glyph glyph-name="o" unicode="o" horiz-adv-x="568" 
d="M285 459q113 0 180 -67q68 -66 68 -168t-69 -168t-179 -66q-115 0 -183 65q-67 66 -67 169q0 101 70 168t180 67zM286 351q-51 0 -83.5 -35.5t-32.5 -89.5q0 -58 31.5 -93t84.5 -35t85 36t32 92q0 54 -32.5 89.5t-84.5 35.5z" />
    <glyph glyph-name="p" unicode="p" horiz-adv-x="590" 
d="M308 96q52 0 83 36t31 92q0 58 -30.5 92t-84.5 34q-50 0 -83 -37t-33 -91q0 -55 32 -90.5t85 -35.5zM186 37l-2 -1v-252h-133v662h105l16 -60h4q26 34 67.5 53t86.5 19q105 0 165 -63t60 -167q0 -106 -64 -171q-63 -66 -163 -66q-88 0 -140 47z" />
    <glyph glyph-name="q" unicode="q" horiz-adv-x="586" 
d="M403 -216v260h-1l-2 1q-52 -55 -143 -55q-101 0 -163 63q-60 63 -60 167t64 171q65 68 169 68q95 0 154 -65h4l14 52h95v-662h-131zM395 223q0 58 -31 92q-32 35 -83 35q-53 0 -84 -36q-32 -37 -32 -91q0 -55 32 -91t83 -36q52 0 83.5 36t31.5 91z" />
    <glyph glyph-name="r" unicode="r" horiz-adv-x="378" 
d="M157 445l17 -71h5q20 39 55.5 61t77.5 22q34 0 58 -10v-123q-33 15 -68 15q-49 0 -79.5 -38.5t-30.5 -103.5v-197h-135v445h100z" />
    <glyph glyph-name="s" unicode="s" horiz-adv-x="399" 
d="M22 28v114q32 -24 75.5 -39.5t77.5 -15.5q66 0 66 36q0 18 -21.5 33t-52 29t-61 30.5t-52 45.5t-21.5 66q0 60 46.5 95.5t121.5 35.5t147 -31v-107q-65 37 -127 37q-56 0 -56 -33q0 -13 21 -25.5t51.5 -25t61 -29.5t51.5 -47.5t21 -70.5q0 -60 -48 -98t-133 -38
q-98 0 -168 38z" />
    <glyph glyph-name="t" unicode="t" horiz-adv-x="369" 
d="M101 447l97 144h22v-146h119v-100h-119v-177q0 -36 13.5 -52.5t44.5 -16.5q36 0 76 24v-103q-49 -31 -117 -31q-151 0 -151 156v200h-69v75z" />
    <glyph glyph-name="u" unicode="u" horiz-adv-x="549" 
d="M57 169v277h135v-258q0 -40 20 -66t53 -26q43 0 67 31t24 91v227h135v-445h-108l-16 61h-4q-53 -68 -143 -68q-163 0 -163 176z" />
    <glyph glyph-name="v" unicode="v" horiz-adv-x="524" 
d="M513 445l-240 -453h-24l-240 453h146l49 -98l57 -122h4q1 3 46 101l54 119h148z" />
    <glyph glyph-name="w" unicode="w" horiz-adv-x="753" 
d="M245 234l121 220h20l128 -220h4l96 211h136l-209 -453h-23l-142 256l-138 -256h-24l-210 453h139l98 -211h4z" />
    <glyph glyph-name="x" unicode="x" horiz-adv-x="514" 
d="M367 0l-110 209l-110 -209h-139l129 229l-122 216h138l104 -196l104 196h138l-122 -216l129 -229h-139z" />
    <glyph glyph-name="y" unicode="y" horiz-adv-x="492" 
d="M140 446l101 -284h6l104 284h134l-283 -662h-131l109 244l-177 418h137z" />
    <glyph glyph-name="z" unicode="z" horiz-adv-x="441" 
d="M43 445h380v-12l-222 -333h212v-100h-401v12l222 332h-191v101z" />
    <glyph glyph-name="braceleft" unicode="{" horiz-adv-x="349" 
d="M165 325v-5q67 -22 67 -130v-170q0 -35 11.5 -51.5t40.5 -16.5h27v-81h-67q-82 0 -107 58q-19 44 -19 113v152q0 104 -64 117v17q64 15 64 105v117q0 54 10 93q27 85 113 85h70v-83h-23q-31 0 -43.5 -17.5t-12.5 -52.5v-145q0 -89 -67 -105z" />
    <glyph glyph-name="bar" unicode="|" horiz-adv-x="330" 
d="M215 -144h-100v888h100v-888z" />
    <glyph glyph-name="braceright" unicode="}" horiz-adv-x="349" 
d="M188 320v5q-68 18 -68 105v145q0 35 -12 52.5t-43 17.5h-24v83h70q124 0 124 -153v-141q0 -89 64 -104v-18q-64 -13 -64 -118v-159q0 -66 -20 -110q-25 -54 -106 -54h-68v81h28q29 0 40 16.5t11 51.5v170q0 107 68 130z" />
    <glyph glyph-name="asciitilde" unicode="~" horiz-adv-x="546" 
d="M383 228q-41 0 -114 26t-97 26q-48 0 -79 -55l-68 44q47 110 139 110q34 0 105 -27t99 -27q52 0 85 64l68 -47q-43 -114 -138 -114z" />
    <glyph glyph-name="uni00A0" unicode="&#xa0;" horiz-adv-x="240" 
 />
    <glyph glyph-name="exclamdown" unicode="&#xa1;" horiz-adv-x="317" 
d="M89 -243l15 503h110l13 -503h-138zM230 389q0 -30 -21 -51t-50 -21q-30 0 -51.5 21t-21.5 51q0 29 21.5 49.5t51.5 20.5q29 0 50 -21t21 -49z" />
    <glyph glyph-name="cent" unicode="&#xa2;" horiz-adv-x="556" 
d="M357 -31h-79v111q-89 12 -139 73t-50 153t52 154q53 65 137 81v112h79v-107q49 -3 94 -20v-109q-43 23 -101 23t-94 -35.5t-36 -95.5q0 -58 34.5 -92t93.5 -34q68 0 119 30v-106q-39 -21 -110 -29v-109z" />
    <glyph glyph-name="sterling" unicode="&#xa3;" horiz-adv-x="572" 
d="M503 641v-112q-63 28 -114 28q-50 0 -78.5 -28t-28.5 -86l-1 -66h152v-81h-155q-5 -135 -47 -195h284v-101h-459v15q80 101 87 281h-66v81h68l2 71q2 60 22 105t52.5 69.5t68.5 36t75 11.5q72 0 138 -29z" />
    <glyph glyph-name="currency" unicode="&#xa4;" horiz-adv-x="572" 
d="M85 289q0 53 30 105l-57 58l64 64l56 -58q49 31 106 31t107 -32l56 57l64 -63l-27 -28l-30 -30q29 -49 29 -104t-30 -104l59 -56l-65 -65l-57 56q-106 -62 -212 0l-55 -56l-64 65l56 55q-30 45 -30 105zM283 179q46 0 78.5 32t32.5 78t-32 78q-32 33 -79 33
q-45 0 -78 -33q-32 -32 -32 -78t32 -78q34 -32 78 -32z" />
    <glyph glyph-name="yen" unicode="&#xa5;" horiz-adv-x="572" 
d="M528 314v-52h-471v52h138l-171 346h157l111 -288h3l109 288h153l-174 -346h145zM57 165v52h471v-52h-165v-165h-148v165h-158z" />
    <glyph glyph-name="brokenbar" unicode="&#xa6;" horiz-adv-x="329" 
d="M215 745v-360h-99v360h99zM116 -145v408h99v-408h-99z" />
    <glyph glyph-name="section" unicode="&#xa7;" horiz-adv-x="577" 
d="M508 306q0 -36 -20.5 -69t-55.5 -51q63 -44 63 -108q0 -75 -63 -117q-62 -43 -156 -43q-111 0 -188 41v114q31 -23 85 -42q54 -17 94 -17q41 0 67.5 14.5t26.5 43.5q0 48 -101 91q-31 13 -51.5 22t-49 26.5t-45 35t-29 43t-11.5 54.5q0 75 73 114q-48 45 -48 101
q0 70 54.5 112t152.5 42q81 0 156 -31v-103q-69 34 -147 34q-41 0 -66.5 -13t-25.5 -37q0 -23 18 -38.5t58 -32.5q87 -30 140 -67q69 -44 69 -119zM385 300q0 31 -35 57q-19 16 -51 29l-30 13l-28 13q-46 -24 -46 -61q0 -35 30 -56l30 -19q1 -1 42 -20t42 -20q46 28 46 64z
" />
    <glyph glyph-name="dieresis" unicode="&#xa8;" horiz-adv-x="532" 
d="M174 536q-27 0 -45 18t-18 45q0 26 19 44t44 18q27 0 44.5 -18t17.5 -44q0 -27 -17.5 -45t-44.5 -18zM360 536q-27 0 -44.5 18t-17.5 45q0 26 18.5 44t43.5 18q27 0 44.5 -18t17.5 -44q0 -27 -17.5 -45t-44.5 -18z" />
    <glyph glyph-name="copyright" unicode="&#xa9;" horiz-adv-x="862" 
d="M430 -29q-162 0 -267 108t-105 270t109 268q109 108 266 108q153 0 261 -109q108 -108 108 -267q0 -160 -109 -269q-108 -109 -263 -109zM432 657q-128 0 -215 -90t-87 -218q0 -129 85 -220q85 -90 215 -90q128 0 213 90q85 91 85 220q0 126 -86 217q-85 91 -210 91z
M574 222l1 -84q-49 -25 -126 -25q-113 0 -176 63q-62 65 -62 166q0 100 66 167q68 68 175 68q64 0 110 -18v-84q-45 20 -96 20q-67 0 -109.5 -41t-42.5 -112q0 -68 41 -108t107 -40q63 0 112 28z" />
    <glyph glyph-name="ordfeminine" unicode="&#xaa;" horiz-adv-x="362" 
d="M326 298h-77l-11 35q-36 -42 -109 -42q-50 0 -78.5 25.5t-28.5 63.5q0 48 41 72.5t111 24.5h50v10q0 43 -62 43q-48 0 -102 -26v76q57 23 122 23q144 0 144 -129v-176zM225 417v13h-37q-68 0 -68 -41q0 -32 49 -32q26 0 41 16.5t15 43.5z" />
    <glyph glyph-name="guillemotleft" unicode="&#xab;" horiz-adv-x="488" 
d="M285 399l-135 -190l135 -196h-124l-128 188v10l129 188h123zM465 399l-135 -190l135 -196h-124l-128 188v10l130 188h122z" />
    <glyph glyph-name="logicalnot" unicode="&#xac;" horiz-adv-x="572" 
d="M81 333h409v-247h-85v166h-324v81z" />
    <glyph glyph-name="sfthyphen" unicode="&#xad;" horiz-adv-x="374" 
d="M320 201h-267v89h267v-89z" />
    <glyph glyph-name="registered" unicode="&#xae;" horiz-adv-x="599" 
d="M359 422l72 -106h-75l-72 121v9q65 8 65 50q0 20 -13 31t-35 11h-35v-222h-67v275h113q44 0 74.5 -25t30.5 -66q0 -53 -58 -78zM300 198q-111 0 -179 71q-67 70 -67 180q0 104 71 177q72 72 175 72q104 0 175 -72q72 -70 72 -177q0 -105 -72 -179q-72 -72 -175 -72z
M496 449q0 83 -56 142t-140 59q-83 0 -140 -59t-57 -142q0 -87 55 -145t142 -58q84 0 140 59t56 144z" />
    <glyph glyph-name="overscore" unicode="&#xaf;" horiz-adv-x="527" 
d="M415 544h-309v84h309v-84z" />
    <glyph glyph-name="degree" unicode="&#xb0;" horiz-adv-x="382" 
d="M192 417q-56 0 -90 34t-34 87q0 52 36 86q38 36 88 36q52 0 88 -36q36 -34 36 -86q0 -50 -36 -86q-37 -35 -88 -35zM192 604q-27 0 -46 -19.5t-19 -46.5q0 -28 18 -47.5t47 -19.5t48 19.5t19 47.5q0 27 -19 46.5t-48 19.5z" />
    <glyph glyph-name="plusminus" unicode="&#xb1;" horiz-adv-x="572" 
d="M80 0v80h409v-80h-409zM489 273h-162v-150h-84v150h-163v81h163v148h84v-148h162v-81z" />
    <glyph glyph-name="twosuperior" unicode="&#xb2;" horiz-adv-x="366" 
d="M122 625l-86 15q-4 12 -4 32q0 50 44 82q44 33 104 33q65 0 106.5 -31.5t41.5 -84.5q0 -34 -23.5 -63.5t-57.5 -48.5q-88 -49 -108 -99h191v-71h-305q-1 2 -4 8.5t-3 7.5q1 70 45 117q34 37 89 70q9 6 21 13t16 10q13 8 26 24t13 30q0 42 -52 42q-24 0 -41.5 -16.5
t-17.5 -40.5q0 -7 5 -29z" />
    <glyph glyph-name="threesuperior" unicode="&#xb3;" horiz-adv-x="366" 
d="M113 584l-11 13l92 112h-154v73h294v-15l-110 -130q51 -8 80 -40t29 -78q0 -58 -47 -95.5t-120 -37.5q-81 0 -137 32v89q58 -46 126 -46q37 0 59 17.5t22 45.5q0 30 -22 47.5t-59 17.5q-17 0 -42 -5z" />
    <glyph glyph-name="acute" unicode="&#xb4;" horiz-adv-x="507" 
d="M408 652l-138 -136h-77l119 179z" />
    <glyph glyph-name="mu" unicode="&#xb5;" horiz-adv-x="549" 
d="M57 -216v661h135v-264q0 -34 20.5 -59.5t50.5 -25.5q43 0 67.5 31t24.5 87v231h136v-445h-109l-15 61h-5q-47 -59 -131 -59q-26 0 -39 10v-228h-135z" />
    <glyph glyph-name="mu" unicode="&#x3bc;" horiz-adv-x="549" 
d="M57 -216v661h135v-264q0 -34 20.5 -59.5t50.5 -25.5q43 0 67.5 31t24.5 87v231h136v-445h-109l-15 61h-5q-47 -59 -131 -59q-26 0 -39 10v-228h-135z" />
    <glyph glyph-name="paragraph" unicode="&#xb6;" horiz-adv-x="573" 
d="M338 679v-410h-79q-89 0 -150 59q-59 61 -59 147q0 85 60 144q60 60 149 60h79zM301 -194q-3 6 -8 18.5t-15.5 38t-19.5 46.5q70 4 97.5 36.5t27.5 107.5v626h129v-635q0 -116 -55.5 -174t-155.5 -64z" />
    <glyph glyph-name="middot" unicode="&#xb7;" horiz-adv-x="257" 
d="M197 251q0 -29 -21 -50t-50 -21t-50.5 21t-21.5 50q0 30 21 50.5t51 20.5q29 0 50 -20.5t21 -50.5z" />
    <glyph glyph-name="cedilla" unicode="&#xb8;" horiz-adv-x="438" 
d="M349 -141q0 -43 -35.5 -72.5t-98.5 -29.5q-45 0 -87 16v62q40 -18 81 -18q25 0 41 11.5t16 30.5q0 17 -15 27t-38 10q-18 0 -35 -7q-6 2 -19 15l69 133q40 -10 49 -13l-42 -75q55 -3 84.5 -28t29.5 -62z" />
    <glyph glyph-name="onesuperior" unicode="&#xb9;" horiz-adv-x="338" 
d="M225 785h16v-396h-99v272q-10 -6 -46 -21q-9 -4 -18.5 -8t-18 -8t-11.5 -6v85z" />
    <glyph glyph-name="ordmasculine" unicode="&#xba;" horiz-adv-x="388" 
d="M194 605q78 0 124 -45q48 -44 48 -112t-48 -111q-49 -44 -124 -44q-79 0 -126.5 43t-47.5 112q0 67 49 112q50 45 125 45zM194 525q-30 0 -50 -22t-20 -53q0 -36 18.5 -57t51.5 -21t52.5 22t19.5 56q0 33 -19.5 54t-52.5 21z" />
    <glyph glyph-name="guillemotright" unicode="&#xbb;" horiz-adv-x="488" 
d="M152 13h-124l135 196l-135 190h122l130 -188v-10zM332 13h-124l135 196l-135 190h123l129 -188v-10z" />
    <glyph glyph-name="onequarter" unicode="&#xbc;" horiz-adv-x="823" 
d="M418 98l180 290h95l-151 -236h82v34l48 75h48v-109h45v-71h-45v-81h-95v81h-207v17zM597 684h84l-477 -711h-84zM244 695h16v-396h-99v272q-10 -6 -46 -21q-9 -4 -18.5 -8t-18 -8t-11.5 -6v85z" />
    <glyph glyph-name="onehalf" unicode="&#xbd;" horiz-adv-x="823" 
d="M568 234l-86 15q-4 12 -4 32q0 50 44 82q44 33 104 33q65 0 106.5 -31t41.5 -85q0 -34 -23.5 -63.5t-57.5 -48.5q-88 -49 -108 -99h191v-71h-305q-1 2 -4 8.5t-3 7.5q1 70 45 117q34 37 89 70q8 6 20.5 13.5t16.5 9.5q13 8 26 24t13 30q0 42 -52 42q-24 0 -41.5 -16.5
t-17.5 -40.5q0 -7 5 -29zM572 684h84l-477 -711h-84zM225 695h16v-396h-99v272q-10 -6 -46 -21q-9 -4 -18.5 -8t-18 -8t-11.5 -6v85z" />
    <glyph glyph-name="threequarters" unicode="&#xbe;" horiz-adv-x="823" 
d="M439 98l180 290h95l-151 -236h82v34l48 75h48v-109h45v-71h-45v-81h-95v81h-207v17zM144 491l-11 13l92 112h-154v73h294v-15l-110 -130q51 -8 80 -40t29 -78q0 -58 -47 -95.5t-120 -37.5q-81 0 -137 32v89q58 -46 126 -46q37 0 59 17.5t22 45.5q0 30 -22 47.5t-59 17.5
q-17 0 -42 -5zM631 684h84l-477 -711h-84z" />
    <glyph glyph-name="questiondown" unicode="&#xbf;" horiz-adv-x="522" 
d="M208 -49q0 -37 28.5 -60.5t76.5 -23.5q79 0 161 46v-121q-91 -38 -182 -38q-108 0 -169 52q-61 51 -61 131q0 39 21 76.5t51 65.5t60.5 53t51.5 50t21 47q0 15 -9 30l109 20q18 -36 18 -64q0 -31 -18 -60.5t-44.5 -53t-52.5 -46.5t-44 -50t-18 -54zM233 389
q0 29 20.5 49.5t49.5 20.5q33 0 52.5 -19.5t19.5 -50.5q0 -30 -20.5 -50.5t-51.5 -20.5q-30 0 -50 20.5t-20 50.5z" />
    <glyph glyph-name="Agrave" unicode="&#xc0;" horiz-adv-x="662" 
d="M653 0h-151l-45 104h-253l-46 -104h-148l313 672h22zM334 389h-4l-81 -183h164zM245 890l133 -172h-85l-150 128z" />
    <glyph glyph-name="Aacute" unicode="&#xc1;" horiz-adv-x="662" 
d="M653 0h-151l-45 104h-253l-46 -104h-148l313 672h22zM334 389h-4l-81 -183h164zM515 846l-150 -128h-86l133 172z" />
    <glyph glyph-name="Acircumflex" unicode="&#xc2;" horiz-adv-x="662" 
d="M653 0h-151l-45 104h-253l-46 -104h-148l313 672h22zM334 389h-4l-81 -183h164zM349 880l159 -165h-109l-63 69l-68 -69h-105l165 165h21z" />
    <glyph glyph-name="Atilde" unicode="&#xc3;" horiz-adv-x="662" 
d="M653 0h-151l-45 104h-253l-46 -104h-148l313 672h22zM334 389h-4l-81 -183h164zM454 875l37 -55q-32 -83 -91 -83q-27 0 -71 25t-62 25q-31 0 -56 -55l-41 55q15 37 40 60.5t55 23.5q24 0 68 -26q46 -26 64 -26q28 0 57 56z" />
    <glyph glyph-name="Adieresis" unicode="&#xc4;" horiz-adv-x="662" 
d="M653 0h-151l-45 104h-253l-46 -104h-148l313 672h22zM334 389h-4l-81 -183h164zM303 794q0 -27 -18 -45.5t-45 -18.5q-28 0 -45.5 18t-17.5 44q0 27 19 45.5t44 18.5q27 0 45 -18.5t18 -43.5zM489 794q0 -27 -17.5 -45.5t-44.5 -18.5t-44.5 17.5t-17.5 44.5t18.5 45.5
t43.5 18.5q26 0 44 -18.5t18 -43.5z" />
    <glyph glyph-name="Aring" unicode="&#xc5;" horiz-adv-x="662" 
d="M653 0h-151l-45 104h-253l-46 -104h-148l309 663q-45 4 -73.5 35t-28.5 75q0 49 33.5 83t82.5 34q51 0 85 -34t34 -83q0 -43 -29 -74t-74 -36zM334 389h-4l-81 -183h164zM333 825q-19 0 -32.5 -15.5t-13.5 -36.5q0 -19 13 -32.5t33 -13.5q21 0 34.5 13.5t13.5 32.5
q0 22 -13.5 37t-34.5 15z" />
    <glyph glyph-name="AE" unicode="&#xc6;" horiz-adv-x="945" 
d="M910 115v-115h-454v113h-219l-87 -113h-158l508 660h391v-115h-298v-146h266v-111h-266v-173h317zM459 410h-4l-161 -209h165v209z" />
    <glyph glyph-name="Ccedilla" unicode="&#xc7;" horiz-adv-x="622" 
d="M479 -151q0 -43 -35.5 -72.5t-98.5 -29.5q-45 0 -87 16v62q40 -18 81 -18q25 0 41 11.5t16 30.5q0 17 -15 27t-38 10q-20 0 -35 -7q-6 2 -19 15l50 98q-141 17 -217 108q-77 92 -77 227q0 145 98 246q99 100 259 100q102 0 167 -27v-125q-68 31 -146 31q-96 0 -162 -60
q-65 -59 -65 -165q0 -102 58.5 -160t160.5 -58q88 0 174 44l1 -126q-80 -39 -192 -39h-6l-27 -49q55 -3 84.5 -28t29.5 -62z" />
    <glyph glyph-name="Egrave" unicode="&#xc8;" horiz-adv-x="569" 
d="M216 115h317v-115h-466v660h447v-115h-298v-146h267v-111h-267v-173zM248 890l133 -172h-85l-150 128z" />
    <glyph glyph-name="Eacute" unicode="&#xc9;" horiz-adv-x="569" 
d="M216 115h317v-115h-466v660h447v-115h-298v-146h267v-111h-267v-173zM448 846l-150 -128h-86l133 172z" />
    <glyph glyph-name="Ecircumflex" unicode="&#xca;" horiz-adv-x="569" 
d="M216 115h317v-115h-466v660h447v-115h-298v-146h267v-111h-267v-173zM307 882l159 -165h-109l-63 69l-68 -69h-105l165 165h21z" />
    <glyph glyph-name="Edieresis" unicode="&#xcb;" horiz-adv-x="569" 
d="M258 794q0 -27 -18 -45.5t-45 -18.5t-45 18t-18 44q0 27 19 45.5t44 18.5q27 0 45 -18.5t18 -43.5zM444 794q0 -27 -17.5 -45.5t-44.5 -18.5t-44.5 17.5t-17.5 44.5t18.5 45.5t43.5 18.5q26 0 44 -18.5t18 -43.5zM216 115h317v-115h-466v660h447v-115h-298v-146h267v-111
h-267v-173z" />
    <glyph glyph-name="Igrave" unicode="&#xcc;" horiz-adv-x="295" 
d="M221 660v-660h-149v660h149zM80 890l133 -172h-85l-150 128z" />
    <glyph glyph-name="Iacute" unicode="&#xcd;" horiz-adv-x="295" 
d="M221 660v-660h-149v660h149zM327 846l-150 -128h-86l133 172z" />
    <glyph glyph-name="Icircumflex" unicode="&#xce;" horiz-adv-x="295" 
d="M162 882l159 -165h-109l-63 69l-68 -69h-105l165 165h21zM221 660v-660h-149v660h149z" />
    <glyph glyph-name="Idieresis" unicode="&#xcf;" horiz-adv-x="295" 
d="M221 660v-660h-149v660h149zM118 794q0 -27 -18 -45.5t-45 -18.5t-45 18t-18 44q0 27 19 45.5t44 18.5q27 0 45 -18.5t18 -43.5zM304 794q0 -27 -17.5 -45.5t-44.5 -18.5t-44.5 17.5t-17.5 44.5t18.5 45.5t43.5 18.5q26 0 44 -18.5t18 -43.5z" />
    <glyph glyph-name="Eth" unicode="&#xd0;" horiz-adv-x="697" 
d="M323 0h-256v299h-54v76h54v285h242q163 0 252 -92q90 -91 90 -236q0 -143 -86 -238q-85 -94 -242 -94zM505 332q0 213 -220 213h-70v-170h147v-76h-147v-184h72q111 0 164.5 53.5t53.5 163.5z" />
    <glyph glyph-name="Ntilde" unicode="&#xd1;" horiz-adv-x="721" 
d="M215 381v-381h-148v673h22q63 -62 207 -193q149 -134 205 -189h4v369h148v-671h-21l-414 392h-3zM483 870l37 -55q-32 -83 -91 -83q-27 0 -71 25t-62 25q-31 0 -56 -55l-41 55q15 37 40 60.5t55 23.5q24 0 68 -26q46 -26 64 -26q28 0 57 56z" />
    <glyph glyph-name="Ograve" unicode="&#xd2;" horiz-adv-x="799" 
d="M399 -11q-161 0 -259 96q-96 97 -96 245q0 144 101 243q102 99 255 99q155 0 254 -99q99 -97 99 -243q0 -147 -100 -244q-98 -97 -254 -97zM401 549q-91 0 -149 -63q-58 -62 -58 -156q0 -95 56 -159q57 -63 151 -63q93 0 148 64q57 64 57 158q0 93 -57 156
q-55 63 -148 63zM334 890l133 -172h-85l-150 128z" />
    <glyph glyph-name="Oacute" unicode="&#xd3;" horiz-adv-x="799" 
d="M399 -11q-161 0 -259 96q-96 97 -96 245q0 144 101 243q102 99 255 99q155 0 254 -99q99 -97 99 -243q0 -147 -100 -244q-98 -97 -254 -97zM401 549q-91 0 -149 -63q-58 -62 -58 -156q0 -95 56 -159q57 -63 151 -63q93 0 148 64q57 64 57 158q0 93 -57 156
q-55 63 -148 63zM583 846l-150 -128h-86l133 172z" />
    <glyph glyph-name="Ocircumflex" unicode="&#xd4;" horiz-adv-x="799" 
d="M399 -11q-161 0 -259 96q-96 97 -96 245q0 144 101 243q102 99 255 99q155 0 254 -99q99 -97 99 -243q0 -147 -100 -244q-98 -97 -254 -97zM401 549q-91 0 -149 -63q-58 -62 -58 -156q0 -95 56 -159q57 -63 151 -63q93 0 148 64q57 64 57 158q0 93 -57 156
q-55 63 -148 63zM423 882l159 -165h-109l-63 69l-68 -69h-105l165 165h21z" />
    <glyph glyph-name="Otilde" unicode="&#xd5;" horiz-adv-x="799" 
d="M399 -11q-161 0 -259 96q-96 97 -96 245q0 144 101 243q102 99 255 99q155 0 254 -99q99 -97 99 -243q0 -147 -100 -244q-98 -97 -254 -97zM401 549q-91 0 -149 -63q-58 -62 -58 -156q0 -95 56 -159q57 -63 151 -63q93 0 148 64q57 64 57 158q0 93 -57 156
q-55 63 -148 63zM526 875l37 -55q-32 -83 -91 -83q-27 0 -71 25t-62 25q-31 0 -56 -55l-41 55q15 37 40 60.5t55 23.5q24 0 68 -26q46 -26 64 -26q28 0 57 56z" />
    <glyph glyph-name="Odieresis" unicode="&#xd6;" horiz-adv-x="799" 
d="M399 -11q-161 0 -259 96q-96 97 -96 245q0 144 101 243q102 99 255 99q155 0 254 -99q99 -97 99 -243q0 -147 -100 -244q-98 -97 -254 -97zM401 549q-91 0 -149 -63q-58 -62 -58 -156q0 -95 56 -159q57 -63 151 -63q93 0 148 64q57 64 57 158q0 93 -57 156
q-55 63 -148 63zM367 794q0 -27 -18 -45.5t-45 -18.5q-28 0 -45.5 18t-17.5 44q0 27 19 45.5t44 18.5q27 0 45 -18.5t18 -43.5zM553 794q0 -27 -17.5 -45.5t-44.5 -18.5t-44.5 17.5t-17.5 44.5t18.5 45.5t43.5 18.5q26 0 44 -18.5t18 -43.5z" />
    <glyph glyph-name="multiply" unicode="&#xd7;" horiz-adv-x="572" 
d="M402 115l-115 116l-118 -118l-58 59l117 117l-115 116l57 57l115 -115l115 115l59 -59l-114 -116l114 -114z" />
    <glyph glyph-name="Oslash" unicode="&#xd8;" horiz-adv-x="799" 
d="M399 -12q-115 0 -197 51l-31 -39h-62l53 66q-117 98 -117 265q0 144 101 243q102 99 254 99q115 0 203 -58l36 46h60l-59 -74q113 -99 113 -256q0 -146 -100 -245q-100 -98 -254 -98zM191 331q0 -97 56 -159l275 344q-50 37 -120 37q-94 0 -152 -64q-59 -64 -59 -158z
M402 105q93 0 150 65q58 64 58 161q0 87 -54 151l-274 -343q52 -34 120 -34z" />
    <glyph glyph-name="Ugrave" unicode="&#xd9;" horiz-adv-x="701" 
d="M485 255v405h148v-398q0 -122 -73 -198q-74 -75 -210 -75q-138 0 -210.5 72t-72.5 198v401h149v-400q0 -65 35.5 -107t99.5 -42q63 0 98.5 40.5t35.5 103.5zM293 890l133 -172h-85l-150 128z" />
    <glyph glyph-name="Uacute" unicode="&#xda;" horiz-adv-x="701" 
d="M485 255v405h148v-398q0 -122 -73 -198q-74 -75 -210 -75q-138 0 -210.5 72t-72.5 198v401h149v-400q0 -65 35.5 -107t99.5 -42q63 0 98.5 40.5t35.5 103.5zM522 846l-150 -128h-86l133 172z" />
    <glyph glyph-name="Ucircumflex" unicode="&#xdb;" horiz-adv-x="701" 
d="M485 255v405h148v-398q0 -122 -73 -198q-74 -75 -210 -75q-138 0 -210.5 72t-72.5 198v401h149v-400q0 -65 35.5 -107t99.5 -42q63 0 98.5 40.5t35.5 103.5zM367 880l162 -164h-111l-64 69l-70 -69h-107l169 164h21z" />
    <glyph glyph-name="Udieresis" unicode="&#xdc;" horiz-adv-x="701" 
d="M321 794q0 -27 -18 -45.5t-45 -18.5q-28 0 -45.5 18t-17.5 44q0 27 19 45.5t44 18.5q27 0 45 -18.5t18 -43.5zM507 794q0 -27 -17.5 -45.5t-44.5 -18.5t-44.5 17.5t-17.5 44.5t18.5 45.5t43.5 18.5q26 0 44 -18.5t18 -43.5zM485 255v405h148v-398q0 -122 -73 -198
q-74 -75 -210 -75q-138 0 -210.5 72t-72.5 198v401h149v-400q0 -65 35.5 -107t99.5 -42q63 0 98.5 40.5t35.5 103.5z" />
    <glyph glyph-name="Yacute" unicode="&#xdd;" horiz-adv-x="611" 
d="M168 660l142 -278h4l130 278h159l-220 -399v-261h-149v261l-227 399h161zM480 843l-150 -128h-86l133 172z" />
    <glyph glyph-name="Thorn" unicode="&#xde;" horiz-adv-x="590" 
d="M570 357q0 -80 -59 -148q-58 -67 -174 -67h-121v-142h-148v661h148v-91h116q111 0 175 -62q63 -61 63 -151zM423 353q0 45 -28.5 75t-82.5 30h-96v-207h96q51 0 81 28.5t30 73.5z" />
    <glyph glyph-name="germandbls" unicode="&#xdf;" horiz-adv-x="594" 
d="M193 511v-511h-135v490q0 105 62 170q61 66 172 66q98 0 156 -51q59 -50 59 -130q0 -17 -4 -34q-4 -21 -22.5 -48.5t-43.5 -41.5v-5q56 -20 88.5 -73t32.5 -123q0 -93 -57 -162q-56 -68 -162 -68q-27 0 -73 11v104q24 -6 44 -6q55 0 85.5 37t30.5 96q0 130 -140 130v91
q44 1 69 25.5t25 61.5t-28 61t-60 24q-51 0 -75 -32t-24 -82z" />
    <glyph glyph-name="agrave" unicode="&#xe0;" horiz-adv-x="520" 
d="M350 0l-10 52h-3q-53 -63 -157 -63q-70 0 -108.5 35.5t-38.5 91.5q0 71 53.5 113.5t154.5 42.5h87v9q0 81 -102 81q-67 0 -138 -38v101q74 34 171 34q203 0 203 -192v-267h-112zM163 136q0 -26 19.5 -40.5t50.5 -14.5q44 0 69.5 27.5t25.5 70.5v17h-70q-95 0 -95 -60z
M213 695l118 -179h-77l-138 136z" />
    <glyph glyph-name="aacute" unicode="&#xe1;" horiz-adv-x="520" 
d="M350 0l-10 52h-3q-53 -63 -157 -63q-70 0 -108.5 35.5t-38.5 91.5q0 71 53.5 113.5t154.5 42.5h87v9q0 81 -102 81q-67 0 -138 -38v101q74 34 171 34q203 0 203 -192v-267h-112zM163 136q0 -26 19.5 -40.5t50.5 -14.5q44 0 69.5 27.5t25.5 70.5v17h-70q-95 0 -95 -60z
M412 652l-138 -136h-77l119 179z" />
    <glyph glyph-name="acircumflex" unicode="&#xe2;" horiz-adv-x="520" 
d="M350 0l-10 52h-3q-53 -63 -157 -63q-70 0 -108.5 35.5t-38.5 91.5q0 71 53.5 113.5t154.5 42.5h87v9q0 81 -102 81q-67 0 -138 -38v101q74 34 171 34q203 0 203 -192v-267h-112zM163 136q0 -26 19.5 -40.5t50.5 -14.5q44 0 69.5 27.5t25.5 70.5v17h-70q-95 0 -95 -60z
M281 690l153 -174h-105l-61 74l-66 -74h-100l158 174h21z" />
    <glyph glyph-name="atilde" unicode="&#xe3;" horiz-adv-x="520" 
d="M350 0l-10 52h-3q-53 -63 -157 -63q-70 0 -108.5 35.5t-38.5 91.5q0 71 53.5 113.5t154.5 42.5h87v9q0 81 -102 81q-67 0 -138 -38v101q74 34 171 34q203 0 203 -192v-267h-112zM163 136q0 -26 19.5 -40.5t50.5 -14.5q44 0 69.5 27.5t25.5 70.5v17h-70q-95 0 -95 -60z
M385 666l37 -55q-32 -83 -91 -83q-27 0 -71 25t-62 25q-31 0 -56 -55l-41 55q15 37 40 60.5t55 23.5q24 0 68 -26q46 -26 64 -26q28 0 57 56z" />
    <glyph glyph-name="adieresis" unicode="&#xe4;" horiz-adv-x="520" 
d="M350 0l-10 52h-3q-53 -63 -157 -63q-70 0 -108.5 35.5t-38.5 91.5q0 71 53.5 113.5t154.5 42.5h87v9q0 81 -102 81q-67 0 -138 -38v101q74 34 171 34q203 0 203 -192v-267h-112zM163 136q0 -26 19.5 -40.5t50.5 -14.5q44 0 69.5 27.5t25.5 70.5v17h-70q-95 0 -95 -60z
M175 536q-27 0 -45 18t-18 45q0 26 19 44t44 18q27 0 44.5 -18t17.5 -44q0 -27 -17.5 -45t-44.5 -18zM361 536q-27 0 -44.5 18t-17.5 45q0 26 18.5 44t43.5 18q27 0 44.5 -18t17.5 -44q0 -27 -17.5 -45t-44.5 -18z" />
    <glyph glyph-name="aring" unicode="&#xe5;" horiz-adv-x="520" 
d="M350 0l-10 52h-3q-53 -63 -157 -63q-70 0 -108.5 35.5t-38.5 91.5q0 71 53.5 113.5t154.5 42.5h87v9q0 81 -102 81q-67 0 -138 -38v101q74 34 171 34q203 0 203 -192v-267h-112zM163 136q0 -26 19.5 -40.5t50.5 -14.5q44 0 69.5 27.5t25.5 70.5v17h-70q-95 0 -95 -60z
M266 509q-51 0 -83.5 31.5t-32.5 79.5q0 49 33.5 83t82.5 34q51 0 85 -34t34 -83q0 -47 -34.5 -79t-84.5 -32zM266 672q-19 0 -32.5 -15.5t-13.5 -36.5q0 -19 13 -32.5t33 -13.5q21 0 34.5 13.5t13.5 32.5q0 22 -13.5 37t-34.5 15z" />
    <glyph glyph-name="ae" unicode="&#xe6;" horiz-adv-x="814" 
d="M558 461q104 0 163.5 -61t59.5 -168v-31h-318q3 -58 39.5 -87.5t95.5 -29.5q86 0 160 50v-97q-74 -48 -175 -48q-138 0 -195 88q-63 -90 -193 -90q-78 0 -124 36.5t-46 92.5q0 71 52 112t138 42l107 1v10q0 81 -102 81q-68 0 -141 -38v101q78 35 172 35q110 0 155 -66
q61 67 152 67zM157 137q0 -29 19 -44.5t53 -15.5q44 0 69.5 31t25.5 81v10h-61q-52 0 -79 -13.5t-27 -48.5zM564 363q-43 0 -69.5 -24.5t-29.5 -68.5h194q-7 93 -95 93z" />
    <glyph glyph-name="ccedilla" unicode="&#xe7;" horiz-adv-x="440" 
d="M354 -141q0 -43 -35.5 -72.5t-98.5 -29.5q-45 0 -87 16v62q41 -18 81 -18q25 0 41 11.5t16 30.5q0 17 -15 27t-38 10q-20 0 -35 -7q-6 2 -19 15l46 91q-83 15 -129 75t-46 148q0 106 68 174q68 67 177 67q66 0 117 -20v-110q-41 24 -95 24q-58 0 -94.5 -35.5t-36.5 -95.5
q0 -59 34.5 -93t93.5 -34q62 0 114 31v-107q-55 -30 -146 -30h-5l-22 -40q55 -3 84.5 -28t29.5 -62z" />
    <glyph glyph-name="egrave" unicode="&#xe8;" horiz-adv-x="522" 
d="M265 460q103 0 162 -62.5t59 -170.5v-30h-317q11 -105 134 -105q82 0 161 52v-107q-74 -48 -175 -48q-123 0 -189 66q-65 67 -65 170q0 100 64 167q65 68 166 68zM270 363q-36 0 -62 -22.5t-35 -59.5h189q-18 82 -92 82zM220 695l118 -179h-77l-138 136z" />
    <glyph glyph-name="eacute" unicode="&#xe9;" horiz-adv-x="522" 
d="M265 460q103 0 162 -62.5t59 -170.5v-30h-317q11 -105 134 -105q82 0 161 52v-107q-74 -48 -175 -48q-123 0 -189 66q-65 67 -65 170q0 100 64 167q65 68 166 68zM270 363q-36 0 -62 -22.5t-35 -59.5h189q-18 82 -92 82zM412 652l-138 -136h-77l119 179z" />
    <glyph glyph-name="ecircumflex" unicode="&#xea;" horiz-adv-x="522" 
d="M265 460q103 0 162 -62.5t59 -170.5v-30h-317q11 -105 134 -105q82 0 161 52v-107q-74 -48 -175 -48q-123 0 -189 66q-65 67 -65 170q0 100 64 167q65 68 166 68zM270 363q-36 0 -62 -22.5t-35 -59.5h189q-18 82 -92 82zM285 690l153 -174h-105l-61 74l-66 -74h-100
l158 174h21z" />
    <glyph glyph-name="edieresis" unicode="&#xeb;" horiz-adv-x="522" 
d="M265 460q103 0 162 -62.5t59 -170.5v-30h-317q11 -105 134 -105q82 0 161 52v-107q-74 -48 -175 -48q-123 0 -189 66q-65 67 -65 170q0 100 64 167q65 68 166 68zM270 363q-36 0 -62 -22.5t-35 -59.5h189q-18 82 -92 82zM176 536q-27 0 -45 18t-18 45q0 26 19 44t44 18
q27 0 44.5 -18t17.5 -44q0 -27 -17.5 -45t-44.5 -18zM362 536q-27 0 -44.5 18t-17.5 45q0 26 18.5 44t43.5 18q27 0 44.5 -18t17.5 -44q0 -27 -17.5 -45t-44.5 -18z" />
    <glyph glyph-name="igrave" unicode="&#xec;" horiz-adv-x="264" 
d="M200 446v-446h-137v446h137zM72 695l118 -179h-77l-138 136z" />
    <glyph glyph-name="iacute" unicode="&#xed;" horiz-adv-x="264" 
d="M200 446v-446h-137v446h137zM288 652l-138 -136h-77l119 179z" />
    <glyph glyph-name="icircumflex" unicode="&#xee;" horiz-adv-x="264" 
d="M148 690l153 -174h-105l-61 74l-66 -74h-100l158 174h21zM200 446v-446h-137v446h137z" />
    <glyph glyph-name="idieresis" unicode="&#xef;" horiz-adv-x="264" 
d="M43 536q-27 0 -45 18t-18 45q0 26 19 44t44 18q27 0 44.5 -18t17.5 -44q0 -27 -17.5 -45t-44.5 -18zM229 536q-27 0 -44.5 18t-17.5 45q0 26 18.5 44t43.5 18q27 0 44.5 -18t17.5 -44q0 -27 -17.5 -45t-44.5 -18zM200 446v-446h-137v446h137z" />
    <glyph glyph-name="eth" unicode="&#xf0;" horiz-adv-x="568" 
d="M203 487v66l47 32q-53 46 -125 86l95 54q66 -36 119 -80l94 63v-70l-49 -32q72 -72 111.5 -162.5t39.5 -183.5q0 -51 -14 -97.5t-42.5 -86t-78.5 -63t-115 -23.5q-117 0 -184 64q-66 64 -66 166q0 97 67 164q68 68 169 68q85 0 119 -40l4 2q-18 50 -100 132zM285 343
q-50 0 -82.5 -35t-32.5 -87q0 -56 31 -90t84 -34q52 0 83.5 36t31.5 89q0 52 -32 86.5t-83 34.5z" />
    <glyph glyph-name="ntilde" unicode="&#xf1;" horiz-adv-x="559" 
d="M500 283v-283h-135v255q0 42 -20.5 68.5t-53.5 26.5q-44 0 -71 -31.5t-27 -89.5v-229h-135v445h105q4 -11 9 -35q5 -23 6 -26h4q58 72 159 72q77 0 118 -45.5t41 -127.5zM390 667l37 -55q-32 -83 -91 -83q-27 0 -71 25t-62 25q-31 0 -56 -55l-41 55q15 37 40 60.5
t55 23.5q24 0 68 -26q46 -26 64 -26q28 0 57 56z" />
    <glyph glyph-name="ograve" unicode="&#xf2;" horiz-adv-x="568" 
d="M285 459q113 0 180 -67q68 -66 68 -168t-69 -168t-179 -66q-115 0 -183 65q-67 66 -67 169q0 101 70 168t180 67zM286 351q-51 0 -83.5 -35.5t-32.5 -89.5q0 -58 31.5 -93t84.5 -35t85 36t32 92q0 54 -32.5 89.5t-84.5 35.5zM229 695l118 -179h-77l-138 136z" />
    <glyph glyph-name="oacute" unicode="&#xf3;" horiz-adv-x="568" 
d="M285 459q113 0 180 -67q68 -66 68 -168t-69 -168t-179 -66q-115 0 -183 65q-67 66 -67 169q0 101 70 168t180 67zM286 351q-51 0 -83.5 -35.5t-32.5 -89.5q0 -58 31.5 -93t84.5 -35t85 36t32 92q0 54 -32.5 89.5t-84.5 35.5zM443 652l-138 -136h-77l119 179z" />
    <glyph glyph-name="ocircumflex" unicode="&#xf4;" horiz-adv-x="568" 
d="M285 459q113 0 180 -67q68 -66 68 -168t-69 -168t-179 -66q-115 0 -183 65q-67 66 -67 169q0 101 70 168t180 67zM286 351q-51 0 -83.5 -35.5t-32.5 -89.5q0 -58 31.5 -93t84.5 -35t85 36t32 92q0 54 -32.5 89.5t-84.5 35.5zM300 690l153 -174h-105l-61 74l-66 -74h-100
l158 174h21z" />
    <glyph glyph-name="otilde" unicode="&#xf5;" horiz-adv-x="568" 
d="M285 459q113 0 180 -67q68 -66 68 -168t-69 -168t-179 -66q-115 0 -183 65q-67 66 -67 169q0 101 70 168t180 67zM286 351q-51 0 -83.5 -35.5t-32.5 -89.5q0 -58 31.5 -93t84.5 -35t85 36t32 92q0 54 -32.5 89.5t-84.5 35.5zM408 665l37 -55q-32 -83 -91 -83
q-27 0 -71 25t-62 25q-31 0 -56 -55l-41 55q15 37 40 60.5t55 23.5q24 0 68 -26q46 -26 64 -26q28 0 57 56z" />
    <glyph glyph-name="odieresis" unicode="&#xf6;" horiz-adv-x="568" 
d="M285 459q113 0 180 -67q68 -66 68 -168t-69 -168t-179 -66q-115 0 -183 65q-67 66 -67 169q0 101 70 168t180 67zM286 351q-51 0 -83.5 -35.5t-32.5 -89.5q0 -58 31.5 -93t84.5 -35t85 36t32 92q0 54 -32.5 89.5t-84.5 35.5zM190 536q-27 0 -45 18t-18 45q0 26 19 44
t44 18q27 0 44.5 -18t17.5 -44q0 -27 -17.5 -45t-44.5 -18zM376 536q-27 0 -44.5 18t-17.5 45q0 26 18.5 44t43.5 18q27 0 44.5 -18t17.5 -44q0 -27 -17.5 -45t-44.5 -18z" />
    <glyph glyph-name="divide" unicode="&#xf7;" horiz-adv-x="572" 
d="M355 451q0 -28 -20.5 -48t-48.5 -20t-48 20t-20 48q0 29 20 49t48 20t48.5 -20t20.5 -49zM490 336v-82h-410v82h410zM286 71q-28 0 -48 20t-20 48q0 29 20 48.5t48 19.5q29 0 49 -20t20 -48t-20 -48t-49 -20z" />
    <glyph glyph-name="oslash" unicode="&#xf8;" horiz-adv-x="568" 
d="M285 459q85 0 147 -41l25 27h53l-47 -53q70 -64 70 -168q0 -102 -69 -168t-179 -66q-83 0 -142 36l-23 -26h-55l45 50q-75 64 -75 174q0 101 70 168t180 67zM287 357q-53 0 -87 -37.5t-34 -93.5q0 -49 23 -84l170 191q-31 24 -72 24zM407 226q0 42 -21 76l-170 -191
q29 -19 71 -19q53 0 86.5 38t33.5 96z" />
    <glyph glyph-name="ugrave" unicode="&#xf9;" horiz-adv-x="550" 
d="M57 169v277h135v-258q0 -40 20 -66t53 -26q43 0 67 31t24 91v227h135v-445h-108l-16 61h-4q-53 -68 -143 -68q-163 0 -163 176zM219 695l118 -179h-77l-138 136z" />
    <glyph glyph-name="uacute" unicode="&#xfa;" horiz-adv-x="550" 
d="M57 169v277h135v-258q0 -40 20 -66t53 -26q43 0 67 31t24 91v227h135v-445h-108l-16 61h-4q-53 -68 -143 -68q-163 0 -163 176zM429 652l-138 -136h-77l119 179z" />
    <glyph glyph-name="ucircumflex" unicode="&#xfb;" horiz-adv-x="550" 
d="M57 169v277h135v-258q0 -40 20 -66t53 -26q43 0 67 31t24 91v227h135v-445h-108l-16 61h-4q-53 -68 -143 -68q-163 0 -163 176zM288 690l153 -174h-105l-61 74l-66 -74h-100l158 174h21z" />
    <glyph glyph-name="udieresis" unicode="&#xfc;" horiz-adv-x="550" 
d="M57 169v277h135v-258q0 -40 20 -66t53 -26q43 0 67 31t24 91v227h135v-445h-108l-16 61h-4q-53 -68 -143 -68q-163 0 -163 176zM180 536q-27 0 -45 18t-18 45q0 26 19 44t44 18q27 0 44.5 -18t17.5 -44q0 -27 -17.5 -45t-44.5 -18zM366 536q-27 0 -44.5 18t-17.5 45
q0 26 18.5 44t43.5 18q27 0 44.5 -18t17.5 -44q0 -27 -17.5 -45t-44.5 -18z" />
    <glyph glyph-name="yacute" unicode="&#xfd;" horiz-adv-x="492" 
d="M140 446l101 -284h6l104 284h134l-283 -662h-131l109 244l-177 418h137zM411 651l-138 -136h-77l119 179z" />
    <glyph glyph-name="thorn" unicode="&#xfe;" horiz-adv-x="593" 
d="M191 44l-5 -4v-256h-134v927h134v-317q1 0 3 -1q1 -1 2 -1q53 63 148 63q106 0 163 -66q58 -64 58 -165q0 -104 -66 -168q-65 -65 -162 -65q-93 0 -141 53zM310 94q51 0 83.5 36.5t32.5 91.5q0 58 -31.5 93t-84.5 35q-51 0 -83.5 -37t-32.5 -92t32.5 -91t83.5 -36z" />
    <glyph glyph-name="ydieresis" unicode="&#xff;" horiz-adv-x="492" 
d="M140 446l101 -284h6l104 284h134l-283 -662h-131l109 244l-177 418h137zM156 531q-27 0 -45 18t-18 45q0 26 19 44t44 18q27 0 44.5 -18t17.5 -44q0 -27 -17.5 -45t-44.5 -18zM342 531q-27 0 -44.5 18t-17.5 45q0 26 18.5 44t43.5 18q27 0 44.5 -18t17.5 -44
q0 -27 -17.5 -45t-44.5 -18z" />
    <glyph glyph-name="Amacron" unicode="&#x100;" horiz-adv-x="662" 
d="M653 0h-151l-45 104h-253l-46 -104h-148l313 672h22zM334 389h-4l-81 -183h164zM490 744h-317v86h317v-86z" />
    <glyph glyph-name="amacron" unicode="&#x101;" horiz-adv-x="520" 
d="M350 0l-10 52h-3q-53 -63 -157 -63q-70 0 -108.5 35.5t-38.5 91.5q0 71 53.5 113.5t154.5 42.5h87v9q0 81 -102 81q-67 0 -138 -38v101q74 34 171 34q203 0 203 -192v-267h-112zM163 136q0 -26 19.5 -40.5t50.5 -14.5q44 0 69.5 27.5t25.5 70.5v17h-70q-95 0 -95 -60z
M415 544h-309v84h309v-84z" />
    <glyph glyph-name="Abreve" unicode="&#x102;" horiz-adv-x="662" 
d="M653 0h-151l-45 104h-253l-46 -104h-148l313 672h22zM334 389h-4l-81 -183h164zM334 712q-72 0 -112 46q-40 47 -41 113h69q2 -41 25.5 -64.5t60.5 -23.5q35 0 57 24t27 64h68q-5 -66 -43 -112q-38 -47 -111 -47z" />
    <glyph glyph-name="abreve" unicode="&#x103;" horiz-adv-x="520" 
d="M350 0l-10 52h-3q-53 -63 -157 -63q-70 0 -108.5 35.5t-38.5 91.5q0 71 53.5 113.5t154.5 42.5h87v9q0 81 -102 81q-67 0 -138 -38v101q74 34 171 34q203 0 203 -192v-267h-112zM163 136q0 -26 19.5 -40.5t50.5 -14.5q44 0 69.5 27.5t25.5 70.5v17h-70q-95 0 -95 -60z
M262 516q-70 0 -110 45t-43 116h69q2 -41 25.5 -64.5t60.5 -23.5q35 0 57 24t27 64h68q-5 -67 -43 -114t-111 -47z" />
    <glyph glyph-name="Aogonek" unicode="&#x104;" horiz-adv-x="662" 
d="M345 672l308 -672h-109q-66 -64 -66 -117q0 -49 58 -49q45 0 99 30l-2 -61q-59 -35 -134 -35q-52 0 -79.5 22t-27.5 63q0 37 26.5 81t77.5 80l-39 90h-253l-46 -104h-148l313 672h22zM334 389h-4l-81 -183h164z" />
    <glyph glyph-name="aogonek" unicode="&#x105;" horiz-adv-x="520" 
d="M347 15l-7 37h-3q-53 -63 -157 -63q-70 0 -108.5 35.5t-38.5 91.5q0 71 53.5 113.5t154.5 42.5h87v9q0 81 -102 81q-67 0 -138 -38v101q74 34 171 34q203 0 203 -192v-267h-69q-68 -63 -68 -118q0 -49 58 -49q45 0 99 30l-2 -61q-59 -35 -134 -35q-52 0 -79.5 22
t-27.5 63q0 37 27.5 82t80.5 81zM163 136q0 -26 19.5 -40.5t50.5 -14.5q44 0 69.5 27.5t25.5 70.5v17h-70q-95 0 -95 -60z" />
    <glyph glyph-name="Cacute" unicode="&#x106;" horiz-adv-x="622" 
d="M589 153l1 -126q-80 -39 -192 -39q-165 0 -260 95q-93 95 -93 244q0 145 98 246q99 100 259 100q102 0 167 -27v-125q-68 31 -146 31q-96 0 -162 -60q-65 -59 -65 -165q0 -102 58.5 -160t160.5 -58q88 0 174 44zM532 846l-150 -128h-86l133 172z" />
    <glyph glyph-name="cacute" unicode="&#x107;" horiz-adv-x="440" 
d="M280 459q66 0 117 -20v-110q-41 24 -95 24q-58 0 -94.5 -35.5t-36.5 -95.5q0 -59 34.5 -93t93.5 -34q62 0 114 31v-107q-55 -30 -146 -30q-110 0 -171 64t-61 165q0 106 68 174q68 67 177 67zM398 652l-138 -136h-77l119 179z" />
    <glyph glyph-name="Ccircumflex" unicode="&#x108;" horiz-adv-x="622" 
d="M589 153l1 -126q-80 -39 -192 -39q-165 0 -260 95q-93 95 -93 244q0 145 98 246q99 100 259 100q102 0 167 -27v-125q-68 31 -146 31q-96 0 -162 -60q-65 -59 -65 -165q0 -102 58.5 -160t160.5 -58q88 0 174 44zM395 886l159 -165h-109l-63 69l-68 -69h-105l165 165h21z
" />
    <glyph glyph-name="ccircumflex" unicode="&#x109;" horiz-adv-x="440" 
d="M280 459q66 0 117 -20v-110q-41 24 -95 24q-58 0 -94.5 -35.5t-36.5 -95.5q0 -59 34.5 -93t93.5 -34q62 0 114 31v-107q-55 -30 -146 -30q-110 0 -171 64t-61 165q0 106 68 174q68 67 177 67zM266 690l153 -174h-105l-61 74l-66 -74h-100l158 174h21z" />
    <glyph glyph-name="Cdotaccent" unicode="&#x10a;" horiz-adv-x="622" 
d="M589 153l1 -126q-80 -39 -192 -39q-165 0 -260 95q-93 95 -93 244q0 145 98 246q99 100 259 100q102 0 167 -27v-125q-68 31 -146 31q-96 0 -162 -60q-65 -59 -65 -165q0 -102 58.5 -160t160.5 -58q88 0 174 44zM457 807q0 -31 -21 -53.5t-53 -22.5t-53.5 21.5
t-21.5 52.5q0 32 22 53.5t53 21.5q32 0 53 -21.5t21 -51.5z" />
    <glyph glyph-name="cdotaccent" unicode="&#x10b;" horiz-adv-x="440" 
d="M280 459q66 0 117 -20v-110q-41 24 -95 24q-58 0 -94.5 -35.5t-36.5 -95.5q0 -59 34.5 -93t93.5 -34q62 0 114 31v-107q-55 -30 -146 -30q-110 0 -171 64t-61 165q0 106 68 174q68 67 177 67zM341 599q0 -31 -21 -53.5t-53 -22.5t-53.5 21.5t-21.5 52.5q0 32 22 53.5
t53 21.5q32 0 53 -21.5t21 -51.5z" />
    <glyph glyph-name="Ccaron" unicode="&#x10c;" horiz-adv-x="622" 
d="M589 153l1 -126q-80 -39 -192 -39q-165 0 -260 95q-93 95 -93 244q0 145 98 246q99 100 259 100q102 0 167 -27v-125q-68 31 -146 31q-96 0 -162 -60q-65 -59 -65 -165q0 -102 58.5 -160t160.5 -58q88 0 174 44zM380 811l63 71h108l-159 -164h-21l-164 164h105z" />
    <glyph glyph-name="ccaron" unicode="&#x10d;" horiz-adv-x="440" 
d="M280 459q66 0 117 -20v-110q-41 24 -95 24q-58 0 -94.5 -35.5t-36.5 -95.5q0 -59 34.5 -93t93.5 -34q62 0 114 31v-107q-55 -30 -146 -30q-110 0 -171 64t-61 165q0 106 68 174q68 67 177 67zM259 612l62 73h105l-153 -174h-21l-158 174h100z" />
    <glyph glyph-name="Dcaron" unicode="&#x10e;" horiz-adv-x="697" 
d="M505 332q0 100 -49 156.5t-143 56.5h-98v-430h104q86 0 136 56.5t50 160.5zM323 0h-256v660h242q163 0 252 -92q90 -91 90 -236q0 -143 -86 -238q-85 -94 -242 -94zM301 807l63 71h108l-159 -164h-21l-164 164h105z" />
    <glyph glyph-name="dcaron" unicode="&#x10f;" horiz-adv-x="710" 
d="M285 351q-50 0 -82 -37t-32 -92q0 -57 31 -91.5t85 -34.5q50 0 83 37t33 91q0 55 -32 91t-86 36zM402 412l5 3v147q1 66 1 148h130v-355q1 -157 1 -355h-102l-18 52q-26 -31 -69.5 -47t-89.5 -16q-103 0 -162 62q-59 64 -59 165q0 107 64 174q65 68 163 68q84 0 136 -46z
M592 652q0 28 19 47.5t46 19.5q30 0 48 -20t18 -51q0 -39 -28 -92q-27 -54 -59 -95l-48 8l46 122q-42 16 -42 61z" />
    <glyph glyph-name="Dcroat" unicode="&#x110;" horiz-adv-x="697" 
d="M323 0h-256v299h-54v76h54v285h242q163 0 252 -92q90 -91 90 -236q0 -143 -86 -238q-85 -94 -242 -94zM505 332q0 213 -220 213h-70v-170h147v-76h-147v-184h72q111 0 164.5 53.5t53.5 163.5z" />
    <glyph glyph-name="dslash" unicode="&#x111;" horiz-adv-x="589" 
d="M400 412l5 3v132h-169v63h170v100h130v-100h53v-63h-53v-274q1 -121 1 -273h-102l-18 52q-26 -31 -69.5 -47t-89.5 -16q-103 0 -162 62q-59 64 -59 165q0 107 64 174q65 68 163 68q84 0 136 -46zM283 351q-50 0 -82 -37t-32 -92q0 -57 31 -91.5t85 -34.5q50 0 83 37
t33 91q0 55 -32 91t-86 36z" />
    <glyph glyph-name="Emacron" unicode="&#x112;" horiz-adv-x="569" 
d="M216 115h317v-115h-466v660h447v-115h-298v-146h267v-111h-267v-173zM458 746h-317v86h317v-86z" />
    <glyph glyph-name="emacron" unicode="&#x113;" horiz-adv-x="522" 
d="M265 460q103 0 162 -62.5t59 -170.5v-30h-317q11 -105 134 -105q82 0 161 52v-107q-74 -48 -175 -48q-123 0 -189 66q-65 67 -65 170q0 100 64 167q65 68 166 68zM270 363q-36 0 -62 -22.5t-35 -59.5h189q-18 82 -92 82zM424 544h-309v84h309v-84z" />
    <glyph glyph-name="Ebreve" unicode="&#x114;" horiz-adv-x="569" 
d="M300 712q-72 0 -112 46q-40 47 -41 113h69q2 -41 25.5 -64.5t60.5 -23.5q35 0 57 24t27 64h68q-5 -66 -43 -112q-38 -47 -111 -47zM216 115h317v-115h-466v660h447v-115h-298v-146h267v-111h-267v-173z" />
    <glyph glyph-name="ebreve" unicode="&#x115;" horiz-adv-x="522" 
d="M265 460q103 0 162 -62.5t59 -170.5v-30h-317q11 -105 134 -105q82 0 161 52v-107q-74 -48 -175 -48q-123 0 -189 66q-65 67 -65 170q0 100 64 167q65 68 166 68zM270 363q-36 0 -62 -22.5t-35 -59.5h189q-18 82 -92 82zM271 516q-70 0 -110 45t-43 116h69
q2 -41 25.5 -64.5t60.5 -23.5q35 0 57 24t27 64h68q-5 -67 -43 -114t-111 -47z" />
    <glyph glyph-name="Edotaccent" unicode="&#x116;" horiz-adv-x="569" 
d="M216 115h317v-115h-466v660h447v-115h-298v-146h267v-111h-267v-173zM377 802q0 -31 -21 -53.5t-53 -22.5t-53.5 21.5t-21.5 52.5q0 32 22 53.5t53 21.5q32 0 53 -21.5t21 -51.5z" />
    <glyph glyph-name="edotaccent" unicode="&#x117;" horiz-adv-x="522" 
d="M265 460q103 0 162 -62.5t59 -170.5v-30h-317q11 -105 134 -105q82 0 161 52v-107q-74 -48 -175 -48q-123 0 -189 66q-65 67 -65 170q0 100 64 167q65 68 166 68zM270 363q-36 0 -62 -22.5t-35 -59.5h189q-18 82 -92 82zM344 598q0 -31 -21 -53.5t-53 -22.5t-53.5 21.5
t-21.5 52.5q0 32 22 53.5t53 21.5q32 0 53 -21.5t21 -51.5z" />
    <glyph glyph-name="Eogonek" unicode="&#x118;" horiz-adv-x="569" 
d="M216 115h317v-115h-79q-74 -66 -74 -124q0 -49 58 -49q45 0 99 30l-2 -61q-59 -35 -134 -35q-52 0 -79.5 22t-27.5 63q0 35 24 77t70 77h-321v660h447v-115h-298v-146h267v-111h-267v-173z" />
    <glyph glyph-name="eogonek" unicode="&#x119;" horiz-adv-x="522" 
d="M265 460q103 0 162 -62.5t59 -170.5v-30h-317q11 -105 134 -105q82 0 161 52v-107q-35 -23 -76 -35q-67 -61 -67 -117q0 -49 58 -49q45 0 99 30l-2 -61q-59 -35 -134 -35q-52 0 -79.5 22t-27.5 63q0 69 70 135q-2 0 -8 -0.5t-8 -0.5q-123 0 -189 66q-65 67 -65 170
q0 100 64 167q65 68 166 68zM270 363q-36 0 -62 -22.5t-35 -59.5h189q-18 82 -92 82z" />
    <glyph glyph-name="Ecaron" unicode="&#x11a;" horiz-adv-x="569" 
d="M216 115h317v-115h-466v660h447v-115h-298v-146h267v-111h-267v-173zM298 807l63 71h108l-159 -164h-21l-164 164h105z" />
    <glyph glyph-name="ecaron" unicode="&#x11b;" horiz-adv-x="522" 
d="M265 460q103 0 162 -62.5t59 -170.5v-30h-317q11 -105 134 -105q82 0 161 52v-107q-74 -48 -175 -48q-123 0 -189 66q-65 67 -65 170q0 100 64 167q65 68 166 68zM270 363q-36 0 -62 -22.5t-35 -59.5h189q-18 82 -92 82zM264 610l62 73h105l-153 -174h-21l-158 174h100z
" />
    <glyph glyph-name="Gcircumflex" unicode="&#x11c;" horiz-adv-x="680" 
d="M44 325q0 147 99 248q101 101 263 101q112 0 188 -36v-129q-80 42 -176 42t-160 -62q-62 -62 -62 -166q0 -95 52 -156q52 -60 154 -60q48 0 89 15v218h132v-313q-93 -38 -233 -38q-164 0 -256 93q-90 93 -90 243zM414 884l159 -165h-109l-63 69l-68 -69h-105l165 165h21z
" />
    <glyph glyph-name="gcircumflex" unicode="&#x11d;" horiz-adv-x="519" 
d="M33 -95q0 73 69 118l-27 5q-26 5 -40.5 19.5t-14.5 33.5v6l83 83q-46 40 -46 115q0 74 56 124t140 50q34 0 84 -14h159v-62q-8 -1 -70 -11q30 -42 30 -89q0 -68 -52 -114q-53 -47 -139 -47q-50 0 -92 17l-23 -38l217 -24q65 -8 94.5 -36t29.5 -83q0 -56 -55 -114
q-29 -31 -80.5 -50t-115.5 -19q-108 0 -157 39q-50 39 -50 91zM278 690l153 -174h-105l-61 74l-66 -74h-100l158 174h21zM241 -123q54 0 85 26q30 25 30 58q0 32 -50 37l-129 14q-29 -32 -29 -66q0 -30 24.5 -49.5t68.5 -19.5zM339 291q0 35 -23 58.5t-57 23.5
q-35 0 -57 -24t-22 -58q0 -38 21 -61t58 -23q36 0 58 23.5t22 60.5z" />
    <glyph glyph-name="Gbreve" unicode="&#x11e;" horiz-adv-x="680" 
d="M44 325q0 147 99 248q101 101 263 101q112 0 188 -36v-129q-80 42 -176 42t-160 -62q-62 -62 -62 -166q0 -95 52 -156q52 -60 154 -60q48 0 89 15v218h132v-313q-93 -38 -233 -38q-164 0 -256 93q-90 93 -90 243zM401 712q-72 0 -112 46q-40 47 -41 113h69
q2 -41 25.5 -64.5t60.5 -23.5q35 0 57 24t27 64h68q-5 -66 -43 -112q-38 -47 -111 -47z" />
    <glyph glyph-name="gbreve" unicode="&#x11f;" horiz-adv-x="519" 
d="M33 -95q0 73 69 118l-27 5q-26 5 -40.5 19.5t-14.5 33.5v6l83 83q-46 40 -46 115q0 74 56 124t140 50q34 0 84 -14h159v-62q-8 -1 -70 -11q30 -42 30 -89q0 -68 -52 -114q-53 -47 -139 -47q-50 0 -92 17l-23 -38l217 -24q65 -8 94.5 -36t29.5 -83q0 -56 -55 -114
q-29 -31 -80.5 -50t-115.5 -19q-108 0 -157 39q-50 39 -50 91zM265 516q-70 0 -110 45t-43 116h69q2 -41 25.5 -64.5t60.5 -23.5q35 0 57 24t27 64h68q-5 -67 -43 -114t-111 -47zM241 -123q54 0 85 26q30 25 30 58q0 32 -50 37l-129 14q-29 -32 -29 -66q0 -30 24.5 -49.5
t68.5 -19.5zM339 291q0 35 -23 58.5t-57 23.5q-35 0 -57 -24t-22 -58q0 -38 21 -61t58 -23q36 0 58 23.5t22 60.5z" />
    <glyph glyph-name="Gdotaccent" unicode="&#x120;" horiz-adv-x="680" 
d="M44 325q0 147 99 248q101 101 263 101q112 0 188 -36v-129q-80 42 -176 42t-160 -62q-62 -62 -62 -166q0 -95 52 -156q52 -60 154 -60q48 0 89 15v218h132v-313q-93 -38 -233 -38q-164 0 -256 93q-90 93 -90 243zM476 807q0 -31 -21 -53.5t-53 -22.5t-53.5 21.5
t-21.5 52.5q0 32 22 53.5t53 21.5q32 0 53 -21.5t21 -51.5z" />
    <glyph glyph-name="gdotaccent" unicode="&#x121;" horiz-adv-x="519" 
d="M33 -95q0 73 69 118l-27 5q-26 5 -40.5 19.5t-14.5 33.5v6l83 83q-46 40 -46 115q0 74 56 124t140 50q34 0 84 -14h159v-62q-8 -1 -70 -11q30 -42 30 -89q0 -68 -52 -114q-53 -47 -139 -47q-50 0 -92 17l-23 -38l217 -24q65 -8 94.5 -36t29.5 -83q0 -56 -55 -114
q-29 -31 -80.5 -50t-115.5 -19q-108 0 -157 39q-50 39 -50 91zM241 -123q54 0 85 26q30 25 30 58q0 32 -50 37l-129 14q-29 -32 -29 -66q0 -30 24.5 -49.5t68.5 -19.5zM339 291q0 35 -23 58.5t-57 23.5q-35 0 -57 -24t-22 -58q0 -38 21 -61t58 -23q36 0 58 23.5t22 60.5z
M338 598q0 -31 -21 -53.5t-53 -22.5t-53.5 21.5t-21.5 52.5q0 32 22 53.5t53 21.5q32 0 53 -21.5t21 -51.5z" />
    <glyph glyph-name="Gcommaaccent" unicode="&#x122;" horiz-adv-x="680" 
d="M44 325q0 147 99 248q101 101 263 101q112 0 188 -36v-129q-80 42 -176 42t-160 -62q-62 -62 -62 -166q0 -95 52 -156q52 -60 154 -60q48 0 89 15v218h132v-313q-93 -38 -233 -38q-164 0 -256 93q-90 93 -90 243zM326 -116q0 28 19 47.5t46 19.5q30 0 48 -20t18 -51
q0 -39 -28 -92q-27 -54 -59 -95l-48 8l46 122q-42 17 -42 61z" />
    <glyph glyph-name="gcommaaccent" unicode="&#x123;" horiz-adv-x="519" 
d="M33 -95q0 73 69 118l-27 5q-26 5 -40.5 19.5t-14.5 33.5v6l83 83q-46 40 -46 115q0 74 56 124t140 50q34 0 84 -14h159v-62q-8 -1 -70 -11q30 -42 30 -89q0 -68 -52 -114q-53 -47 -139 -47q-50 0 -92 17l-23 -38l217 -24q65 -8 94.5 -36t29.5 -83q0 -56 -55 -114
q-29 -31 -80.5 -50t-115.5 -19q-108 0 -157 39q-50 39 -50 91zM323 585q0 -28 -19 -47.5t-46 -19.5q-30 0 -48 20t-18 51q0 38 27 92q29 56 60 95l48 -8l-46 -122q42 -16 42 -61zM241 -123q54 0 85 26q30 25 30 58q0 32 -50 37l-129 14q-29 -32 -29 -66q0 -30 24.5 -49.5
t68.5 -19.5zM339 291q0 35 -23 58.5t-57 23.5q-35 0 -57 -24t-22 -58q0 -38 21 -61t58 -23q36 0 58 23.5t22 60.5z" />
    <glyph glyph-name="Hcircumflex" unicode="&#x124;" horiz-adv-x="694" 
d="M626 660v-660h-149v285h-261v-285h-149v660h149v-259h261v259h149zM361 882l159 -165h-109l-63 69l-68 -69h-105l165 165h21z" />
    <glyph glyph-name="hcircumflex" unicode="&#x125;" horiz-adv-x="554" 
d="M493 283v-283h-135v256q0 43 -20 68.5t-55 25.5q-44 0 -70.5 -31.5t-26.5 -89.5v-229h-136v711h131v-319h1l2 -1q52 64 144 64q78 0 121.5 -45.5t43.5 -126.5zM129 910l159 -165h-109l-63 69l-68 -69h-105l165 165h21z" />
    <glyph glyph-name="Hbar" unicode="&#x126;" horiz-adv-x="694" 
d="M67 507h-45v66h45v87h149v-87h261v87h149v-87h42v-66h-42v-507h-149v285h-261v-285h-149v507zM216 507v-106h261v106h-261z" />
    <glyph glyph-name="hbar" unicode="&#x127;" horiz-adv-x="552" 
d="M494 283v-283h-135v256q0 39 -21.5 66.5t-53.5 27.5q-44 0 -70.5 -31.5t-26.5 -89.5v-229h-136v547h-45v63h45v101h131v-101h168v-63h-168v-155h1q1 -1 2 -1q57 67 144 67q79 0 122 -46t43 -129z" />
    <glyph glyph-name="Itilde" unicode="&#x128;" horiz-adv-x="295" 
d="M276 868l37 -55q-32 -83 -91 -83q-27 0 -71 25t-62 25q-31 0 -56 -55l-41 55q15 37 40 60.5t55 23.5q24 0 68 -26q46 -26 64 -26q28 0 57 56zM221 660v-660h-149v660h149z" />
    <glyph glyph-name="itilde" unicode="&#x129;" horiz-adv-x="264" 
d="M256 666l37 -55q-32 -83 -91 -83q-27 0 -71 25t-62 25q-31 0 -56 -55l-41 55q15 37 40 60.5t55 23.5q24 0 68 -26q46 -26 64 -26q28 0 57 56zM200 446v-446h-137v446h137z" />
    <glyph glyph-name="Imacron" unicode="&#x12a;" horiz-adv-x="295" 
d="M308 744h-317v86h317v-86zM221 660v-660h-149v660h149z" />
    <glyph glyph-name="imacron" unicode="&#x12b;" horiz-adv-x="264" 
d="M200 446v-446h-137v446h137zM286 544h-309v84h309v-84z" />
    <glyph glyph-name="Ibreve" unicode="&#x12c;" horiz-adv-x="320" 
d="M161 713q-72 0 -112 46q-40 47 -41 113h69q2 -41 25.5 -64.5t60.5 -23.5q35 0 57 24t27 64h68q-5 -66 -43 -112q-38 -47 -111 -47zM233 660v-660h-149v660h149z" />
    <glyph glyph-name="ibreve" unicode="&#x12d;" horiz-adv-x="264" 
d="M134 517q-70 0 -110 45t-43 116h69q2 -41 25.5 -64.5t60.5 -23.5q35 0 57 24t27 64h68q-5 -67 -43 -114t-111 -47zM200 446v-446h-137v446h137z" />
    <glyph glyph-name="Iogonek" unicode="&#x12e;" horiz-adv-x="295" 
d="M221 660v-660h-51q-72 -64 -72 -122q0 -49 58 -49q45 0 99 30l-2 -61q-59 -35 -134 -35q-52 0 -79.5 22t-27.5 63q0 35 23.5 76t68.5 76h-32v660h149z" />
    <glyph glyph-name="iogonek" unicode="&#x12f;" horiz-adv-x="264" 
d="M200 446v-446h-49q-72 -64 -72 -122q0 -49 58 -49q45 0 99 30l-2 -61q-59 -35 -134 -35q-52 0 -79.5 22t-27.5 63q0 35 23.5 76t68.5 76h-22v446h137zM134 519q-32 0 -53.5 22t-21.5 53q0 30 22.5 52t52.5 22q32 0 53 -21.5t21 -52.5t-21 -53t-53 -22z" />
    <glyph glyph-name="Idot" unicode="&#x130;" horiz-adv-x="295" 
d="M224 802q0 -31 -21 -53.5t-53 -22.5t-53.5 21.5t-21.5 52.5q0 32 22 53.5t53 21.5q32 0 53 -21.5t21 -51.5zM221 660v-660h-149v660h149z" />
    <glyph glyph-name="dotlessi" unicode="&#x131;" horiz-adv-x="264" 
d="M200 446v-446h-137v446h137z" />
    <glyph glyph-name="IJ" unicode="&#x132;" horiz-adv-x="753" 
d="M402 108q70 0 100 39t30 119v394h151v-381q0 -98 -27 -166q-51 -125 -230 -125q-91 0 -158 34v125q69 -39 134 -39zM217 660v-660h-149v660h149z" />
    <glyph glyph-name="ij" unicode="&#x133;" horiz-adv-x="494" 
d="M442 594q0 -31 -21 -53t-53 -22q-33 0 -54 21.5t-21 52.5q0 30 22.5 52t52.5 22q32 0 53 -21.5t21 -51.5zM219 -224q-12 30 -23 54l-21 51q71 5 98 37.5t27 107.5v419h135v-428q0 -117 -57 -176t-159 -65zM196 446v-446h-137v446h137zM130 519q-32 0 -53.5 22t-21.5 53
q0 30 22.5 52t52.5 22q32 0 53 -21.5t21 -52.5t-21 -53t-53 -22z" />
    <glyph glyph-name="Jcircumflex" unicode="&#x134;" horiz-adv-x="497" 
d="M148 109q70 0 100 39t30 119v394h151v-381q0 -98 -27 -166q-51 -125 -230 -125q-91 0 -158 34v125q69 -39 134 -39zM369 882l159 -165h-109l-63 69l-68 -69h-105l165 165h21z" />
    <glyph glyph-name="jcircumflex" unicode="&#x135;" horiz-adv-x="255" 
d="M-21 -231l-43 104q68 4 96 38.5t28 107.5v426h134v-397q0 -144 -57 -209q-55 -64 -158 -70zM139 690l153 -174h-105l-61 74l-66 -74h-100l158 174h21z" />
    <glyph glyph-name="Kcommaaccent" unicode="&#x136;" horiz-adv-x="645" 
d="M67 660h150v-303l240 303h162l-259 -318l277 -342h-172l-248 327v-327h-150v660zM246 -99q0 28 19 47.5t46 19.5q30 0 48 -20t18 -51q0 -39 -28 -92q-27 -54 -59 -95l-48 8l46 122q-42 16 -42 61z" />
    <glyph glyph-name="kcommaaccent" unicode="&#x137;" horiz-adv-x="528" 
d="M361 445h148l-185 -212l198 -233h-154l-177 217v-217h-139v711h139v-466zM191 -108q0 28 19 47.5t46 19.5q30 0 48 -20t18 -51q0 -39 -28 -92q-27 -54 -59 -95l-48 8l46 122q-42 17 -42 61z" />
    <glyph glyph-name="kgreenlandic" unicode="&#x138;" horiz-adv-x="528" 
d="M357 445h148l-185 -212l198 -233h-154l-177 217v-217h-139v445h139v-200z" />
    <glyph glyph-name="Lacute" unicode="&#x139;" horiz-adv-x="532" 
d="M67 0v660h149v-545h305v-115h-454zM315 846l-150 -128h-86l133 172z" />
    <glyph glyph-name="lacute" unicode="&#x13a;" horiz-adv-x="252" 
d="M304 881l-150 -128h-86l133 172zM194 711v-711h-136v711h136z" />
    <glyph glyph-name="Lcommaaccent" unicode="&#x13b;" horiz-adv-x="532" 
d="M229 -110q0 28 19 47.5t46 19.5q30 0 48 -20t18 -51q0 -39 -28 -92q-27 -54 -59 -95l-48 8l46 122q-42 17 -42 61zM67 0v660h149v-545h305v-115h-454z" />
    <glyph glyph-name="lcommaaccent" unicode="&#x13c;" horiz-adv-x="252" 
d="M62 -110q0 28 19 47.5t46 19.5q30 0 48 -20t18 -51q0 -39 -28 -92q-27 -54 -59 -95l-48 8l46 122q-42 17 -42 61zM194 711v-711h-136v711h136z" />
    <glyph glyph-name="Lcaron" unicode="&#x13d;" horiz-adv-x="532" 
d="M353 604q0 28 19 47.5t46 19.5q30 0 48 -20t18 -51q0 -39 -28 -92q-27 -54 -59 -95l-48 8l46 122q-42 17 -42 61zM67 0v660h149v-545h305v-115h-454z" />
    <glyph glyph-name="lcaron" unicode="&#x13e;" horiz-adv-x="374" 
d="M256 653q0 28 19 47.5t46 19.5q30 0 48 -20t18 -51q0 -39 -28 -92q-27 -54 -59 -95l-48 8l46 122q-42 16 -42 61zM206 711v-711h-136v711h136z" />
    <glyph glyph-name="Ldot" unicode="&#x13f;" horiz-adv-x="532" 
d="M470 349q0 -31 -21 -53.5t-53 -22.5t-53.5 21.5t-21.5 52.5q0 32 22 53.5t53 21.5q32 0 53 -21.5t21 -51.5zM67 0v660h149v-545h305v-115h-454z" />
    <glyph glyph-name="ldot" unicode="&#x140;" horiz-adv-x="388" 
d="M393 357q0 -31 -21 -53.5t-53 -22.5t-53.5 21.5t-21.5 52.5q0 32 22 53.5t53 21.5q32 0 53 -21.5t21 -51.5zM206 711v-711h-136v711h136z" />
    <glyph glyph-name="Lslash" unicode="&#x141;" horiz-adv-x="532" 
d="M68 239l-70 -32v66q57 28 70 33v354h148v-298l135 65v-70l-135 -63v-179h305v-115h-453v239z" />
    <glyph glyph-name="lslash" unicode="&#x142;" horiz-adv-x="252" 
d="M194 314v-314h-137v265q-2 -1 -13.5 -6.5t-21.5 -9.5q-24 -11 -36 -18v67l38 19q29 14 33 16v378h137v-327l78 37v-70l-43 -20q-7 -4 -15.5 -7.5t-13 -6t-6.5 -3.5z" />
    <glyph glyph-name="Nacute" unicode="&#x143;" horiz-adv-x="721" 
d="M215 381v-381h-148v673h22q63 -62 207 -193q149 -134 205 -189h4v369h148v-671h-21l-414 392h-3zM506 844l-150 -128h-86l133 172z" />
    <glyph glyph-name="nacute" unicode="&#x144;" horiz-adv-x="559" 
d="M500 283v-283h-135v255q0 42 -20.5 68.5t-53.5 26.5q-44 0 -71 -31.5t-27 -89.5v-229h-135v445h105q4 -11 9 -35q5 -23 6 -26h4q58 72 159 72q77 0 118 -45.5t41 -127.5zM397 652l-138 -136h-77l119 179z" />
    <glyph glyph-name="Ncommaaccent" unicode="&#x145;" horiz-adv-x="721" 
d="M215 381v-381h-148v673h22q63 -62 207 -193q149 -134 205 -189h4v369h148v-671h-21l-414 392h-3zM308 -100q0 28 19 47.5t46 19.5q30 0 48 -20t18 -51q0 -39 -28 -92q-27 -54 -59 -95l-48 8l46 122q-42 17 -42 61z" />
    <glyph glyph-name="ncommaaccent" unicode="&#x146;" horiz-adv-x="559" 
d="M500 283v-283h-135v255q0 42 -20.5 68.5t-53.5 26.5q-44 0 -71 -31.5t-27 -89.5v-229h-135v445h105q4 -11 9 -35q5 -23 6 -26h4q58 72 159 72q77 0 118 -45.5t41 -127.5zM214 -106q0 28 19 47.5t46 19.5q30 0 48 -20t18 -51q0 -39 -28 -92q-27 -54 -59 -95l-48 8l46 122
q-42 17 -42 61z" />
    <glyph glyph-name="Ncaron" unicode="&#x147;" horiz-adv-x="721" 
d="M215 381v-381h-148v673h22q63 -62 207 -193q149 -134 205 -189h4v369h148v-671h-21l-414 392h-3zM358 807l63 71h108l-159 -164h-21l-164 164h105z" />
    <glyph glyph-name="ncaron" unicode="&#x148;" horiz-adv-x="559" 
d="M500 283v-283h-135v255q0 42 -20.5 68.5t-53.5 26.5q-44 0 -71 -31.5t-27 -89.5v-229h-135v445h105q4 -11 9 -35q5 -23 6 -26h4q58 72 159 72q77 0 118 -45.5t41 -127.5zM261 610l62 73h105l-153 -174h-21l-158 174h100z" />
    <glyph glyph-name="napostrophe" unicode="&#x149;" horiz-adv-x="610" 
d="M550 283v-283h-135v255q0 42 -20.5 68.5t-53.5 26.5q-44 0 -71 -31.5t-27 -89.5v-229h-135v445h105q4 -11 9 -35q5 -23 6 -26h4q58 72 159 72q77 0 118 -45.5t41 -127.5zM2 650q0 28 19 47.5t46 19.5q30 0 48 -20t18 -51q0 -39 -28 -92q-27 -54 -59 -95l-48 8l46 122
q-42 17 -42 61z" />
    <glyph glyph-name="Eng" unicode="&#x14a;" horiz-adv-x="721" 
d="M215 407v-407h-148v677h22l412 -415h4v398h148v-604q0 -148 -55 -216t-167 -74l-47 105q68 4 97 40.5t29 109.5v68l-292 318h-3z" />
    <glyph glyph-name="eng" unicode="&#x14b;" horiz-adv-x="559" 
d="M501 283v-246q0 -134 -55 -198t-162 -70l-42 102q68 4 95 38t27 108v140q1 49 1 94q0 43 -20.5 71t-53.5 28q-44 0 -71 -31.5t-27 -89.5v-229h-136v445h110l14 -61h4q59 72 156 72q77 0 118.5 -45.5t41.5 -127.5z" />
    <glyph glyph-name="Omacron" unicode="&#x14c;" horiz-adv-x="799" 
d="M399 -11q-161 0 -259 96q-96 97 -96 245q0 144 101 243q102 99 255 99q155 0 254 -99q99 -97 99 -243q0 -147 -100 -244q-98 -97 -254 -97zM401 549q-91 0 -149 -63q-58 -62 -58 -156q0 -95 56 -159q57 -63 151 -63q93 0 148 64q57 64 57 158q0 93 -57 156
q-55 63 -148 63zM554 747h-317v86h317v-86z" />
    <glyph glyph-name="omacron" unicode="&#x14d;" horiz-adv-x="568" 
d="M285 459q113 0 180 -67q68 -66 68 -168t-69 -168t-179 -66q-115 0 -183 65q-67 66 -67 169q0 101 70 168t180 67zM286 351q-51 0 -83.5 -35.5t-32.5 -89.5q0 -58 31.5 -93t84.5 -35t85 36t32 92q0 54 -32.5 89.5t-84.5 35.5zM440 544h-309v84h309v-84z" />
    <glyph glyph-name="Obreve" unicode="&#x14e;" horiz-adv-x="799" 
d="M399 -11q-161 0 -259 96q-96 97 -96 245q0 144 101 243q102 99 255 99q155 0 254 -99q99 -97 99 -243q0 -147 -100 -244q-98 -97 -254 -97zM401 549q-91 0 -149 -63q-58 -62 -58 -156q0 -95 56 -159q57 -63 151 -63q93 0 148 64q57 64 57 158q0 93 -57 156
q-55 63 -148 63zM400 712q-72 0 -112 46q-40 47 -41 113h69q2 -41 25.5 -64.5t60.5 -23.5q35 0 57 24t27 64h68q-5 -66 -43 -112q-38 -47 -111 -47z" />
    <glyph glyph-name="obreve" unicode="&#x14f;" horiz-adv-x="568" 
d="M285 459q113 0 180 -67q68 -66 68 -168t-69 -168t-179 -66q-115 0 -183 65q-67 66 -67 169q0 101 70 168t180 67zM286 351q-51 0 -83.5 -35.5t-32.5 -89.5q0 -58 31.5 -93t84.5 -35t85 36t32 92q0 54 -32.5 89.5t-84.5 35.5zM286 516q-70 0 -110 45t-43 116h69
q2 -41 25.5 -64.5t60.5 -23.5q35 0 57 24t27 64h68q-5 -67 -43 -114t-111 -47z" />
    <glyph glyph-name="Ohungarumlaut" unicode="&#x150;" horiz-adv-x="799" 
d="M399 -11q-161 0 -259 96q-96 97 -96 245q0 144 101 243q102 99 255 99q155 0 254 -99q99 -97 99 -243q0 -147 -100 -244q-98 -97 -254 -97zM401 549q-91 0 -149 -63q-58 -62 -58 -156q0 -95 56 -159q57 -63 151 -63q93 0 148 64q57 64 57 158q0 93 -57 156
q-55 63 -148 63zM640 846l-149 -128h-86l133 172zM495 846l-149 -128h-86l133 172z" />
    <glyph glyph-name="ohungarumlaut" unicode="&#x151;" horiz-adv-x="568" 
d="M285 459q113 0 180 -67q68 -66 68 -168t-69 -168t-179 -66q-115 0 -183 65q-67 66 -67 169q0 101 70 168t180 67zM286 351q-51 0 -83.5 -35.5t-32.5 -89.5q0 -58 31.5 -93t84.5 -35t85 36t32 92q0 54 -32.5 89.5t-84.5 35.5zM508 661l-138 -136h-76l118 180zM368 661
l-139 -136h-76l118 180z" />
    <glyph glyph-name="OE" unicode="&#x152;" horiz-adv-x="971" 
d="M618 114h317v-114h-437q-49 -11 -100 -11q-164 0 -259 96q-95 97 -95 246q0 146 100 245t255 99q61 0 112 -15h405v-115h-298v-146h266v-111h-266v-174zM400 108q39 0 69 12v420q-36 12 -69 12q-94 0 -151 -63q-56 -64 -56 -158q0 -97 56 -161q56 -62 151 -62z" />
    <glyph glyph-name="oe" unicode="&#x153;" horiz-adv-x="886" 
d="M283 459q57 0 104.5 -22.5t75.5 -61.5q27 40 72 63t96 23q104 0 162 -64q60 -63 60 -170v-27h-317q4 -55 39.5 -82.5t94.5 -27.5q87 0 161 50v-103q-73 -48 -175 -48q-131 0 -192 85q-29 -40 -78.5 -62t-106.5 -22q-114 0 -181 65q-65 67 -65 169q0 101 70 168t180 67z
M284 351q-51 0 -83.5 -35.5t-32.5 -89.5q0 -58 31.5 -93t84.5 -35q52 0 84 36t32 92q0 54 -32 89.5t-84 35.5zM637 363q-36 0 -62 -22.5t-35 -59.5h189q-18 82 -92 82z" />
    <glyph glyph-name="Racute" unicode="&#x154;" horiz-adv-x="634" 
d="M66 659h267q103 0 173 -58q72 -57 72 -158q0 -60 -34 -115.5t-98 -84.5l174 -243h-170l-174 269v14q74 9 114.5 48t40.5 91q0 57 -34 90.5t-92 33.5h-90v-546h-149v659zM445 846l-150 -128h-86l133 172z" />
    <glyph glyph-name="racute" unicode="&#x155;" horiz-adv-x="378" 
d="M157 445l17 -71h5q20 39 55.5 61t77.5 22q34 0 58 -10v-123q-33 15 -68 15q-49 0 -79.5 -38.5t-30.5 -103.5v-197h-135v445h100zM304 652l-138 -136h-77l119 179z" />
    <glyph glyph-name="Rcommaaccent" unicode="&#x156;" horiz-adv-x="634" 
d="M66 659h267q103 0 173 -58q72 -57 72 -158q0 -60 -34 -115.5t-98 -84.5l174 -243h-170l-174 269v14q74 9 114.5 48t40.5 91q0 57 -34 90.5t-92 33.5h-90v-546h-149v659zM244 -98q0 28 19 47.5t46 19.5q30 0 48 -20t18 -51q0 -39 -28 -92q-27 -54 -59 -95l-48 8l46 122
q-42 17 -42 61z" />
    <glyph glyph-name="rcommaaccent" unicode="&#x157;" horiz-adv-x="378" 
d="M157 445l17 -71h5q20 39 55.5 61t77.5 22q34 0 58 -10v-123q-33 15 -68 15q-49 0 -79.5 -38.5t-30.5 -103.5v-197h-135v445h100zM58 -109q0 28 19 47.5t46 19.5q30 0 48 -20t18 -51q0 -39 -28 -92q-27 -54 -59 -95l-48 8l46 122q-42 16 -42 61z" />
    <glyph glyph-name="Rcaron" unicode="&#x158;" horiz-adv-x="634" 
d="M66 659h267q103 0 173 -58q72 -57 72 -158q0 -60 -34 -115.5t-98 -84.5l174 -243h-170l-174 269v14q74 9 114.5 48t40.5 91q0 57 -34 90.5t-92 33.5h-90v-546h-149v659zM294 807l63 71h108l-159 -164h-21l-164 164h105z" />
    <glyph glyph-name="rcaron" unicode="&#x159;" horiz-adv-x="378" 
d="M157 445l17 -71h5q20 39 55.5 61t77.5 22q34 0 58 -10v-123q-33 15 -68 15q-49 0 -79.5 -38.5t-30.5 -103.5v-197h-135v445h100zM177 610l62 73h105l-153 -174h-21l-158 174h100z" />
    <glyph glyph-name="Sacute" unicode="&#x15a;" horiz-adv-x="538" 
d="M32 41v136q42 -32 103 -52q58 -19 106 -19q53 0 84 18.5t31 54.5q0 59 -111 108q-39 17 -57 25.5t-52 29.5t-51 39.5t-31 47.5t-13 62q0 83 62 133q64 50 163 50q106 0 197 -42v-128q-35 23 -85 38t-88 15q-46 0 -73 -16.5t-27 -48.5q0 -14 8.5 -25.5t25.5 -22t34 -18
t44 -20t45 -21.5q44 -23 76 -45q37 -24 59.5 -66t22.5 -92q0 -84 -64 -139q-62 -55 -181 -55q-137 0 -228 53zM417 846l-150 -128h-86l133 172z" />
    <glyph glyph-name="sacute" unicode="&#x15b;" horiz-adv-x="399" 
d="M22 28v114q32 -24 75.5 -39.5t77.5 -15.5q66 0 66 36q0 18 -21.5 33t-52 29t-61 30.5t-52 45.5t-21.5 66q0 60 46.5 95.5t121.5 35.5t147 -31v-107q-65 37 -127 37q-56 0 -56 -33q0 -13 21 -25.5t51.5 -25t61 -29.5t51.5 -47.5t21 -70.5q0 -60 -48 -98t-133 -38
q-98 0 -168 38zM335 652l-138 -136h-77l119 179z" />
    <glyph glyph-name="Scircumflex" unicode="&#x15c;" horiz-adv-x="538" 
d="M32 41v136q42 -32 103 -52q58 -19 106 -19q53 0 84 18.5t31 54.5q0 59 -111 108q-39 17 -57 25.5t-52 29.5t-51 39.5t-31 47.5t-13 62q0 83 62 133q64 50 163 50q106 0 197 -42v-128q-35 23 -85 38t-88 15q-46 0 -73 -16.5t-27 -48.5q0 -14 8.5 -25.5t25.5 -22t34 -18
t44 -20t45 -21.5q44 -23 76 -45q37 -24 59.5 -66t22.5 -92q0 -84 -64 -139q-62 -55 -181 -55q-137 0 -228 53zM288 883l159 -165h-109l-63 69l-68 -69h-105l165 165h21z" />
    <glyph glyph-name="scircumflex" unicode="&#x15d;" horiz-adv-x="399" 
d="M22 28v114q32 -24 75.5 -39.5t77.5 -15.5q66 0 66 36q0 18 -21.5 33t-52 29t-61 30.5t-52 45.5t-21.5 66q0 60 46.5 95.5t121.5 35.5t147 -31v-107q-65 37 -127 37q-56 0 -56 -33q0 -13 21 -25.5t51.5 -25t61 -29.5t51.5 -47.5t21 -70.5q0 -60 -48 -98t-133 -38
q-98 0 -168 38zM213 690l153 -174h-105l-61 74l-66 -74h-100l158 174h21z" />
    <glyph glyph-name="Scedilla" unicode="&#x15e;" horiz-adv-x="538" 
d="M371 -143q0 -43 -35.5 -72.5t-98.5 -29.5q-45 0 -87 16v62q40 -18 81 -18q25 0 41 11.5t16 30.5q0 17 -15 27t-38 10q-18 0 -35 -7q-6 2 -19 15l44 87q-116 7 -193 52v136q42 -32 103 -52q58 -19 106 -19q53 0 84 18.5t31 54.5q0 59 -111 108q-39 17 -57 25.5t-52 29.5
t-51 39.5t-31 47.5t-13 62q0 83 62 133q64 50 163 50q106 0 197 -42v-128q-35 23 -85 38t-88 15q-46 0 -73 -16.5t-27 -48.5q0 -14 8.5 -25.5t25.5 -22t34 -18t44 -20t45 -21.5q44 -23 76 -45q37 -24 59.5 -66t22.5 -92q0 -82 -59.5 -135t-165.5 -58l-23 -42q55 -3 84.5 -28
t29.5 -62z" />
    <glyph glyph-name="scedilla" unicode="&#x15f;" horiz-adv-x="399" 
d="M295 -141q0 -43 -35.5 -72.5t-98.5 -29.5q-45 0 -87 16v62q40 -18 81 -18q25 0 41 11.5t16 30.5q0 17 -15 27t-38 10q-18 0 -35 -7q-6 2 -19 15l45 88q-75 7 -128 36v114q32 -24 75.5 -39.5t77.5 -15.5q66 0 66 36q0 18 -21.5 33t-52 29t-61 30.5t-52 45.5t-21.5 66
q0 60 46.5 95.5t121.5 35.5t147 -31v-107q-65 37 -127 37q-56 0 -56 -33q0 -13 21 -25.5t51.5 -25t61 -29.5t51.5 -47.5t21 -70.5q0 -57 -44 -94.5t-123 -40.5l-23 -42q55 -3 84.5 -28t29.5 -62z" />
    <glyph glyph-name="Scaron" unicode="&#x160;" horiz-adv-x="538" 
d="M32 41v136q42 -32 103 -52q58 -19 106 -19q53 0 84 18.5t31 54.5q0 59 -111 108q-39 17 -57 25.5t-52 29.5t-51 39.5t-31 47.5t-13 62q0 83 62 133q64 50 163 50q106 0 197 -42v-128q-35 23 -85 38t-88 15q-46 0 -73 -16.5t-27 -48.5q0 -14 8.5 -25.5t25.5 -22t34 -18
t44 -20t45 -21.5q44 -23 76 -45q37 -24 59.5 -66t22.5 -92q0 -84 -64 -139q-62 -55 -181 -55q-137 0 -228 53zM261 807l63 71h108l-159 -164h-21l-164 164h105z" />
    <glyph glyph-name="scaron" unicode="&#x161;" horiz-adv-x="399" 
d="M22 28v114q32 -24 75.5 -39.5t77.5 -15.5q66 0 66 36q0 18 -21.5 33t-52 29t-61 30.5t-52 45.5t-21.5 66q0 60 46.5 95.5t121.5 35.5t147 -31v-107q-65 37 -127 37q-56 0 -56 -33q0 -13 21 -25.5t51.5 -25t61 -29.5t51.5 -47.5t21 -70.5q0 -60 -48 -98t-133 -38
q-98 0 -168 38zM196 610l62 73h105l-153 -174h-21l-158 174h100z" />
    <glyph glyph-name="Tcommaaccent" unicode="&#x162;" horiz-adv-x="559" 
d="M388 -141q0 -43 -35.5 -72.5t-98.5 -29.5q-45 0 -87 16v62q41 -18 81 -18q25 0 41 11.5t16 30.5q0 17 -15 27t-38 10q-18 0 -35 -7q-6 2 -19 15q35 70 49 96h-42v546h-193v115h534v-115h-192v-546h-52l-28 -51q55 -3 84.5 -28t29.5 -62z" />
    <glyph glyph-name="tcommaaccent" unicode="&#x163;" horiz-adv-x="369" 
d="M292 -141q0 -43 -35.5 -72.5t-98.5 -29.5q-45 0 -87 16v62q41 -18 81 -18q25 0 41 11.5t16 30.5q0 17 -15 27t-38 10q-20 0 -35 -7q-6 2 -19 15q46 90 52 101q-68 35 -68 140v200h-69v75l84 27l97 144h22v-146h119v-100h-119v-177q0 -36 13.5 -52.5t44.5 -16.5
q36 0 76 24v-103q-49 -31 -117 -31q-19 0 -35 3l-24 -43q55 -3 84.5 -28t29.5 -62z" />
    <glyph glyph-name="Tcaron" unicode="&#x164;" horiz-adv-x="559" 
d="M546 661v-115h-192v-546h-149v546h-193v115h534zM282 807l63 71h108l-159 -164h-21l-164 164h105z" />
    <glyph glyph-name="tcaron" unicode="&#x165;" horiz-adv-x="419" 
d="M95 447l97 144h22v-146h119v-100h-119v-177q0 -36 13.5 -52.5t44.5 -16.5q36 0 76 24v-103q-49 -31 -117 -31q-151 0 -151 156v200h-69v75zM291 683q0 28 19 47.5t46 19.5q30 0 48 -20t18 -51q0 -39 -28 -92q-27 -54 -59 -95l-48 8l46 122q-42 16 -42 61z" />
    <glyph glyph-name="Tbar" unicode="&#x166;" horiz-adv-x="559" 
d="M546 661v-115h-192v-174h143v-67h-143v-305h-149v305h-143v67h143v174h-192v115h533z" />
    <glyph glyph-name="tbar" unicode="&#x167;" horiz-adv-x="371" 
d="M100 461l98 130h22v-146h119v-100h-119v-59h102v-58h-102q0 -4 0.5 -21t0.5 -23q0 -12 3 -39q7 -26 18 -38t36 -12q36 0 76 24v-99q-49 -31 -117 -31q-80 0 -115.5 43.5t-35.5 137.5v58h-60v58h60v59h-69v75z" />
    <glyph glyph-name="Utilde" unicode="&#x168;" horiz-adv-x="701" 
d="M476 867l37 -55q-32 -83 -91 -83q-27 0 -71 25t-62 25q-31 0 -56 -55l-41 55q15 37 40 60.5t55 23.5q24 0 68 -26q46 -26 64 -26q28 0 57 56zM485 255v405h148v-398q0 -122 -73 -198q-74 -75 -210 -75q-138 0 -210.5 72t-72.5 198v401h149v-400q0 -65 35.5 -107t99.5 -42
q63 0 98.5 40.5t35.5 103.5z" />
    <glyph glyph-name="utilde" unicode="&#x169;" horiz-adv-x="550" 
d="M57 169v277h135v-258q0 -40 20 -66t53 -26q43 0 67 31t24 91v227h135v-445h-108l-16 61h-4q-53 -68 -143 -68q-163 0 -163 176zM399 665l37 -55q-32 -83 -91 -83q-27 0 -71 25t-62 25q-31 0 -56 -55l-41 55q15 37 40 60.5t55 23.5q24 0 68 -26q46 -26 64 -26q28 0 57 56z
" />
    <glyph glyph-name="Umacron" unicode="&#x16a;" horiz-adv-x="701" 
d="M485 255v405h148v-398q0 -122 -73 -198q-74 -75 -210 -75q-138 0 -210.5 72t-72.5 198v401h149v-400q0 -65 35.5 -107t99.5 -42q63 0 98.5 40.5t35.5 103.5zM511 743h-317v86h317v-86z" />
    <glyph glyph-name="umacron" unicode="&#x16b;" horiz-adv-x="550" 
d="M57 169v277h135v-258q0 -40 20 -66t53 -26q43 0 67 31t24 91v227h135v-445h-108l-16 61h-4q-53 -68 -143 -68q-163 0 -163 176zM432 544h-309v84h309v-84z" />
    <glyph glyph-name="Ubreve" unicode="&#x16c;" horiz-adv-x="701" 
d="M485 255v405h148v-398q0 -122 -73 -198q-74 -75 -210 -75q-138 0 -210.5 72t-72.5 198v401h149v-400q0 -65 35.5 -107t99.5 -42q63 0 98.5 40.5t35.5 103.5zM354 702q-70 0 -110 45t-43 116h70q1 -41 24 -64.5t61 -23.5q35 0 57 24t27 64h68q-3 -65 -42 -113t-112 -48z
" />
    <glyph glyph-name="ubreve" unicode="&#x16d;" horiz-adv-x="550" 
d="M57 169v277h135v-258q0 -40 20 -66t53 -26q43 0 67 31t24 91v227h135v-445h-108l-16 61h-4q-53 -68 -143 -68q-163 0 -163 176zM273 512q-70 0 -110 45t-43 116h69q2 -41 25.5 -64.5t60.5 -23.5q35 0 57 24t27 64h68q-5 -67 -43 -114t-111 -47z" />
    <glyph glyph-name="Uring" unicode="&#x16e;" horiz-adv-x="701" 
d="M352 709q-51 0 -83.5 31.5t-32.5 79.5q0 49 33.5 83t82.5 34q51 0 85 -34t34 -83q0 -47 -34.5 -79t-84.5 -32zM352 872q-19 0 -32.5 -15.5t-13.5 -36.5q0 -19 13 -32.5t33 -13.5q21 0 34.5 13.5t13.5 32.5q0 22 -13.5 37t-34.5 15zM485 255v405h148v-398q0 -122 -73 -198
q-74 -75 -210 -75q-138 0 -210.5 72t-72.5 198v401h149v-400q0 -65 35.5 -107t99.5 -42q63 0 98.5 40.5t35.5 103.5z" />
    <glyph glyph-name="uring" unicode="&#x16f;" horiz-adv-x="550" 
d="M276 505q-51 0 -83.5 31.5t-32.5 79.5q0 49 33.5 83t82.5 34q51 0 85 -34t34 -83q0 -47 -34.5 -79t-84.5 -32zM276 668q-19 0 -32.5 -15.5t-13.5 -36.5q0 -19 13 -32.5t33 -13.5q21 0 34.5 13.5t13.5 32.5q0 22 -13.5 37t-34.5 15zM57 169v277h135v-258q0 -40 20 -66
t53 -26q43 0 67 31t24 91v227h135v-445h-108l-16 61h-4q-53 -68 -143 -68q-163 0 -163 176z" />
    <glyph glyph-name="Uhungarumlaut" unicode="&#x170;" horiz-adv-x="701" 
d="M485 255v405h148v-398q0 -122 -73 -198q-74 -75 -210 -75q-138 0 -210.5 72t-72.5 198v401h149v-400q0 -65 35.5 -107t99.5 -42q63 0 98.5 40.5t35.5 103.5zM584 846l-149 -128h-86l133 172zM439 846l-149 -128h-86l133 172z" />
    <glyph glyph-name="uhungarumlaut" unicode="&#x171;" horiz-adv-x="550" 
d="M57 169v277h135v-258q0 -40 20 -66t53 -26q43 0 67 31t24 91v227h135v-445h-108l-16 61h-4q-53 -68 -143 -68q-163 0 -163 176zM485 661l-138 -136h-76l118 180zM345 661l-139 -136h-76l118 180z" />
    <glyph glyph-name="Uogonek" unicode="&#x172;" horiz-adv-x="701" 
d="M485 255v405h148v-398q0 -115 -64 -187.5t-181 -83.5q-68 -63 -68 -119q0 -49 58 -49q45 0 99 30l-2 -61q-59 -35 -134 -35q-52 0 -79.5 22t-27.5 63q0 33 22 73.5t65 74.5q-124 8 -189 79t-65 190v401h149v-400q0 -65 35.5 -107t99.5 -42q63 0 98.5 40.5t35.5 103.5z
" />
    <glyph glyph-name="uogonek" unicode="&#x173;" horiz-adv-x="550" 
d="M57 169v277h135v-258q0 -40 20 -66t53 -26q43 0 67 31t24 91v227h135v-445h-66q-67 -60 -67 -117q0 -49 58 -49q46 0 99 31l-3 -62q-59 -35 -134 -35q-52 0 -79.5 22.5t-27.5 63.5q0 37 27.5 82t80.5 79l-12 46h-4q-53 -69 -148 -69q-158 0 -158 177z" />
    <glyph glyph-name="Wcircumflex" unicode="&#x174;" horiz-adv-x="960" 
d="M654 -12l-175 391h-4l-171 -391h-22l-275 671h164l138 -331h4l155 339h21l160 -339h4l135 331h163l-275 -671h-22zM493 882l159 -165h-109l-63 69l-68 -69h-105l165 165h21z" />
    <glyph glyph-name="wcircumflex" unicode="&#x175;" horiz-adv-x="753" 
d="M245 234l121 220h20l128 -220h4l96 211h136l-209 -453h-23l-142 256l-138 -256h-24l-210 453h139l98 -211h4zM389 690l153 -174h-105l-61 74l-66 -74h-100l158 174h21z" />
    <glyph glyph-name="Ycircumflex" unicode="&#x176;" horiz-adv-x="611" 
d="M168 660l142 -278h4l130 278h159l-220 -399v-261h-149v261l-227 399h161zM326 882l159 -165h-109l-63 69l-68 -69h-105l165 165h21z" />
    <glyph glyph-name="ycircumflex" unicode="&#x177;" horiz-adv-x="492" 
d="M140 446l101 -284h6l104 284h134l-283 -662h-131l109 244l-177 418h137zM262 690l153 -174h-105l-61 74l-66 -74h-100l158 174h21z" />
    <glyph glyph-name="Ydieresis" unicode="&#x178;" horiz-adv-x="611" 
d="M282 786q0 -27 -18 -45.5t-45 -18.5t-45 18t-18 44q0 27 19 45.5t44 18.5q27 0 45 -18.5t18 -43.5zM468 786q0 -27 -17.5 -45.5t-44.5 -18.5t-44.5 17.5t-17.5 44.5t18.5 45.5t43.5 18.5q26 0 44 -18.5t18 -43.5zM168 660l142 -278h4l130 278h159l-220 -399v-261h-149
v261l-227 399h161z" />
    <glyph glyph-name="Zacute" unicode="&#x179;" horiz-adv-x="577" 
d="M58 660h498v-16l-314 -530h305v-114h-530v15l317 530h-276v115zM467 846l-150 -128h-86l133 172z" />
    <glyph glyph-name="zacute" unicode="&#x17a;" horiz-adv-x="441" 
d="M43 445h380v-12l-222 -333h212v-100h-401v12l222 332h-191v101zM382 652l-138 -136h-77l119 179z" />
    <glyph glyph-name="Zdotaccent" unicode="&#x17b;" horiz-adv-x="577" 
d="M58 660h498v-16l-314 -530h305v-114h-530v15l317 530h-276v115zM388 803q0 -31 -21 -53.5t-53 -22.5t-53.5 21.5t-21.5 52.5q0 32 22 53.5t53 21.5q32 0 53 -21.5t21 -51.5z" />
    <glyph glyph-name="zdotaccent" unicode="&#x17c;" horiz-adv-x="441" 
d="M43 445h380v-12l-222 -333h212v-100h-401v12l222 332h-191v101zM308 596q0 -31 -21 -53.5t-53 -22.5t-53.5 21.5t-21.5 52.5q0 32 22 53.5t53 21.5q32 0 53 -21.5t21 -51.5z" />
    <glyph glyph-name="Zcaron" unicode="&#x17d;" horiz-adv-x="577" 
d="M58 660h498v-16l-314 -530h305v-114h-530v15l317 530h-276v115zM311 807l63 71h108l-159 -164h-21l-164 164h105z" />
    <glyph glyph-name="zcaron" unicode="&#x17e;" horiz-adv-x="441" 
d="M43 445h380v-12l-222 -333h212v-100h-401v12l222 332h-191v101zM231 610l62 73h105l-153 -174h-21l-158 174h100z" />
    <glyph glyph-name="longs" unicode="&#x17f;" horiz-adv-x="290" 
d="M378 713v-104q-39 14 -74 14q-91 0 -91 -106v-517h-134v345h-74v87l74 14v74q0 99 52 153t151 54q46 0 96 -14z" />
    <glyph glyph-name="florin" unicode="&#x192;" horiz-adv-x="572" 
d="M221 312h-80v91h90l8 73q19 198 180 198q53 0 102 -16v-109q-33 10 -63 10q-72 0 -83 -91l-7 -65h104v-91h-113l-17 -159q-15 -136 -59 -194q-43 -58 -132 -58q-50 0 -104 20v115q41 -16 70 -16q45 0 61 36q17 37 29 140z" />
    <glyph glyph-name="AEacute" unicode="&#x1fc;" horiz-adv-x="945" 
d="M910 115v-115h-454v113h-219l-87 -113h-158l508 660h391v-115h-298v-146h266v-111h-266v-173h317zM459 410h-4l-161 -209h165v209zM759 846l-150 -128h-86l133 172z" />
    <glyph glyph-name="aeacute" unicode="&#x1fd;" horiz-adv-x="814" 
d="M558 461q104 0 163.5 -61t59.5 -168v-31h-318q3 -58 39.5 -87.5t95.5 -29.5q86 0 160 50v-97q-74 -48 -175 -48q-138 0 -195 88q-63 -90 -193 -90q-78 0 -124 36.5t-46 92.5q0 71 52 112t138 42l107 1v10q0 81 -102 81q-68 0 -141 -38v101q78 35 172 35q110 0 155 -66
q61 67 152 67zM157 137q0 -29 19 -44.5t53 -15.5q44 0 69.5 31t25.5 81v10h-61q-52 0 -79 -13.5t-27 -48.5zM579 652l-138 -136h-77l119 179zM564 363q-43 0 -69.5 -24.5t-29.5 -68.5h194q-7 93 -95 93z" />
    <glyph glyph-name="Oslashacute" unicode="&#x1fe;" horiz-adv-x="799" 
d="M399 -12q-115 0 -197 51l-31 -39h-62l53 66q-117 98 -117 265q0 144 101 243q102 99 254 99q115 0 203 -58l36 46h60l-59 -74q113 -99 113 -256q0 -146 -100 -245q-100 -98 -254 -98zM191 331q0 -97 56 -159l275 344q-50 37 -120 37q-94 0 -152 -64q-59 -64 -59 -158z
M402 105q93 0 150 65q58 64 58 161q0 87 -54 151l-274 -343q52 -34 120 -34zM587 848l-150 -128h-86l133 172z" />
    <glyph glyph-name="oslashacute" unicode="&#x1ff;" horiz-adv-x="568" 
d="M285 459q85 0 147 -41l25 27h53l-47 -53q70 -64 70 -168q0 -102 -69 -168t-179 -66q-83 0 -142 36l-23 -26h-55l45 50q-75 64 -75 174q0 101 70 168t180 67zM287 357q-53 0 -87 -37.5t-34 -93.5q0 -49 23 -84l170 191q-31 24 -72 24zM407 226q0 42 -21 76l-170 -191
q29 -19 71 -19q53 0 86.5 38t33.5 96zM449 652l-138 -136h-77l119 179z" />
    <glyph glyph-name="Scommaaccent" unicode="&#x218;" horiz-adv-x="538" 
d="M32 41v136q42 -32 103 -52q58 -19 106 -19q53 0 84 18.5t31 54.5q0 59 -111 108q-39 17 -57 25.5t-52 29.5t-51 39.5t-31 47.5t-13 62q0 83 62 133q64 50 163 50q106 0 197 -42v-128q-35 23 -85 38t-88 15q-46 0 -73 -16.5t-27 -48.5q0 -14 8.5 -25.5t25.5 -22t34 -18
t44 -20t45 -21.5q44 -23 76 -45q37 -24 59.5 -66t22.5 -92q0 -84 -64 -139q-62 -55 -181 -55q-137 0 -228 53zM184 -110q0 28 19 47.5t46 19.5q30 0 48 -20t18 -51q0 -39 -28 -92q-27 -54 -59 -95l-48 8l46 122q-42 17 -42 61z" />
    <glyph glyph-name="scommaaccent" unicode="&#x219;" horiz-adv-x="399" 
d="M22 28v114q32 -24 75.5 -39.5t77.5 -15.5q66 0 66 36q0 18 -21.5 33t-52 29t-61 30.5t-52 45.5t-21.5 66q0 60 46.5 95.5t121.5 35.5t147 -31v-107q-65 37 -127 37q-56 0 -56 -33q0 -13 21 -25.5t51.5 -25t61 -29.5t51.5 -47.5t21 -70.5q0 -60 -48 -98t-133 -38
q-98 0 -168 38zM126 -110q0 28 19 47.5t46 19.5q30 0 48 -20t18 -51q0 -39 -28 -92q-27 -54 -59 -95l-48 8l46 122q-42 17 -42 61z" />
    <glyph glyph-name="uni021A" unicode="&#x21a;" horiz-adv-x="559" 
d="M546 661v-115h-192v-546h-149v546h-193v115h534zM210 -108q0 28 19 47.5t46 19.5q30 0 48 -20t18 -51q0 -39 -28 -92q-27 -54 -59 -95l-48 8l46 122q-42 17 -42 61z" />
    <glyph glyph-name="uni021B" unicode="&#x21b;" horiz-adv-x="369" 
d="M101 447l97 144h22v-146h119v-100h-119v-177q0 -36 13.5 -52.5t44.5 -16.5q36 0 76 24v-103q-49 -31 -117 -31q-151 0 -151 156v200h-69v75zM105 -110q0 28 19 47.5t46 19.5q30 0 48 -20t18 -51q0 -39 -28 -92q-27 -54 -59 -95l-48 8l46 122q-42 17 -42 61z" />
    <glyph glyph-name="schwa" unicode="&#x259;" horiz-adv-x="532" 
d="M265 -11q-102 0 -162 63.5t-60 169.5q0 17 1 22h317q-3 60 -37.5 91t-94.5 31q-83 0 -160 -50v95q74 49 186 49q117 0 178.5 -64t61.5 -172q0 -101 -64 -168t-166 -67zM360 190h-195q4 -48 28.5 -75.5t66.5 -27.5t69 28.5t31 74.5z" />
    <glyph glyph-name="primemod" unicode="&#x2b9;" horiz-adv-x="256" 
d="M239 602l-145 -264h-74l125 308z" />
    <glyph glyph-name="circumflex" unicode="&#x2c6;" horiz-adv-x="507" 
d="M266 690l153 -174h-105l-61 74l-66 -74h-100l158 174h21z" />
    <glyph glyph-name="caron" unicode="&#x2c7;" horiz-adv-x="507" 
d="M253 610l62 73h105l-153 -174h-21l-158 174h100z" />
    <glyph glyph-name="breve" unicode="&#x2d8;" horiz-adv-x="527" 
d="M260 516q-70 0 -110 45t-43 116h69q2 -41 25.5 -64.5t60.5 -23.5q35 0 57 24t27 64h68q-5 -67 -43 -114t-111 -47z" />
    <glyph glyph-name="dotaccent" unicode="&#x2d9;" horiz-adv-x="505" 
d="M350 596q0 -31 -21 -53.5t-53 -22.5t-53.5 21.5t-21.5 52.5q0 32 22 53.5t53 21.5q32 0 53 -21.5t21 -51.5z" />
    <glyph glyph-name="ring" unicode="&#x2da;" horiz-adv-x="511" 
d="M261 509q-51 0 -83.5 31.5t-32.5 79.5q0 49 33.5 83t82.5 34q51 0 85 -34t34 -83q0 -47 -34.5 -79t-84.5 -32zM261 672q-19 0 -32.5 -15.5t-13.5 -36.5q0 -19 13 -32.5t33 -13.5q21 0 34.5 13.5t13.5 32.5q0 22 -13.5 37t-34.5 15z" />
    <glyph glyph-name="ogonek" unicode="&#x2db;" horiz-adv-x="530" 
d="M379 44l21 -24q-39 -31 -64.5 -69t-25.5 -68q0 -49 58 -49q45 0 99 30l-2 -61q-59 -35 -134 -35q-52 0 -79.5 22t-27.5 63q0 42 37 97q37 54 118 94z" />
    <glyph glyph-name="tilde" unicode="&#x2dc;" horiz-adv-x="507" 
d="M381 665l37 -55q-32 -83 -91 -83q-27 0 -71 25t-62 25q-31 0 -56 -55l-41 55q15 37 40 60.5t55 23.5q24 0 68 -26q46 -26 64 -26q28 0 57 56z" />
    <glyph glyph-name="hungarumlaut" unicode="&#x2dd;" horiz-adv-x="507" 
d="M467 661l-138 -136h-76l118 180zM327 661l-139 -136h-76l118 180z" />
    <glyph glyph-name="tonos" unicode="&#x384;" horiz-adv-x="507" 
d="M408 661l-138 -136h-77l119 180z" />
    <glyph glyph-name="dieresistonos" unicode="&#x385;" horiz-adv-x="532" 
d="M134 536q-27 0 -45 18t-18 45q0 26 19 44t44 18q27 0 44.5 -18t17.5 -44q0 -27 -17.5 -45t-44.5 -18zM430 536q-27 0 -44.5 18t-17.5 45q0 26 18.5 44t43.5 18q27 0 44.5 -18t17.5 -44q0 -27 -17.5 -45t-44.5 -18zM388 661l-138 -136h-77l119 180z" />
    <glyph glyph-name="Alphatonos" unicode="&#x386;" horiz-adv-x="662" 
d="M653 0h-151l-45 104h-253l-46 -104h-148l313 672h22zM334 389h-4l-81 -183h164zM197 646l-138 -136h-77l119 180z" />
    <glyph glyph-name="anoteleia" unicode="&#x387;" horiz-adv-x="257" 
d="M197 339q0 -29 -21 -50t-50 -21t-50.5 21t-21.5 50q0 30 21.5 51t50.5 21t50 -21t21 -51z" />
    <glyph glyph-name="Epsilontonos" unicode="&#x388;" horiz-adv-x="569" 
d="M216 115h317v-115h-466v660h447v-115h-298v-146h267v-111h-267v-173zM29 646l-138 -136h-77l119 180z" />
    <glyph glyph-name="Etatonos" unicode="&#x389;" horiz-adv-x="694" 
d="M626 660v-660h-149v285h-261v-285h-149v660h149v-259h261v259h149zM28 646l-138 -136h-77l119 180z" />
    <glyph glyph-name="Iotatonos" unicode="&#x38a;" horiz-adv-x="295" 
d="M221 660v-660h-149v660h149zM38 646l-138 -136h-77l119 180z" />
    <glyph glyph-name="Omicrontonos" unicode="&#x38c;" horiz-adv-x="799" 
d="M399 -11q-161 0 -259 96q-96 97 -96 245q0 144 101 243q102 99 255 99q155 0 254 -99q99 -97 99 -243q0 -147 -100 -244q-98 -97 -254 -97zM401 549q-91 0 -149 -63q-58 -62 -58 -156q0 -95 56 -159q57 -63 151 -63q93 0 148 64q57 64 57 158q0 93 -57 156
q-55 63 -148 63zM83 646l-138 -136h-77l119 180z" />
    <glyph glyph-name="Upsilontonos" unicode="&#x38e;" horiz-adv-x="611" 
d="M168 660l142 -278h4l130 278h159l-220 -399v-261h-149v261l-227 399h161zM-7 646l-138 -136h-77l119 180z" />
    <glyph glyph-name="Omegatonos" unicode="&#x38f;" horiz-adv-x="795" 
d="M399 550q-96 0 -151 -67t-55 -167q0 -84 38 -172q39 -87 102 -126v-18h-301v114h98q2 2 2 4q-84 94 -84 227q0 142 98 235t253 93q153 0 250 -93q97 -91 97 -230q0 -132 -85 -232q1 -1 1 -4h97v-114h-301v18q69 38 106 123q38 87 38 173q0 100 -54 167q-53 69 -149 69z
M74 645l-138 -136h-77l119 180z" />
    <glyph glyph-name="iotadieresistonos" unicode="&#x390;" horiz-adv-x="259" 
d="M-9 536q-27 0 -45 18t-18 45q0 26 19 44t44 18q27 0 44.5 -18t17.5 -44q0 -27 -17.5 -45t-44.5 -18zM287 536q-27 0 -44.5 18t-17.5 45q0 26 18.5 44t43.5 18q27 0 44.5 -18t17.5 -44q0 -27 -17.5 -45t-44.5 -18zM245 661l-138 -136h-77l119 180zM198 446v-446h-137v446
h137z" />
    <glyph glyph-name="Alpha" unicode="&#x391;" horiz-adv-x="662" 
d="M653 0h-151l-45 104h-253l-46 -104h-148l313 672h22zM334 389h-4l-81 -183h164z" />
    <glyph glyph-name="Beta" unicode="&#x392;" horiz-adv-x="639" 
d="M479 360v-4q56 -20 85.5 -64t29.5 -98q0 -82 -59 -138t-150 -56h-317v661h294q87 0 139 -46q54 -45 54 -119q0 -40 -20 -76.5t-56 -59.5zM451 206q0 41 -29.5 64.5t-80.5 23.5h-128v-179h135q53 0 78 25.5t25 65.5zM329 549h-116v-149h111q40 0 65.5 17.5t25.5 55.5
q0 34 -22.5 55t-63.5 21z" />
    <glyph glyph-name="Gamma" unicode="&#x393;" horiz-adv-x="535" 
d="M519 545h-303v-545h-149v660h452v-115z" />
    <glyph glyph-name="increment" unicode="&#x394;" horiz-adv-x="676" 
d="M329 672h21l314 -672h-652zM335 428h-2l-140 -313h284z" />
    <glyph glyph-name="increment" unicode="&#x2206;" horiz-adv-x="676" 
d="M329 672h21l314 -672h-652zM335 428h-2l-140 -313h284z" />
    <glyph glyph-name="Epsilon" unicode="&#x395;" horiz-adv-x="569" 
d="M216 115h317v-115h-466v660h447v-115h-298v-146h267v-111h-267v-173z" />
    <glyph glyph-name="Zeta" unicode="&#x396;" horiz-adv-x="577" 
d="M58 660h498v-16l-314 -530h305v-114h-530v15l317 530h-276v115z" />
    <glyph glyph-name="Eta" unicode="&#x397;" horiz-adv-x="694" 
d="M626 660v-660h-149v285h-261v-285h-149v660h149v-259h261v259h149z" />
    <glyph glyph-name="Theta" unicode="&#x398;" horiz-adv-x="799" 
d="M399 -12q-161 0 -258 97t-97 245q0 145 101 244q101 100 255 100q155 0 254 -99q100 -99 100 -245q0 -147 -100 -244q-101 -98 -255 -98zM194 330q0 -95 56 -160q57 -63 151 -63t149 64q57 65 57 159t-57 157t-149 63q-91 0 -150 -63q-57 -63 -57 -157zM537 282h-275v112
h275v-112z" />
    <glyph glyph-name="Iota" unicode="&#x399;" horiz-adv-x="295" 
d="M221 660v-660h-149v660h149z" />
    <glyph glyph-name="Kappa" unicode="&#x39a;" horiz-adv-x="645" 
d="M67 660h150v-303l240 303h162l-259 -318l277 -342h-172l-248 327v-327h-150v660z" />
    <glyph glyph-name="Lambda" unicode="&#x39b;" horiz-adv-x="662" 
d="M653 0h-151l-170 391h-4l-173 -391h-145l313 671h22z" />
    <glyph glyph-name="Mu" unicode="&#x39c;" horiz-adv-x="815" 
d="M599 323l-180 -201h-22l-184 201q-1 -1 -3 -1v-322h-143v671h22l319 -369l318 369h21v-671h-144v322q-1 1 -4 1z" />
    <glyph glyph-name="Nu" unicode="&#x39d;" horiz-adv-x="721" 
d="M215 381v-381h-148v673h22q63 -62 207 -193q149 -134 205 -189h4v369h148v-671h-21l-414 392h-3z" />
    <glyph glyph-name="Xi" unicode="&#x39e;" horiz-adv-x="610" 
d="M564 661v-116h-519v116h519zM35 0v117h540v-117h-540zM100 289v112h417v-112h-417z" />
    <glyph glyph-name="Omicron" unicode="&#x39f;" horiz-adv-x="799" 
d="M399 -11q-161 0 -259 96q-96 97 -96 245q0 144 101 243q102 99 255 99q155 0 254 -99q99 -97 99 -243q0 -147 -100 -244q-98 -97 -254 -97zM401 549q-91 0 -149 -63q-58 -62 -58 -156q0 -95 56 -159q57 -63 151 -63q93 0 148 64q57 64 57 158q0 93 -57 156
q-55 63 -148 63z" />
    <glyph glyph-name="Pi" unicode="&#x3a0;" horiz-adv-x="698" 
d="M629 660v-660h-149v545h-264v-545h-149v660h562z" />
    <glyph glyph-name="Rho" unicode="&#x3a1;" horiz-adv-x="590" 
d="M216 0h-150v659h253q120 0 185 -65t65 -156q0 -96 -68 -161q-67 -64 -175 -64h-110v-213zM294 548h-79v-224h78q64 0 95.5 31t31.5 80t-33 81t-93 32z" />
    <glyph glyph-name="Sigma" unicode="&#x3a3;" horiz-adv-x="586" 
d="M253 545l124 -196l-137 -235h333v-114h-556v15l195 331l-185 298v16h528v-115h-302z" />
    <glyph glyph-name="Tau" unicode="&#x3a4;" horiz-adv-x="559" 
d="M546 661v-115h-192v-546h-149v546h-193v115h534z" />
    <glyph glyph-name="Upsilon" unicode="&#x3a5;" horiz-adv-x="611" 
d="M168 660l142 -278h4l130 278h159l-220 -399v-261h-149v261l-227 399h161z" />
    <glyph glyph-name="Phi" unicode="&#x3a6;" horiz-adv-x="884" 
d="M841 341q0 -114 -88 -190q-86 -75 -238 -89v-62h-146v62q-153 8 -240 83q-88 76 -88 196q0 115 92 192t236 85v42h147v-42q144 -8 234 -86q91 -78 91 -191zM699 341q0 69 -52 118q-51 50 -133 54v-345q84 5 134.5 53t50.5 120zM369 168v345q-83 -7 -133.5 -55t-50.5 -118
t49 -116.5t135 -55.5z" />
    <glyph glyph-name="Chi" unicode="&#x3a7;" horiz-adv-x="671" 
d="M662 0h-161l-166 317l-168 -317h-160l196 341l-183 318h160l155 -296l154 296h161l-185 -318z" />
    <glyph glyph-name="Psi" unicode="&#x3a8;" horiz-adv-x="825" 
d="M486 175v-175h-149v175q-139 8 -210 83q-72 76 -72 199v203h149v-206q0 -57 34 -103q34 -45 99 -51v360h149v-360q64 5 99 46t35 103v211h149v-200q0 -120 -74 -199q-74 -77 -209 -86z" />
    <glyph glyph-name="Omega" unicode="&#x3a9;" horiz-adv-x="795" 
d="M399 550q-96 0 -151 -67t-55 -167q0 -84 38 -172q39 -87 102 -126v-18h-301v114h98q2 2 2 4q-84 94 -84 227q0 142 98 235t253 93q153 0 250 -93q97 -91 97 -230q0 -132 -85 -232q1 -1 1 -4h97v-114h-301v18q69 38 106 123q38 87 38 173q0 100 -54 167q-53 69 -149 69z
" />
    <glyph glyph-name="Iotadieresis" unicode="&#x3aa;" horiz-adv-x="295" 
d="M221 660v-660h-149v660h149zM118 794q0 -27 -18 -45.5t-45 -18.5t-45 18t-18 44q0 27 19 45.5t44 18.5q27 0 45 -18.5t18 -43.5zM304 794q0 -27 -17.5 -45.5t-44.5 -18.5t-44.5 17.5t-17.5 44.5t18.5 45.5t43.5 18.5q26 0 44 -18.5t18 -43.5z" />
    <glyph glyph-name="Upsilondieresis" unicode="&#x3ab;" horiz-adv-x="611" 
d="M282 782q0 -27 -18 -45.5t-45 -18.5t-45 18t-18 44q0 27 19 45.5t44 18.5q27 0 45 -18.5t18 -43.5zM468 782q0 -27 -17.5 -45.5t-44.5 -18.5t-44.5 17.5t-17.5 44.5t18.5 45.5t43.5 18.5q26 0 44 -18.5t18 -43.5zM168 660l142 -278h4l130 278h159l-220 -399v-261h-149
v261l-227 399h161z" />
    <glyph glyph-name="alphatonos" unicode="&#x3ac;" horiz-adv-x="595" 
d="M170 224q0 -58 31.5 -93t84.5 -35q52 0 84 36t32 92q0 54 -32.5 89.5t-83.5 35.5t-83.5 -35.5t-32.5 -89.5zM269 457q104 0 159 -67l20 56h89v-446h-103l-12 56h-2l-2 1q-60 -65 -158 -65q-105 0 -165 60.5t-60 165.5q0 102 64 170q65 69 170 69zM429 661l-138 -136h-77
l119 180z" />
    <glyph glyph-name="epsilontonos" unicode="&#x3ad;" horiz-adv-x="421" 
d="M222 -10q-93 0 -142.5 35t-49.5 93q0 35 21 67t61 49v4q-35 12 -54 36.5t-19 54.5q0 58 50 94.5t138 36.5q77 0 149 -28v-108q-52 32 -127 32q-35 0 -57 -11.5t-22 -32.5q0 -28 44 -28h71v-94h-43q-37 0 -56 -13.5t-19 -36.5q0 -21 22.5 -34t65.5 -13q77 0 141 45v-109
q-74 -39 -174 -39zM360 661l-138 -136h-77l119 180z" />
    <glyph glyph-name="etatonos" unicode="&#x3ae;" horiz-adv-x="559" 
d="M499 283v-283h-135v255q0 42 -20.5 68.5t-53.5 26.5q-44 0 -71 -31.5t-27 -89.5v-229h-135v445h105q4 -11 9 -35q5 -23 6 -26h4q59 72 159 72q77 0 118 -45.5t41 -127.5zM404 661l-138 -136h-77l119 180z" />
    <glyph glyph-name="iotatonos" unicode="&#x3af;" horiz-adv-x="259" 
d="M198 446v-446h-137v446h137zM287 661l-138 -136h-77l119 180z" />
    <glyph glyph-name="upsilondieresistonos" unicode="&#x3b0;" horiz-adv-x="548" 
d="M134 536q-27 0 -45 18t-18 45q0 26 19 44t44 18q27 0 44.5 -18t17.5 -44q0 -27 -17.5 -45t-44.5 -18zM430 536q-27 0 -44.5 18t-17.5 45q0 26 18.5 44t43.5 18q27 0 44.5 -18t17.5 -44q0 -27 -17.5 -45t-44.5 -18zM388 661l-138 -136h-77l119 180zM356 201v244h137v-228
q0 -117 -65 -173q-64 -54 -160 -54q-101 0 -157 52.5t-56 148.5v254h134v-252q0 -43 21.5 -70t61.5 -27q84 0 84 105z" />
    <glyph glyph-name="alpha" unicode="&#x3b1;" horiz-adv-x="595" 
d="M170 224q0 -58 31.5 -93t84.5 -35q52 0 84 36t32 92q0 54 -32.5 89.5t-83.5 35.5t-83.5 -35.5t-32.5 -89.5zM269 457q104 0 159 -67l20 56h89v-446h-103l-12 56h-2l-2 1q-60 -65 -158 -65q-105 0 -165 60.5t-60 165.5q0 102 64 170q65 69 170 69z" />
    <glyph glyph-name="beta" unicode="&#x3b2;" horiz-adv-x="583" 
d="M183 42v-253h-137v642q0 134 56.5 214t182.5 80q95 0 153 -50q58 -49 58 -127q0 -40 -19.5 -75.5t-59.5 -54.5v-5q62 -21 96 -73.5t34 -119.5q0 -99 -63 -165q-62 -65 -156 -65q-87 0 -140 53q-4 0 -5 -1zM295 94q53 0 84.5 37.5t31.5 97.5q0 65 -40.5 97t-107.5 32v84
q51 3 77 27t26 62q0 33 -26 58.5t-59 25.5q-100 0 -100 -136v-253q0 -57 30 -94.5t84 -37.5z" />
    <glyph glyph-name="gamma" unicode="&#x3b3;" horiz-adv-x="509" 
d="M196 317l58 -158h5l49 138l55 148h138l-175 -437v-112q1 -50 1 -113h-138l2 225l-185 437h144z" />
    <glyph glyph-name="delta" unicode="&#x3b4;" horiz-adv-x="570" 
d="M403 232q0 114 -120 148q-52 -9 -82.5 -51.5t-30.5 -96.5q0 -60 31 -97.5t86 -37.5q53 0 84 40q32 41 32 95zM298 725q102 0 166 -36v-109q-71 40 -153 40q-40 0 -62.5 -14t-22.5 -39q0 -22 19 -36.5t65.5 -35.5t69.5 -34q36 -20 74 -48q35 -28 57.5 -76t22.5 -106
q0 -102 -68 -172q-68 -69 -181 -69q-115 0 -183 66q-67 66 -67 171q0 68 37 126q38 61 101 86v5q-77 41 -77 122q0 68 54 113q55 46 148 46z" />
    <glyph glyph-name="epsilon" unicode="&#x3b5;" horiz-adv-x="421" 
d="M222 -10q-93 0 -142.5 35t-49.5 93q0 35 21 67t61 49v4q-35 12 -54 36.5t-19 54.5q0 58 50 94.5t138 36.5q77 0 149 -28v-108q-52 32 -127 32q-35 0 -57 -11.5t-22 -32.5q0 -28 44 -28h71v-94h-43q-37 0 -56 -13.5t-19 -36.5q0 -21 22.5 -34t65.5 -13q77 0 141 45v-109
q-74 -39 -174 -39z" />
    <glyph glyph-name="zeta" unicode="&#x3b6;" horiz-adv-x="427" 
d="M290 606q0 4 -2 6h-223v100h443v-14q-138 -131 -242 -272q-100 -136 -100 -208q0 -36 40 -62q31 -19 41 -24l58 -26q33 -15 62 -29q45 -22 65 -42t20 -44q0 -33 -39 -87q-36 -53 -86 -94l-87 42q31 37 37 45q33 39 33 58q0 12 -13 20t-53 25l-19 8q-102 44 -147.5 88.5
t-45.5 110.5q0 78 74 188t184 211z" />
    <glyph glyph-name="eta" unicode="&#x3b7;" horiz-adv-x="557" 
d="M499 283v-283h-135v255q0 42 -20.5 68.5t-53.5 26.5q-44 0 -71 -31.5t-27 -89.5v-229h-135v445h105q4 -11 9 -35q5 -23 6 -26h4q59 72 159 72q77 0 118 -45.5t41 -127.5z" />
    <glyph glyph-name="theta" unicode="&#x3b8;" horiz-adv-x="576" 
d="M535 353q0 -144 -54 -248q-28 -54 -78.5 -84.5t-118.5 -30.5q-67 0 -116 29t-76.5 81t-40.5 115t-13 138q0 100 23 181q22 80 80 136q58 55 145 55q67 0 117.5 -31.5t78.5 -87.5q53 -103 53 -253zM173 417h229q-3 85 -33 141t-83 56q-54 0 -82 -57q-28 -54 -31 -140z
M405 323h-233q5 -224 113 -224q58 0 88 59.5t32 164.5z" />
    <glyph glyph-name="iota" unicode="&#x3b9;" horiz-adv-x="259" 
d="M198 446v-446h-137v446h137z" />
    <glyph glyph-name="kappa" unicode="&#x3ba;" horiz-adv-x="533" 
d="M366 445h148l-185 -212l198 -233h-154l-177 217v-217h-139v445h139v-200z" />
    <glyph glyph-name="lambda" unicode="&#x3bb;" horiz-adv-x="511" 
d="M362 0l-102 291h-5l-114 -291h-134l191 442l-103 276h134l274 -718h-141z" />
    <glyph glyph-name="nu" unicode="&#x3bd;" horiz-adv-x="524" 
d="M513 445l-240 -453h-24l-240 453h146l49 -98l57 -122h4q1 3 46 101l54 119h148z" />
    <glyph glyph-name="xi" unicode="&#x3be;" horiz-adv-x="450" 
d="M297 620q-51 0 -80.5 -24t-29.5 -62q0 -44 32 -67.5t87 -23.5h92v-95h-109q-56 0 -86 -29.5t-30 -79.5q0 -25 15 -49q2 -3 40 -38q21 -14 60 -34q54 -25 74 -36q52 -25 75 -47t23 -49q0 -61 -116 -166l-86 42q62 71 62 98q0 12 -21 25q-27 15 -85 41q-94 42 -136 85.5
t-42 109.5q0 60 32 108.5t92 71.5v5q-54 15 -81.5 53.5t-27.5 86.5q0 72 57 124q57 54 164 54q98 0 165 -34v-109q-65 39 -140 39z" />
    <glyph glyph-name="omicron" unicode="&#x3bf;" horiz-adv-x="568" 
d="M285 459q113 0 180 -67q68 -66 68 -168t-69 -168t-179 -66q-115 0 -183 65q-67 66 -67 169q0 101 70 168t180 67zM286 351q-51 0 -83.5 -35.5t-32.5 -89.5q0 -58 31.5 -93t84.5 -35t85 36t32 92q0 54 -32.5 89.5t-84.5 35.5z" />
    <glyph glyph-name="pi" unicode="&#x3c0;" horiz-adv-x="561" 
d="M502 446v-446h-135v341h-175v-341h-135v446h445z" />
    <glyph glyph-name="rho" unicode="&#x3c1;" horiz-adv-x="589" 
d="M186 39l-5 -3v-247h-136v399q0 118 68 194q67 76 187 76q113 0 181 -67q70 -67 70 -171q0 -100 -63 -165q-63 -64 -163 -64q-83 0 -139 48zM417 223q0 57 -32 93t-85 36t-86 -37.5t-33 -94.5q0 -53 32.5 -89t85.5 -36q52 0 85 35.5t33 92.5z" />
    <glyph glyph-name="sigma1" unicode="&#x3c2;" horiz-adv-x="448" 
d="M35 223q0 101 62 168q63 67 183 67q80 0 135 -28v-105q-46 28 -117 28q-59 0 -94 -32.5t-35 -86.5q0 -43 28 -73t99 -63q68 -32 96 -55t28 -49q0 -64 -120 -153l-85 42q59 62 59 79q0 4 -3.5 8t-13 9t-21 10.5t-34 16.5t-45.5 23q-64 33 -93 79.5t-29 114.5z" />
    <glyph glyph-name="sigma" unicode="&#x3c3;" horiz-adv-x="579" 
d="M562 345l-88 3l-2 -4q28 -21 44.5 -60t16.5 -79q0 -92 -67 -153q-68 -62 -180 -62q-118 0 -183 65t-65 160q0 99 69 165t179 66h276v-101zM292 347q-52 0 -85 -36t-33 -90q0 -56 31 -90.5t83 -34.5t83.5 35t31.5 91q0 53 -30 87.5t-81 37.5z" />
    <glyph glyph-name="tau" unicode="&#x3c4;" horiz-adv-x="398" 
d="M7 345v100q40 0 366 2v-102h-132v-177q0 -73 57 -73q36 0 76 24v-99q-46 -31 -116 -31q-80 0 -116 42t-36 133v181h-99z" />
    <glyph glyph-name="upsilon" unicode="&#x3c5;" horiz-adv-x="548" 
d="M356 201v244h137v-228q0 -117 -65 -173q-64 -54 -160 -54q-101 0 -157 52.5t-56 148.5v254h134v-252q0 -43 21.5 -70t61.5 -27q84 0 84 105z" />
    <glyph glyph-name="phi" unicode="&#x3c6;" horiz-adv-x="741" 
d="M37 220q0 82 49.5 141.5t140.5 80.5l43 -72q-49 -17 -75 -55t-26 -88q0 -52 37 -93q38 -41 100 -43v362h132q118 0 192 -63t74 -166q0 -96 -75 -163q-73 -67 -193 -72v-207h-133l2 208q-132 6 -200 73q-68 68 -68 157zM576 222q0 58 -35.5 94.5t-106.5 39.5v-267
q64 4 103 42q39 37 39 91z" />
    <glyph glyph-name="chi" unicode="&#x3c7;" horiz-adv-x="514" 
d="M367 0l-110 209l-110 -209h-139l129 229l-122 216h138l104 -196l104 196h138l-122 -216l129 -229h-139z" />
    <glyph glyph-name="psi" unicode="&#x3c8;" horiz-adv-x="727" 
d="M430 -218h-135v206q-108 6 -175 71q-65 65 -65 173v213h132v-223q0 -54 31 -91q32 -38 77 -38v352h134v-352q51 1 79.5 35.5t28.5 95.5v221h134v-212q0 -99 -64 -169t-178 -76v-102q1 -46 1 -104z" />
    <glyph glyph-name="omega" unicode="&#x3c9;" horiz-adv-x="770" 
d="M732 220q0 -95 -53 -163q-53 -66 -150 -66q-103 0 -145 70h-5q-55 -70 -145 -70q-94 0 -146 61.5t-52 164.5q0 102 57 167.5t158 72.5l34 -91q-50 -5 -80.5 -45.5t-30.5 -100.5q0 -122 81 -122q35 0 54.5 24.5t19.5 61.5v117h110v-120q0 -38 20.5 -60.5t51.5 -22.5
q39 0 61.5 31.5t22.5 90.5q0 58 -31 99.5t-79 46.5l35 91q101 -7 156.5 -71t55.5 -166z" />
    <glyph glyph-name="iotadieresis" unicode="&#x3ca;" horiz-adv-x="259" 
d="M40 536q-27 0 -45 18t-18 45q0 26 19 44t44 18q27 0 44.5 -18t17.5 -44q0 -27 -17.5 -45t-44.5 -18zM226 536q-27 0 -44.5 18t-17.5 45q0 26 18.5 44t43.5 18q27 0 44.5 -18t17.5 -44q0 -27 -17.5 -45t-44.5 -18zM198 446v-446h-137v446h137z" />
    <glyph glyph-name="upsilondieresis" unicode="&#x3cb;" horiz-adv-x="548" 
d="M183 536q-27 0 -45 18t-18 45q0 26 19 44t44 18q27 0 44.5 -18t17.5 -44q0 -27 -17.5 -45t-44.5 -18zM369 536q-27 0 -44.5 18t-17.5 45q0 26 18.5 44t43.5 18q27 0 44.5 -18t17.5 -44q0 -27 -17.5 -45t-44.5 -18zM356 201v244h137v-228q0 -117 -65 -173
q-64 -54 -160 -54q-101 0 -157 52.5t-56 148.5v254h134v-252q0 -43 21.5 -70t61.5 -27q84 0 84 105z" />
    <glyph glyph-name="omicrontonos" unicode="&#x3cc;" horiz-adv-x="573" 
d="M287 459q113 0 180 -67q68 -66 68 -168t-69 -168t-179 -66q-115 0 -183 65q-67 66 -67 169q0 101 70 168t180 67zM288 351q-51 0 -83.5 -35.5t-32.5 -89.5q0 -58 31.5 -93t84.5 -35t85 36t32 92q0 54 -32.5 89.5t-84.5 35.5zM448 661l-138 -136h-77l119 180z" />
    <glyph glyph-name="upsilontonos" unicode="&#x3cd;" horiz-adv-x="555" 
d="M362 201v244h137v-228q0 -117 -65 -173q-64 -54 -160 -54q-101 0 -157 52.5t-56 148.5v254h134v-252q0 -43 21.5 -70t61.5 -27q84 0 84 105zM428 661l-138 -136h-77l119 180z" />
    <glyph glyph-name="omegatonos" unicode="&#x3ce;" horiz-adv-x="770" 
d="M732 220q0 -95 -53 -163q-53 -66 -150 -66q-103 0 -145 70h-5q-55 -70 -145 -70q-94 0 -146 61.5t-52 164.5q0 102 57 167.5t158 72.5l34 -91q-50 -5 -80.5 -45.5t-30.5 -100.5q0 -122 81 -122q35 0 54.5 24.5t19.5 61.5v117h110v-120q0 -38 20.5 -60.5t51.5 -22.5
q39 0 61.5 31.5t22.5 90.5q0 58 -31 99.5t-79 46.5l35 91q101 -7 156.5 -71t55.5 -166zM542 657l-138 -136h-77l119 180z" />
    <glyph glyph-name="afii10023" unicode="&#x401;" horiz-adv-x="569" 
d="M265 794q0 -27 -18 -45.5t-45 -18.5q-28 0 -45.5 18t-17.5 44q0 27 19 45.5t44 18.5q27 0 45 -18.5t18 -43.5zM451 794q0 -27 -17.5 -45.5t-44.5 -18.5t-44.5 17.5t-17.5 44.5t18.5 45.5t43.5 18.5q26 0 44 -18.5t18 -43.5zM216 115h317v-115h-466v660h447v-115h-298
v-146h267v-111h-267v-173z" />
    <glyph glyph-name="afii10051" unicode="&#x402;" horiz-adv-x="824" 
d="M566 661v-115h-212v-167q84 33 169 33q117 0 188 -65q72 -65 72 -177q0 -103 -57 -184q-55 -80 -142 -121l-90 64q66 35 101.5 93t35.5 123q0 73 -40 116.5t-113 43.5q-60 0 -124 -26v-279h-149v546h-193v115h554z" />
    <glyph glyph-name="afii10052" unicode="&#x403;" horiz-adv-x="535" 
d="M519 545h-303v-545h-149v660h452v-115zM441 846l-150 -128h-86l133 172z" />
    <glyph glyph-name="afii10053" unicode="&#x404;" horiz-adv-x="622" 
d="M588 153v-127q-78 -37 -191 -37q-166 0 -260 94q-93 95 -93 244q0 145 98 246q99 100 259 100q100 0 167 -29v-124q-68 31 -146 31q-80 0 -138.5 -42t-74.5 -114h269v-103h-278q7 -87 64 -135.5t150 -48.5q88 0 174 45z" />
    <glyph glyph-name="afii10054" unicode="&#x405;" horiz-adv-x="538" 
d="M32 41v136q42 -32 103 -52q58 -19 106 -19q53 0 84 18.5t31 54.5q0 59 -111 108q-39 17 -57 25.5t-52 29.5t-51 39.5t-31 47.5t-13 62q0 83 62 133q64 50 163 50q106 0 197 -42v-128q-35 23 -85 38t-88 15q-46 0 -73 -16.5t-27 -48.5q0 -14 8.5 -25.5t25.5 -22t34 -18
t44 -20t45 -21.5q44 -23 76 -45q37 -24 59.5 -66t22.5 -92q0 -84 -64 -139q-62 -55 -181 -55q-137 0 -228 53z" />
    <glyph glyph-name="afii10055" unicode="&#x406;" horiz-adv-x="295" 
d="M221 660v-660h-149v660h149z" />
    <glyph glyph-name="afii10056" unicode="&#x407;" horiz-adv-x="324" 
d="M132 794q0 -27 -18 -45.5t-45 -18.5t-45 18t-18 44q0 27 19 45.5t44 18.5q27 0 45 -18.5t18 -43.5zM318 794q0 -27 -17.5 -45.5t-44.5 -18.5t-44.5 17.5t-17.5 44.5t18.5 45.5t43.5 18.5q26 0 44 -18.5t18 -43.5zM234 660v-660h-149v660h149z" />
    <glyph glyph-name="afii10057" unicode="&#x408;" horiz-adv-x="497" 
d="M148 108q70 0 100 39t30 119v394h151v-381q0 -98 -27 -166q-51 -125 -230 -125q-91 0 -158 34v125q69 -39 134 -39z" />
    <glyph glyph-name="afii10058" unicode="&#x409;" horiz-adv-x="1036" 
d="M460 552h-159l-27 -287q-11 -105 -31 -157q-20 -55 -62.5 -86.5t-121.5 -44.5l-57 103q70 15 96 48t33 108l37 424h441v-250h140q59 0 104.5 -14.5t72 -36t43.5 -51t23 -56t6 -53.5q0 -92 -63 -146q-64 -53 -156 -53h-319v552zM737 306h-128v-196h136q47 0 75.5 26
t28.5 71t-31.5 72t-80.5 27z" />
    <glyph glyph-name="afii10059" unicode="&#x40a;" horiz-adv-x="1044" 
d="M787 0h-321v299h-249v-299h-149v661h149v-257h249v257h150v-256h140q71 0 124 -20t78 -55q48 -60 48 -133q0 -91 -63 -144q-62 -53 -156 -53zM744 301h-128v-190h136q48 0 76 24t28 69q0 46 -31 71.5t-81 25.5z" />
    <glyph glyph-name="afii10060" unicode="&#x40b;" horiz-adv-x="810" 
d="M562 661v-115h-208v-170q93 31 184 31q102 0 155.5 -48t53.5 -140v-219h-150v179q0 58 -27.5 86t-90.5 28q-61 0 -125 -24v-269h-149v546h-193v115h550z" />
    <glyph glyph-name="afii10061" unicode="&#x40c;" horiz-adv-x="645" 
d="M67 660h150v-303l240 303h162l-257 -318q28 -28 136 -170q107 -138 139 -172h-168q-34 36 -127 164q-96 132 -125 163v-327h-150v660zM485 848l-150 -128h-86l133 172z" />
    <glyph glyph-name="afii10062" unicode="&#x40e;" horiz-adv-x="620" 
d="M239 145l7 16l-241 499h160l142 -353h4l151 353h153l-253 -554q-31 -67 -74.5 -95.5t-103.5 -28.5t-120 27v121q65 -34 104 -34q49 0 71 49zM319 712q-72 0 -112 46q-40 47 -41 113h69q2 -41 25.5 -64.5t60.5 -23.5q35 0 57 24t27 64h68q-5 -66 -43 -112
q-38 -47 -111 -47z" />
    <glyph glyph-name="afii10145" unicode="&#x40f;" horiz-adv-x="703" 
d="M485 114v546h149v-660h-217v-163h-132v163h-218v660h150v-546h268z" />
    <glyph glyph-name="afii10017" unicode="&#x410;" horiz-adv-x="662" 
d="M653 0h-151l-45 104h-253l-46 -104h-148l313 672h22zM334 389h-4l-81 -183h164z" />
    <glyph glyph-name="afii10018" unicode="&#x411;" horiz-adv-x="645" 
d="M343 0h-276v660h468v-109h-317v-142h139q59 0 104.5 -14.5t72.5 -36t44 -51t23 -56t6 -53.5q0 -104 -75 -151q-74 -47 -189 -47zM345 305h-127v-195h97q60 0 97 16q45 19 45 80q0 46 -31 72.5t-81 26.5z" />
    <glyph glyph-name="afii10019" unicode="&#x412;" horiz-adv-x="639" 
d="M479 360v-4q56 -20 85.5 -64t29.5 -98q0 -82 -59 -138t-150 -56h-317v661h294q87 0 139 -46q54 -45 54 -119q0 -40 -20 -76.5t-56 -59.5zM451 206q0 41 -29.5 64.5t-80.5 23.5h-128v-179h135q53 0 78 25.5t25 65.5zM329 549h-116v-149h111q40 0 65.5 17.5t25.5 55.5
q0 34 -22.5 55t-63.5 21z" />
    <glyph glyph-name="afii10020" unicode="&#x413;" horiz-adv-x="535" 
d="M519 545h-303v-545h-149v660h452v-115z" />
    <glyph glyph-name="afii10021" unicode="&#x414;" horiz-adv-x="818" 
d="M226 659h476v-545h92v-271h-126v157h-536v-157h-125v271h84q48 47 67 106q20 59 34 165zM551 551h-204l-16 -148q-14 -112 -33 -176q-20 -66 -55 -113h308v437z" />
    <glyph glyph-name="afii10022" unicode="&#x415;" horiz-adv-x="569" 
d="M216 115h317v-115h-466v660h447v-115h-298v-146h267v-111h-267v-173z" />
    <glyph glyph-name="afii10024" unicode="&#x416;" horiz-adv-x="987" 
d="M186 660l232 -304v304h149v-304l233 304h162l-249 -318l267 -342h-169l-244 326v-326h-149v326l-244 -326h-168l266 342l-248 318h162z" />
    <glyph glyph-name="afii10025" unicode="&#x417;" horiz-adv-x="584" 
d="M244 -12q-124 0 -215 39v126q89 -47 195 -47q82 0 125 28t43 76q0 41 -35.5 62t-96.5 21h-83v110h78q50 0 84 21t34 51q0 36 -36 57t-95 21q-39 0 -100 -11t-91 -26v122q91 36 213 36q50 0 94 -9.5t80.5 -29.5t58 -54.5t21.5 -80.5q0 -43 -28.5 -83.5t-75.5 -57.5v-3
q59 -15 91.5 -57.5t32.5 -98.5q0 -96 -78 -154q-77 -58 -216 -58z" />
    <glyph glyph-name="afii10026" unicode="&#x418;" horiz-adv-x="728" 
d="M659 673v-673h-148v394h-3l-420 -405h-21v671h148v-395h4l418 408h22z" />
    <glyph glyph-name="afii10027" unicode="&#x419;" horiz-adv-x="728" 
d="M659 673v-673h-148v394h-3l-420 -405h-21v671h148v-395h4l418 408h22zM381 710q-70 0 -110 45t-43 116h69q2 -41 25.5 -64.5t60.5 -23.5q35 0 57 24t27 64h68q-5 -67 -43 -114t-111 -47z" />
    <glyph glyph-name="afii10028" unicode="&#x41a;" horiz-adv-x="645" 
d="M67 660h150v-303l240 303h162l-257 -318q28 -28 136 -170q107 -138 139 -172h-168q-34 36 -127 164q-96 132 -125 163v-327h-150v660z" />
    <glyph glyph-name="afii10029" unicode="&#x41b;" horiz-adv-x="683" 
d="M464 275v277h-164l-31 -327q-13 -112 -59 -173q-44 -59 -152 -74l-56 101q70 17 96 48q24 32 32 109l38 423h446v-659h-149q0 152 -1 275z" />
    <glyph glyph-name="afii10030" unicode="&#x41c;" horiz-adv-x="815" 
d="M599 323l-180 -201h-22l-184 201q-1 -1 -3 -1v-322h-143v671h22l319 -369l318 369h21v-671h-144v322q-1 1 -4 1z" />
    <glyph glyph-name="afii10031" unicode="&#x41d;" horiz-adv-x="694" 
d="M626 660v-660h-149v285h-261v-285h-149v660h149v-259h261v259h149z" />
    <glyph glyph-name="afii10032" unicode="&#x41e;" horiz-adv-x="799" 
d="M399 -11q-161 0 -259 96q-96 97 -96 245q0 144 101 243q102 99 255 99q155 0 254 -99q99 -97 99 -243q0 -147 -100 -244q-98 -97 -254 -97zM401 549q-91 0 -149 -63q-58 -62 -58 -156q0 -95 56 -159q57 -63 151 -63q93 0 148 64q57 64 57 158q0 93 -57 156
q-55 63 -148 63z" />
    <glyph glyph-name="afii10033" unicode="&#x41f;" horiz-adv-x="698" 
d="M629 660v-660h-149v545h-264v-545h-149v660h562z" />
    <glyph glyph-name="afii10034" unicode="&#x420;" horiz-adv-x="590" 
d="M216 0h-150v659h253q120 0 185 -65t65 -156q0 -96 -68 -161q-67 -64 -175 -64h-110v-213zM294 548h-79v-224h78q64 0 95.5 31t31.5 80t-33 81t-93 32z" />
    <glyph glyph-name="afii10035" unicode="&#x421;" horiz-adv-x="622" 
d="M589 153l1 -126q-80 -39 -192 -39q-165 0 -260 95q-93 95 -93 244q0 145 98 246q99 100 259 100q102 0 167 -27v-125q-68 31 -146 31q-96 0 -162 -60q-65 -59 -65 -165q0 -102 58.5 -160t160.5 -58q88 0 174 44z" />
    <glyph glyph-name="afii10036" unicode="&#x422;" horiz-adv-x="559" 
d="M546 661v-115h-192v-546h-149v546h-193v115h534z" />
    <glyph glyph-name="afii10037" unicode="&#x423;" horiz-adv-x="620" 
d="M239 145l7 16l-241 499h160l142 -353h4l151 353h153l-253 -554q-31 -67 -74.5 -95.5t-103.5 -28.5t-120 27v121q65 -34 104 -34q49 0 71 49z" />
    <glyph glyph-name="afii10038" unicode="&#x424;" horiz-adv-x="884" 
d="M841 341q0 -114 -88 -190q-86 -75 -238 -89v-62h-146v62q-153 8 -240 83q-88 76 -88 196q0 115 92 192t236 85v42h147v-42q144 -8 234 -86q91 -78 91 -191zM699 341q0 69 -52 118q-51 50 -133 54v-345q84 5 134.5 53t50.5 120zM369 168v345q-83 -7 -133.5 -55t-50.5 -118
t49 -116.5t135 -55.5z" />
    <glyph glyph-name="afii10039" unicode="&#x425;" horiz-adv-x="671" 
d="M662 0h-161l-166 317l-168 -317h-160l196 341l-183 318h160l155 -296l154 296h161l-185 -318z" />
    <glyph glyph-name="afii10040" unicode="&#x426;" horiz-adv-x="740" 
d="M634 660v-546h95v-271h-126v157h-536v660h150v-546h268v546h149z" />
    <glyph glyph-name="afii10041" unicode="&#x427;" horiz-adv-x="674" 
d="M605 0h-150v294q-93 -26 -171 -26q-107 0 -167 49.5t-60 141.5v201h150v-178q0 -109 120 -109q65 0 128 24v263h150v-660z" />
    <glyph glyph-name="afii10042" unicode="&#x428;" horiz-adv-x="1011" 
d="M794 661h149v-661h-875v661h149v-547h213v547h150v-547h214v547z" />
    <glyph glyph-name="afii10043" unicode="&#x429;" horiz-adv-x="1047" 
d="M217 114h212v546h150v-546h214v546h149v-546h95v-271h-126v157h-844v660h150v-546z" />
    <glyph glyph-name="afii10044" unicode="&#x42a;" horiz-adv-x="846" 
d="M417 660v-251h141q59 0 104.5 -14.5t72 -36t43.5 -51t23 -56t6 -53.5q0 -91 -63 -145q-64 -53 -156 -53h-320v546h-261v114h410zM545 305h-128v-196h99q71 0 106 21t35 76q0 46 -31 72.5t-81 26.5z" />
    <glyph glyph-name="afii10045" unicode="&#x42b;" horiz-adv-x="895" 
d="M388 0h-321v660h150v-251h140q59 0 104.5 -14.5t72.5 -36t44 -51t23 -56t6 -53.5q0 -91 -63 -145q-64 -53 -156 -53zM345 305h-128v-196h98q60 0 97 16q45 20 45 81q0 46 -31 72.5t-81 26.5zM826 660v-660h-149v660h149z" />
    <glyph glyph-name="afii10046" unicode="&#x42c;" horiz-adv-x="645" 
d="M389 0h-321v661h150v-251h140q59 0 104.5 -14.5t72 -36t43.5 -51t23 -56t6 -53.5q0 -92 -63 -146q-62 -53 -155 -53zM346 306h-128v-196h136q48 0 76 25.5t28 71.5q0 45 -31.5 72t-80.5 27z" />
    <glyph glyph-name="afii10047" unicode="&#x42d;" horiz-adv-x="622" 
d="M31 26v63q1 29 1 64q87 -45 174 -45q95 0 151.5 50t62.5 134h-277v103h268q-12 75 -64.5 115.5t-136.5 40.5q-89 0 -157 -31v123q72 30 186 30q166 0 251 -97q86 -97 86 -247q0 -145 -93 -242q-93 -98 -259 -98q-113 0 -193 37z" />
    <glyph glyph-name="afii10048" unicode="&#x42e;" horiz-adv-x="1076" 
d="M217 287v-287h-150v659h150v-268h132q16 122 110 202q92 79 228 79q154 0 249 -98q94 -97 94 -244q0 -146 -95 -244q-94 -97 -249 -97q-142 0 -236 84t-103 214h-130zM687 545q-88 0 -142 -63t-54 -155t54 -155q56 -62 142 -62q89 0 142 62q52 61 52 155q0 95 -52 156
q-51 62 -142 62z" />
    <glyph glyph-name="afii10049" unicode="&#x42f;" horiz-adv-x="635" 
d="M179 0h-165l179 250q-40 15 -68.5 38t-42.5 49t-20 50.5t-6 49.5q0 107 70 164q70 58 174 58h267v-659h-149v546h-94q-54 0 -87.5 -32.5t-33.5 -83.5q0 -43 43 -83q44 -41 120 -51v-14z" />
    <glyph glyph-name="afii10065" unicode="&#x430;" horiz-adv-x="520" 
d="M350 0l-10 52h-3q-53 -63 -157 -63q-70 0 -108.5 35.5t-38.5 91.5q0 71 53.5 113.5t154.5 42.5h87v9q0 81 -102 81q-67 0 -138 -38v101q74 34 171 34q203 0 203 -192v-267h-112zM163 136q0 -26 19.5 -40.5t50.5 -14.5q44 0 69.5 27.5t25.5 70.5v17h-70q-95 0 -95 -60z
" />
    <glyph glyph-name="afii10066" unicode="&#x431;" horiz-adv-x="568" 
d="M159 383h5q21 32 62 50.5t88 18.5q101 0 161 -65t60 -166q0 -98 -67 -165q-66 -66 -179 -66q-133 0 -194 75q-61 74 -61 200q0 277 192 377q65 35 215 89l67 -80q-34 -15 -99 -39q-66 -25 -97 -40q-130 -62 -153 -189zM289 351q-50 0 -83 -36.5t-33 -90.5
q0 -56 30.5 -91.5t84.5 -35.5q52 0 84 35.5t32 91.5t-31 91.5t-84 35.5z" />
    <glyph glyph-name="afii10067" unicode="&#x432;" horiz-adv-x="529" 
d="M413 246v-4q42 -13 62 -44t20 -68q0 -57 -43.5 -93.5t-112.5 -36.5h-282v446h235q174 0 174 -114q0 -56 -53 -86zM364 142q0 19 -15 32.5t-39 13.5h-117v-94h115q26 0 41 13.5t15 34.5zM291 355h-100v-80h101q45 0 45 39q0 18 -12.5 29.5t-33.5 11.5z" />
    <glyph glyph-name="afii10068" unicode="&#x433;" horiz-adv-x="447" 
d="M434 346h-241v-346h-136v445h377v-99z" />
    <glyph glyph-name="afii10069" unicode="&#x434;" horiz-adv-x="637" 
d="M170 445h376v-345h78v-227h-113v127h-390v-127h-112v227h75q46 42 60 141zM410 346h-133l-6 -52q-15 -135 -59 -194h198v246z" />
    <glyph glyph-name="afii10070" unicode="&#x435;" horiz-adv-x="522" 
d="M265 460q103 0 162 -62.5t59 -170.5v-30h-317q11 -105 134 -105q82 0 161 52v-107q-74 -48 -175 -48q-123 0 -189 66q-65 67 -65 170q0 100 64 167q65 68 166 68zM270 363q-36 0 -62 -22.5t-35 -59.5h189q-18 82 -92 82z" />
    <glyph glyph-name="afii10072" unicode="&#x436;" horiz-adv-x="800" 
d="M5 0l192 232l-179 213h147l165 -199v199h139v-199l165 199h147l-180 -213l193 -232h-153l-172 217v-217h-139v217l-173 -217h-152z" />
    <glyph glyph-name="afii10073" unicode="&#x437;" horiz-adv-x="443" 
d="M188 -12q-94 0 -157 30v109q57 -36 139 -36q107 0 107 53q0 38 -64 38h-75v96h66q63 0 63 38q0 40 -88 40q-73 0 -131 -30v106q60 25 156 25q92 0 142 -31.5t50 -90.5q0 -29 -19 -55t-56 -40q43 -12 65.5 -39.5t22.5 -61.5q0 -70 -59 -110.5t-162 -40.5z" />
    <glyph glyph-name="afii10074" unicode="&#x438;" horiz-adv-x="563" 
d="M195 212l285 236h24v-448h-135v222h-3l-284 -228h-25v451h135v-233h3z" />
    <glyph glyph-name="afii10075" unicode="&#x439;" horiz-adv-x="563" 
d="M195 212l285 236h24v-448h-135v222h-3l-284 -228h-25v451h135v-233h3zM294 510q-70 0 -110 45t-43 116h69q2 -41 25.5 -64.5t60.5 -23.5q35 0 57 24t27 64h68q-5 -67 -43 -114t-111 -47z" />
    <glyph glyph-name="afii10076" unicode="&#x43a;" horiz-adv-x="533" 
d="M366 445h148l-185 -212l198 -233h-154l-177 217v-217h-139v445h139v-200z" />
    <glyph glyph-name="afii10077" unicode="&#x43b;" horiz-adv-x="537" 
d="M344 346h-107l-8 -78l-6 -65q-7 -80 -24 -123q-16 -44 -51.5 -67t-102.5 -32q-29 66 -40 93q54 8 72 37q18 31 24 96l23 239h355v-446h-135v346z" />
    <glyph glyph-name="afii10078" unicode="&#x43c;" horiz-adv-x="688" 
d="M496 211l-138 -134h-20l-148 134v-211h-133v451h25l266 -243l257 243h26v-451h-135v211z" />
    <glyph glyph-name="afii10079" unicode="&#x43d;" horiz-adv-x="562" 
d="M504 445v-445h-136v182h-175v-182h-136v445h135v-165h176v165h136z" />
    <glyph glyph-name="afii10080" unicode="&#x43e;" horiz-adv-x="568" 
d="M285 459q113 0 180 -67q68 -66 68 -168t-69 -168t-179 -66q-115 0 -183 65q-67 66 -67 169q0 101 70 168t180 67zM286 351q-51 0 -83.5 -35.5t-32.5 -89.5q0 -58 31.5 -93t84.5 -35t85 36t32 92q0 54 -32.5 89.5t-84.5 35.5z" />
    <glyph glyph-name="afii10081" unicode="&#x43f;" horiz-adv-x="561" 
d="M502 446v-446h-135v341h-175v-341h-135v446h445z" />
    <glyph glyph-name="afii10082" unicode="&#x440;" horiz-adv-x="596" 
d="M309 96q52 0 83 36t31 92q0 58 -30.5 92t-84.5 34q-50 0 -83 -37t-33 -91q0 -55 32 -90.5t85 -35.5zM185 36v-252h-133v662h105l16 -60h4q26 34 67.5 53t86.5 19q105 0 165 -63t60 -167q0 -106 -64 -171q-63 -66 -163 -66q-88 0 -140 47q-1 0 -2 -1t-2 -1z" />
    <glyph glyph-name="afii10083" unicode="&#x441;" horiz-adv-x="440" 
d="M280 459q66 0 117 -20v-110q-41 24 -95 24q-58 0 -94.5 -35.5t-36.5 -95.5q0 -59 34.5 -93t93.5 -34q62 0 114 31v-107q-55 -30 -146 -30q-110 0 -171 64t-61 165q0 106 68 174q68 67 177 67z" />
    <glyph glyph-name="afii10084" unicode="&#x442;" horiz-adv-x="459" 
d="M296 344v-344h-133v344h-156v101h444v-101h-155z" />
    <glyph glyph-name="afii10085" unicode="&#x443;" horiz-adv-x="492" 
d="M140 446l101 -284h6l104 284h134l-283 -662h-131l109 244l-177 418h137z" />
    <glyph glyph-name="afii10086" unicode="&#x444;" horiz-adv-x="736" 
d="M301 452v259h131v-259q128 -6 200 -69t72 -161q0 -97 -74 -163q-75 -66 -198 -70v-103q1 -45 1 -102h-132v206q-132 6 -201 72t-69 161q0 96 73 157t197 72zM573 223q0 56 -37 91.5t-103 40.5v-267q61 3 100.5 41.5t39.5 93.5zM163 223q0 -58 38.5 -95t100.5 -40v265
q-58 -1 -100 -40q-39 -37 -39 -90z" />
    <glyph glyph-name="afii10087" unicode="&#x445;" horiz-adv-x="514" 
d="M367 0l-110 209l-110 -209h-139l129 229l-122 216h138l104 -196l104 196h138l-122 -216l129 -229h-139z" />
    <glyph glyph-name="afii10088" unicode="&#x446;" horiz-adv-x="594" 
d="M367 103v343h135v-342h77v-231h-114v127h-408v446h135v-343h175z" />
    <glyph glyph-name="afii10089" unicode="&#x447;" horiz-adv-x="546" 
d="M488 0h-139v196q-62 -47 -148 -47q-78 0 -117 37t-39 117v142h135v-103q0 -98 72 -98q25 0 52.5 14.5t44.5 40.5v146h139v-445z" />
    <glyph glyph-name="afii10090" unicode="&#x448;" horiz-adv-x="829" 
d="M193 103h152v342h135v-342h155v343h136v-446h-714v445h136v-342z" />
    <glyph glyph-name="afii10091" unicode="&#x449;" horiz-adv-x="860" 
d="M193 103h152v342h135v-342h155v343h136v-342h76v-231h-113v127h-677v445h136v-342z" />
    <glyph glyph-name="afii10092" unicode="&#x44a;" horiz-adv-x="675" 
d="M474 0h-277v346h-194v100h329v-137h133q76 0 126 -41t50 -112t-46 -113.5t-121 -42.5zM431 225h-99v-135h104q34 0 54.5 18t20.5 50q0 31 -22 49t-58 18z" />
    <glyph glyph-name="afii10093" unicode="&#x44b;" horiz-adv-x="753" 
d="M335 0h-278v446h136v-137h133q76 0 126 -41t50 -112t-46 -113.5t-121 -42.5zM292 225h-99v-135h104q34 0 54.5 18t20.5 50q0 31 -22 49t-58 18zM695 445v-445h-136v445h136z" />
    <glyph glyph-name="afii10094" unicode="&#x44c;" horiz-adv-x="535" 
d="M335 0h-278v446h136v-137h133q76 0 126 -41t50 -112t-46 -113.5t-121 -42.5zM292 225h-99v-135h104q34 0 54.5 18t20.5 50q0 31 -22 49t-58 18z" />
    <glyph glyph-name="afii10095" unicode="&#x44d;" horiz-adv-x="440" 
d="M263 178h-149v98h146q-9 36 -39.5 56t-73.5 20q-58 0 -104 -25v107q69 26 133 26q103 0 166 -64q63 -63 63 -172q0 -101 -62 -169q-61 -66 -170 -66q-91 0 -145 30v107q50 -31 116 -31q47 0 78.5 22t40.5 61z" />
    <glyph glyph-name="afii10096" unicode="&#x44e;" horiz-adv-x="807" 
d="M193 194v-194h-135v445h135v-175h98q15 84 79 136q65 53 160 53q113 0 177 -67q65 -67 65 -168q0 -102 -67 -168t-175 -66q-104 0 -169 56q-65 57 -72 148h-96zM532 351q-50 0 -81.5 -36t-31.5 -90q0 -58 30 -93.5t83 -35.5q51 0 82 36.5t31 92.5q0 55 -31 90.5t-82 35.5
z" />
    <glyph glyph-name="afii10097" unicode="&#x44f;" horiz-adv-x="523" 
d="M154 0h-145l140 176q-47 15 -73 49.5t-26 75.5q0 68 48 106t129 38h237v-445h-134v353h-65q-39 0 -59.5 -19t-20.5 -51q0 -29 27 -50t76 -25v-20z" />
    <glyph glyph-name="afii10071" unicode="&#x451;" horiz-adv-x="522" 
d="M265 460q103 0 162 -62.5t59 -170.5v-30h-317q11 -105 134 -105q82 0 161 52v-107q-74 -48 -175 -48q-123 0 -189 66q-65 67 -65 170q0 100 64 167q65 68 166 68zM270 363q-36 0 -62 -22.5t-35 -59.5h189q-18 82 -92 82zM177 543q-27 0 -45 18t-18 45q0 26 19 44t44 18
q27 0 44.5 -18t17.5 -44q0 -27 -17.5 -45t-44.5 -18zM363 543q-27 0 -44.5 18t-17.5 45q0 26 18.5 44t43.5 18q27 0 44.5 -18t17.5 -44q0 -27 -17.5 -45t-44.5 -18z" />
    <glyph glyph-name="afii10099" unicode="&#x452;" horiz-adv-x="577" 
d="M52 611v100h131v-100h174v-63h-174v-157q1 0 2 -1q1 0 3 -1q56 65 152 65q93 0 147.5 -62t54.5 -181q0 -99 -55 -184t-133 -130l-88 52q143 84 143 241q0 155 -117 155q-45 0 -77 -30.5t-32 -81.5v-233h-131v548h-47v63h47z" />
    <glyph glyph-name="afii10100" unicode="&#x453;" horiz-adv-x="447" 
d="M434 346h-241v-346h-136v445h377v-99zM375 652l-138 -136h-77l119 179z" />
    <glyph glyph-name="afii10101" unicode="&#x454;" horiz-adv-x="440" 
d="M280 459q66 0 117 -20v-110q-41 24 -95 24q-42 0 -75 -21t-46 -57h144v-98h-148q11 -37 44 -59.5t78 -22.5q62 0 114 31v-107q-55 -30 -146 -30q-110 0 -171 64t-61 165q0 106 68 174q68 67 177 67z" />
    <glyph glyph-name="afii10102" unicode="&#x455;" horiz-adv-x="399" 
d="M22 28v114q32 -24 75.5 -39.5t77.5 -15.5q66 0 66 36q0 18 -21.5 33t-52 29t-61 30.5t-52 45.5t-21.5 66q0 60 46.5 95.5t121.5 35.5t147 -31v-107q-65 37 -127 37q-56 0 -56 -33q0 -13 21 -25.5t51.5 -25t61 -29.5t51.5 -47.5t21 -70.5q0 -60 -48 -98t-133 -38
q-98 0 -168 38z" />
    <glyph glyph-name="afii10103" unicode="&#x456;" horiz-adv-x="264" 
d="M200 446v-446h-137v446h137zM134 519q-32 0 -53.5 22t-21.5 53q0 30 22.5 52t52.5 22q32 0 53 -21.5t21 -52.5t-21 -53t-53 -22z" />
    <glyph glyph-name="afii10104" unicode="&#x457;" horiz-adv-x="264" 
d="M42 536q-27 0 -45 18t-18 45q0 26 19 44t44 18q27 0 44.5 -18t17.5 -44q0 -27 -17.5 -45t-44.5 -18zM228 536q-27 0 -44.5 18t-17.5 45q0 26 18.5 44t43.5 18q27 0 44.5 -18t17.5 -44q0 -27 -17.5 -45t-44.5 -18zM200 446v-446h-137v446h137z" />
    <glyph glyph-name="afii10105" unicode="&#x458;" horiz-adv-x="255" 
d="M202 594q0 -31 -21 -53t-53 -22q-33 0 -54 21.5t-21 52.5q0 30 22.5 52t52.5 22q32 0 53 -21.5t21 -51.5zM-21 -224q-11 29 -22 54q-14 30 -22 51q71 5 98 37.5t27 107.5v419h135v-428q0 -117 -57 -176t-159 -65z" />
    <glyph glyph-name="afii10106" unicode="&#x459;" horiz-adv-x="810" 
d="M613 0h-272v346h-104l-11 -108l-5 -52q0 -4 -7 -46q-7 -35 -25 -78q-32 -69 -144 -81q-29 66 -40 93q54 8 72 37q18 31 24 96l23 238h352v-151h128q77 0 125 -39.5t48 -109.5q0 -68 -45.5 -106.5t-118.5 -38.5zM574 211h-98v-127h102q31 0 50.5 17t19.5 46t-20.5 46.5
t-53.5 17.5z" />
    <glyph glyph-name="afii10107" unicode="&#x45a;" horiz-adv-x="816" 
d="M353 199h-160v-199h-136v445h135v-157h161v157h134v-156h123q77 0 125 -39t48 -107q0 -67 -45 -105t-118 -38h-267v199zM580 199h-93v-115h97q33 0 52 15.5t19 44.5q0 55 -75 55z" />
    <glyph glyph-name="afii10108" unicode="&#x45b;" horiz-adv-x="552" 
d="M494 283v-283h-135v256q0 39 -21.5 66.5t-53.5 27.5q-44 0 -70.5 -31.5t-26.5 -89.5v-229h-136v547h-45v63h45v101h131v-101h168v-63h-168v-155h1q1 -1 2 -1q57 67 144 67q79 0 122 -46t43 -129z" />
    <glyph glyph-name="afii10109" unicode="&#x45c;" horiz-adv-x="533" 
d="M366 445h148l-185 -212l198 -233h-154l-177 217v-217h-139v445h139v-200zM411 652l-138 -136h-77l119 179z" />
    <glyph glyph-name="afii10110" unicode="&#x45e;" horiz-adv-x="492" 
d="M140 446l101 -284h6l104 284h134l-283 -662h-131l109 244l-177 418h137zM257 516q-70 0 -110 45t-43 116h69q2 -41 25.5 -64.5t60.5 -23.5q35 0 57 24t27 64h68q-5 -67 -43 -114t-111 -47z" />
    <glyph glyph-name="afii10193" unicode="&#x45f;" horiz-adv-x="573" 
d="M371 103v343h135v-446h-163v-139h-116v139h-163v445h135v-342h172z" />
    <glyph glyph-name="afii10050" unicode="&#x490;" horiz-adv-x="549" 
d="M538 550h-322v-550h-149v660h351v116h120v-226z" />
    <glyph glyph-name="afii10098" unicode="&#x491;" horiz-adv-x="445" 
d="M434 346h-241v-346h-136v445h272v109h105v-208z" />
    <glyph glyph-name="schwacyrillic" unicode="&#x4d9;" horiz-adv-x="532" 
d="M265 -11q-102 0 -162 63.5t-60 169.5q0 17 1 22h317q-3 60 -37.5 91t-94.5 31q-83 0 -160 -50v95q74 49 186 49q117 0 178.5 -64t61.5 -172q0 -101 -64 -168t-166 -67zM360 190h-195q4 -48 28.5 -75.5t66.5 -27.5t69 28.5t31 74.5z" />
    <glyph glyph-name="Wgrave" unicode="&#x1e80;" horiz-adv-x="960" 
d="M654 -12l-175 391h-4l-171 -391h-22l-275 671h164l138 -331h4l155 339h21l160 -339h4l135 331h163l-275 -671h-22zM414 890l133 -172h-85l-150 128z" />
    <glyph glyph-name="wgrave" unicode="&#x1e81;" horiz-adv-x="753" 
d="M245 234l121 220h20l128 -220h4l96 211h136l-209 -453h-23l-142 256l-138 -256h-24l-210 453h139l98 -211h4zM320 695l118 -179h-77l-138 136z" />
    <glyph glyph-name="Wacute" unicode="&#x1e82;" horiz-adv-x="960" 
d="M654 -12l-175 391h-4l-171 -391h-22l-275 671h164l138 -331h4l155 339h21l160 -339h4l135 331h163l-275 -671h-22zM655 846l-150 -128h-86l133 172z" />
    <glyph glyph-name="wacute" unicode="&#x1e83;" horiz-adv-x="753" 
d="M245 234l121 220h20l128 -220h4l96 211h136l-209 -453h-23l-142 256l-138 -256h-24l-210 453h139l98 -211h4zM532 652l-138 -136h-77l119 179z" />
    <glyph glyph-name="Wdieresis" unicode="&#x1e84;" horiz-adv-x="960" 
d="M654 -12l-175 391h-4l-171 -391h-22l-275 671h164l138 -331h4l155 339h21l160 -339h4l135 331h163l-275 -671h-22zM450 794q0 -27 -18 -45.5t-45 -18.5t-45 18t-18 44q0 27 19 45.5t44 18.5q27 0 45 -18.5t18 -43.5zM636 794q0 -27 -17.5 -45.5t-44.5 -18.5t-44.5 17.5
t-17.5 44.5t18.5 45.5t43.5 18.5q26 0 44 -18.5t18 -43.5z" />
    <glyph glyph-name="wdieresis" unicode="&#x1e85;" horiz-adv-x="753" 
d="M245 234l121 220h20l128 -220h4l96 211h136l-209 -453h-23l-142 256l-138 -256h-24l-210 453h139l98 -211h4zM282 519q-27 0 -45 18t-18 45q0 26 19 44t44 18q27 0 44.5 -18t17.5 -44q0 -27 -17.5 -45t-44.5 -18zM468 519q-27 0 -44.5 18t-17.5 45q0 26 18.5 44t43.5 18
q27 0 44.5 -18t17.5 -44q0 -27 -17.5 -45t-44.5 -18z" />
    <glyph glyph-name="Ygrave" unicode="&#x1ef2;" horiz-adv-x="611" 
d="M168 660l142 -278h4l130 278h159l-220 -399v-261h-149v261l-227 399h161zM253 890l133 -172h-85l-150 128z" />
    <glyph glyph-name="ygrave" unicode="&#x1ef3;" horiz-adv-x="492" 
d="M140 446l101 -284h6l104 284h134l-283 -662h-131l109 244l-177 418h137zM196 695l118 -179h-77l-138 136z" />
    <glyph glyph-name="endash" unicode="&#x2013;" horiz-adv-x="593" 
d="M565 200h-537v96h537v-96z" />
    <glyph glyph-name="emdash" unicode="&#x2014;" horiz-adv-x="842" 
d="M812 200h-781v96h781v-96z" />
    <glyph glyph-name="afii00208" unicode="&#x2015;" horiz-adv-x="842" 
d="M812 200h-781v96h781v-96z" />
    <glyph glyph-name="quoteleft" unicode="&#x2018;" horiz-adv-x="230" 
d="M185 471q0 -29 -20 -49.5t-49 -20.5q-31 0 -50.5 19.5t-19.5 49.5q0 41 30 100q33 63 68 109l51 -8l-55 -135q45 -16 45 -65z" />
    <glyph glyph-name="quoteright" unicode="&#x2019;" horiz-adv-x="230" 
d="M50 605q0 30 20 50.5t49 20.5q30 0 49.5 -19.5t19.5 -49.5q0 -42 -31 -101q-31 -62 -67 -108l-51 8l55 135q-44 17 -44 64z" />
    <glyph glyph-name="quotesinglbase" unicode="&#x201a;" horiz-adv-x="239" 
d="M52 58q0 31 20.5 52t49.5 21q31 0 51 -20t20 -50q0 -42 -32 -106q-33 -65 -67 -111l-52 8l55 141q-45 17 -45 65z" />
    <glyph glyph-name="quotedblleft" unicode="&#x201c;" horiz-adv-x="400" 
d="M185 471q0 -29 -20 -49.5t-48 -20.5q-31 0 -50.5 19.5t-19.5 49.5q0 42 31 101q34 64 68 108l50 -8l-55 -135q44 -17 44 -65zM348 471q0 -29 -20 -49.5t-49 -20.5q-31 0 -50 19.5t-19 49.5q0 41 30 101q34 64 68 108l50 -8l-55 -135q45 -16 45 -65z" />
    <glyph glyph-name="quotedblright" unicode="&#x201d;" horiz-adv-x="400" 
d="M215 605q0 30 20 50.5t49 20.5q30 0 50 -19.5t20 -49.5q0 -42 -31 -101q-34 -64 -68 -108l-51 8l56 135q-45 17 -45 64zM53 605q0 30 20 50.5t49 20.5q30 0 49.5 -19.5t19.5 -49.5q0 -42 -31 -101q-31 -61 -67 -108l-51 8l55 135q-44 17 -44 64z" />
    <glyph glyph-name="quotedblbase" unicode="&#x201e;" horiz-adv-x="405" 
d="M51 58q0 31 21 52t50 21q31 0 51 -20t20 -50q0 -42 -32 -106q-31 -63 -68 -111l-52 8l56 141q-46 16 -46 65zM218 58q0 31 20.5 52t49.5 21q31 0 51.5 -20t20.5 -50q0 -42 -32 -106q-31 -63 -68 -111l-52 8l55 141q-45 17 -45 65z" />
    <glyph glyph-name="dagger" unicode="&#x2020;" horiz-adv-x="567" 
d="M213 383h-155v111h154v182h135v-182h160v-111h-159v-498h-135v498z" />
    <glyph glyph-name="daggerdbl" unicode="&#x2021;" horiz-adv-x="567" 
d="M213 391h-155v108h154v177h134v-177h161v-108h-160v-192h160v-110h-160v-204h-134v204h-155v110h155v192z" />
    <glyph glyph-name="bullet" unicode="&#x2022;" horiz-adv-x="483" 
d="M104 241q0 57 40 97q41 41 98 41t98 -41t41 -97q0 -57 -41 -98q-40 -40 -98 -40t-98 40t-40 98z" />
    <glyph glyph-name="trianglebullet" unicode="&#x2023;" horiz-adv-x="506" 
d="M86 68v408l390 -199z" />
    <glyph glyph-name="ellipsis" unicode="&#x2026;" horiz-adv-x="713" 
d="M201 61q0 -29 -21 -50t-49 -21q-31 0 -52.5 21t-21.5 50q0 30 21.5 51t52.5 21q29 0 49.5 -21t20.5 -51zM430 61q0 -29 -21 -50t-50 -21q-30 0 -51.5 21t-21.5 50q0 30 21.5 51t51.5 21q29 0 50 -21t21 -51zM659 61q0 -29 -21.5 -50t-50.5 -21t-50.5 21t-21.5 50
q0 30 21.5 51t50.5 21q30 0 51 -21t21 -51z" />
    <glyph glyph-name="perthousand" unicode="&#x2030;" horiz-adv-x="1173" 
d="M591 684h84l-478 -711h-84zM205 682q75 0 122 -47t47 -116t-48 -117q-47 -47 -121 -47q-77 0 -123.5 45.5t-46.5 118.5q0 69 47 116q49 47 123 47zM206 597q-32 0 -52.5 -22.5t-20.5 -55.5q0 -36 20 -58.5t53 -22.5q32 0 52 23.5t20 57.5q0 33 -20.5 55.5t-51.5 22.5z
M591 316q75 0 122 -47t47 -116t-48 -116q-47 -47 -121 -47q-77 0 -123.5 45t-46.5 117q0 69 47 116q48 48 123 48zM592 232q-30 0 -51 -23t-21 -56q0 -36 19.5 -58.5t52.5 -22.5t53 22.5t20 58.5q0 33 -20.5 56t-52.5 23zM973 316q76 0 123 -47t47 -116t-48 -116
q-47 -47 -122 -47q-78 0 -123.5 44.5t-45.5 117.5q0 69 47 116q47 48 122 48zM974 232q-30 0 -51 -23t-21 -56q0 -36 19.5 -58.5t52.5 -22.5q32 0 52 23t20 58q0 34 -20 56.5t-52 22.5z" />
    <glyph glyph-name="guilsinglleft" unicode="&#x2039;" horiz-adv-x="310" 
d="M285 399l-135 -190l135 -196h-124l-128 188v10l129 188h123z" />
    <glyph glyph-name="guilsinglright" unicode="&#x203a;" horiz-adv-x="310" 
d="M152 13h-124l135 196l-135 190h122l130 -188v-10z" />
    <glyph glyph-name="fraction" unicode="&#x2044;" horiz-adv-x="107" 
d="M253 684h84l-477 -711h-84z" />
    <glyph glyph-name="fraction" unicode="&#x2215;" horiz-adv-x="107" 
d="M253 684h84l-477 -711h-84z" />
    <glyph glyph-name="zerosuperior" unicode="&#x2070;" horiz-adv-x="366" 
d="M181 382q-87 0 -125 57q-37 58 -37 144q0 54 13 94q15 46 54.5 76.5t96.5 30.5q45 0 78.5 -17.5t51 -48t25.5 -64t8 -71.5t-8.5 -71.5t-26.5 -63.5t-51.5 -48t-78.5 -18zM243 584q0 123 -60 123q-63 0 -63 -123q0 -124 63 -124q60 0 60 124z" />
    <glyph glyph-name="foursuperior" unicode="&#x2074;" horiz-adv-x="366" 
d="M7 487l180 290h95l-151 -236h82v34l48 75h48v-109h45v-71h-45v-81h-95v81h-207v17z" />
    <glyph glyph-name="fivesuperior" unicode="&#x2075;" horiz-adv-x="366" 
d="M183 647q66 0 108.5 -34.5t42.5 -94.5q0 -59 -47 -97t-119 -38q-74 0 -136 33v89q56 -47 123 -47q36 0 60 18.5t24 45.5q0 28 -23.5 43.5t-61.5 15.5q-57 0 -92 -19l-12 6l25 210h238v-71h-165l-7 -64q12 4 42 4z" />
    <glyph glyph-name="sixsuperior" unicode="&#x2076;" horiz-adv-x="366" 
d="M343 516q0 -59 -45 -95.5t-118 -36.5q-74 0 -117.5 35t-43.5 96q0 55 64 149l77 114h111l-96 -138q5 1 21 1q67 0 107 -34.5t40 -90.5zM180 574q-26 0 -43.5 -16.5t-17.5 -40.5q0 -25 16.5 -40.5t44.5 -15.5q29 0 46.5 15.5t17.5 40.5q0 24 -18.5 40.5t-45.5 16.5z" />
    <glyph glyph-name="sevensuperior" unicode="&#x2077;" horiz-adv-x="357" 
d="M331 763l-181 -375h-103l154 317h-176v73h306v-15z" />
    <glyph glyph-name="eightsuperior" unicode="&#x2078;" horiz-adv-x="366" 
d="M231 665q0 19 -14 31.5t-35 12.5t-34 -12.5t-13 -31.5q0 -18 14 -30.5t35 -12.5q20 0 33.5 12.5t13.5 30.5zM241 513q0 23 -16.5 38t-40.5 15q-26 0 -43 -15t-17 -38q0 -22 16.5 -37t43.5 -15q26 0 41.5 15t15.5 37zM325 671q0 -47 -44 -76q59 -29 59 -90
q0 -54 -42.5 -88t-113.5 -34q-74 0 -117 33t-43 88q0 26 15.5 51.5t39.5 39.5q-40 25 -40 75q0 51 41 83.5t104 32.5q62 0 101.5 -32t39.5 -83z" />
    <glyph glyph-name="ninesuperior" unicode="&#x2079;" horiz-adv-x="366" 
d="M344 652q0 -54 -66 -153l-75 -111h-112l93 137q-3 -1 -15 -1q-68 0 -108 34q-41 35 -41 93q0 59 45 95q44 37 118 37q73 0 117 -36t44 -95zM183 592q27 0 44 16.5t17 40.5q4 38 -37 52t-71 -12q-17 -18 -18 -40.5t18 -40.5t47 -16z" />
    <glyph glyph-name="plussuperior" unicode="&#x207a;" horiz-adv-x="372" 
d="M154 510h-105v58h105v95h64v-95h103v-58h-103v-97h-64v97z" />
    <glyph glyph-name="hyphensuperior" unicode="&#x207b;" horiz-adv-x="250" 
d="M220 495h-191v62h191v-62z" />
    <glyph glyph-name="equalsuperior" unicode="&#x207c;" horiz-adv-x="372" 
d="M320 551h-272v57h272v-57zM320 453h-272v56h272v-56z" />
    <glyph glyph-name="parenleftsuperior" unicode="&#x207d;" horiz-adv-x="205" 
d="M139 829l58 -23q-33 -45 -55 -107t-22 -127q0 -135 75 -243l-56 -25q-48 48 -77 118.5t-29 148.5q0 71 29.5 139.5t76.5 118.5z" />
    <glyph glyph-name="parenrightsuperior" unicode="&#x207e;" horiz-adv-x="205" 
d="M10 805l58 23q46 -48 75.5 -117t29.5 -141q0 -79 -29 -149.5t-76 -117.5l-57 25q75 108 75 243q0 66 -21.5 129t-54.5 105z" />
    <glyph glyph-name="nsuperior" unicode="&#x207f;" horiz-adv-x="381" 
d="M135 300h-101v295h81l12 -41q40 48 104 48q112 0 112 -116v-186h-100v168q0 23 -13 39t-33 16q-29 0 -45.5 -25t-16.5 -73v-125z" />
    <glyph glyph-name="zeroinferior" unicode="&#x2080;" horiz-adv-x="366" 
d="M181 -98q-88 0 -125 58q-37 56 -37 143q0 54 13 94q15 46 54.5 76.5t96.5 30.5q45 0 78.5 -17.5t51 -48t25.5 -64t8 -71.5t-8.5 -71.5t-26.5 -63.5t-51.5 -48t-78.5 -18zM243 104q0 123 -60 123q-63 0 -63 -123q0 -124 63 -124q60 0 60 124z" />
    <glyph glyph-name="oneinferior" unicode="&#x2081;" horiz-adv-x="338" 
d="M227 304h15v-394h-99v270q-10 -6 -46 -21q-21 -9 -47 -22v86z" />
    <glyph glyph-name="twoinferior" unicode="&#x2082;" horiz-adv-x="366" 
d="M122 144l-86 15q-4 12 -4 32q0 50 44 82q44 33 104 33q65 0 106.5 -31.5t41.5 -84.5q0 -34 -23.5 -63.5t-57.5 -48.5q-88 -49 -108 -99h191v-71h-305q-1 2 -4 8.5t-3 7.5q1 70 45 117q34 37 89 70q8 6 20.5 13.5t16.5 9.5q13 8 26 24t13 30q0 42 -52 42
q-24 0 -41.5 -16.5t-17.5 -40.5q0 -7 5 -29z" />
    <glyph glyph-name="threeinferior" unicode="&#x2083;" horiz-adv-x="366" 
d="M112 101l-10 13l91 112h-154v73h294v-15l-110 -130q51 -8 79.5 -40t28.5 -78q0 -58 -46.5 -95.5t-119.5 -37.5q-79 0 -137 32v89q58 -46 125 -46q38 0 60 17.5t22 45.5q0 30 -22.5 47.5t-59.5 17.5q-16 0 -41 -5z" />
    <glyph glyph-name="fourinferior" unicode="&#x2084;" horiz-adv-x="366" 
d="M7 8l180 290h95l-151 -236h82v34l48 75h48v-109h45v-71h-45v-81h-95v81h-207v17z" />
    <glyph glyph-name="fiveinferior" unicode="&#x2085;" horiz-adv-x="366" 
d="M183 167q66 0 108.5 -34.5t42.5 -94.5q0 -58 -47 -96q-46 -37 -119 -37q-78 0 -136 31v89q56 -47 123 -47q36 0 60 18.5t24 45.5q0 28 -23.5 43.5t-61.5 15.5q-57 0 -92 -19l-12 6l25 210h238v-71h-165l-7 -64q12 4 42 4z" />
    <glyph glyph-name="sixinferior" unicode="&#x2086;" horiz-adv-x="366" 
d="M343 36q0 -59 -45 -95.5t-118 -36.5q-74 0 -117.5 35t-43.5 96q0 55 64 149l77 114h111l-96 -138q5 1 21 1q67 0 107 -34.5t40 -90.5zM180 94q-26 0 -43.5 -16.5t-17.5 -40.5q0 -25 16.5 -40.5t44.5 -15.5q29 0 46.5 15.5t17.5 40.5q0 24 -18.5 40.5t-45.5 16.5z" />
    <glyph glyph-name="seveninferior" unicode="&#x2087;" horiz-adv-x="357" 
d="M331 283l-181 -375h-103l154 317h-176v73h306v-15z" />
    <glyph glyph-name="eightinferior" unicode="&#x2088;" horiz-adv-x="366" 
d="M231 185q0 19 -14 31.5t-35 12.5t-34 -12.5t-13 -31.5q0 -18 14 -30.5t35 -12.5q20 0 33.5 12.5t13.5 30.5zM241 33q0 23 -16.5 38t-40.5 15q-26 0 -43 -15t-17 -38q0 -22 16.5 -37t43.5 -15q26 0 41.5 15t15.5 37zM325 191q0 -47 -44 -76q59 -29 59 -90q0 -54 -42.5 -88
t-113.5 -34q-74 0 -117 33t-43 88q0 26 15.5 51.5t39.5 39.5q-40 25 -40 75q0 51 41 83.5t104 32.5q62 0 101.5 -32t39.5 -83z" />
    <glyph glyph-name="nineinferior" unicode="&#x2089;" horiz-adv-x="366" 
d="M344 174q0 -54 -66 -153l-75 -111h-112l93 137q-3 -1 -15 -1q-68 0 -108 34q-41 35 -41 93q0 59 45 95q44 37 118 37q73 0 117 -36t44 -95zM183 114q27 0 44 16.5t17 40.5q4 38 -37 52t-71 -12q-17 -18 -18 -40.5t18 -40.5t47 -16z" />
    <glyph glyph-name="plusinferior" unicode="&#x208a;" horiz-adv-x="372" 
d="M154 48h-105v57h105v95h64v-95h103v-57h-103v-97h-64v97z" />
    <glyph glyph-name="hypheninferior" unicode="&#x208b;" horiz-adv-x="250" 
d="M220 31h-191v63h191v-63z" />
    <glyph glyph-name="equalinferior" unicode="&#x208c;" horiz-adv-x="372" 
d="M320 88h-272v57h272v-57zM320 -10h-272v56h272v-56z" />
    <glyph glyph-name="parenleftinferior" unicode="&#x208d;" horiz-adv-x="205" 
d="M138 367l58 -22q-76 -102 -76 -235q0 -131 75 -241l-57 -25q-48 50 -76.5 118.5t-28.5 146.5q0 72 29.5 141.5t75.5 116.5z" />
    <glyph glyph-name="parenrightinferior" unicode="&#x208e;" horiz-adv-x="205" 
d="M9 344l58 22q46 -47 75.5 -116.5t29.5 -141.5q0 -155 -105 -265l-56 25q74 113 74 241q0 66 -21.5 129.5t-54.5 105.5z" />
    <glyph glyph-name="Euro" unicode="&#x20ac;" horiz-adv-x="572" 
d="M455 410v-53h-423v53h48q23 116 101 187q79 73 208 73q67 0 131 -21v-120q-59 22 -116 22q-70 0 -117.5 -36.5t-65.5 -104.5h234zM32 261v53h423v-53h-238q15 -70 61 -110.5t118 -40.5q70 0 139 31v-121q-67 -27 -151 -27q-127 0 -208.5 71t-97.5 197h-46z" />
    <glyph glyph-name="centigrade" unicode="&#x2103;" horiz-adv-x="877" 
d="M162 436q-56 0 -90 34t-34 87q0 51 36 86q37 36 88 36q52 0 88 -36q36 -35 36 -86q0 -50 -36 -86q-37 -35 -88 -35zM162 623q-27 0 -46 -19.5t-19 -46.5q0 -28 18 -47.5t47 -19.5t48 19.5t19 47.5q0 27 -19 46.5t-48 19.5zM844 153l1 -126q-79 -39 -192 -39
q-165 0 -260 95q-93 95 -93 244q0 145 98 246q99 100 259 100q103 0 167 -27v-125q-68 31 -146 31q-96 0 -162 -60q-65 -59 -65 -165q0 -102 58.5 -160t160.5 -58q88 0 174 44z" />
    <glyph glyph-name="fahrenheit" unicode="&#x2109;" horiz-adv-x="825" 
d="M163 436q-56 0 -90 34t-34 87q0 51 36 86q37 36 88 36q52 0 88 -36q36 -35 36 -86q0 -50 -36 -86q-37 -35 -88 -35zM163 623q-27 0 -46 -19.5t-19 -46.5q0 -28 18 -47.5t47 -19.5t48 19.5t19 47.5q0 27 -19 46.5t-48 19.5zM505 265v-265h-149v660h452v-115h-303v-169h265
v-111h-265z" />
    <glyph glyph-name="afii61289" unicode="&#x2113;" horiz-adv-x="506" 
d="M70 161l-18 28l-22 36l81 58v197q0 111 42.5 166t117.5 55q57 0 91.5 -32.5t34.5 -96.5q0 -146 -197 -325v-62q0 -109 77 -109q28 0 59.5 26.5t58.5 76.5l31 -19l37 -22q-77 -147 -189 -147q-154 0 -162 198q-36 -25 -42 -28zM267 622q-71 0 -71 -190v-81q49 52 83 115
q33 62 33 106q0 21 -12 35.5t-33 14.5z" />
    <glyph glyph-name="afii61352" unicode="&#x2116;" horiz-adv-x="1062" 
d="M1007 318v-81h-326v81h326zM215 385v-385h-148v673h22q60 -65 190 -194q126 -124 187 -190h4v371h148v-671h-21l-379 396h-3zM841 676q77 0 124 -45q48 -43 48 -112q0 -67 -48 -111q-49 -44 -124 -44q-79 0 -126.5 43t-47.5 112q0 67 49 112q50 45 125 45zM841 596
q-30 0 -50 -22t-20 -53q0 -36 18.5 -57t51.5 -21t52.5 22t19.5 56q0 33 -19.5 54t-52.5 21z" />
    <glyph glyph-name="published" unicode="&#x2117;" horiz-adv-x="854" 
d="M639 410q0 -65 -47 -109q-46 -43 -119 -43h-76v-141h-102v444h174q81 0 125 -45q45 -44 45 -106zM454 487h-57v-159h60q50 -1 71 39.5t-0.5 81t-73.5 38.5zM428 -30q-170 0 -270 106t-100 274q0 164 107 271q109 107 263 107t261 -107q108 -106 108 -271
q0 -162 -108 -272q-107 -108 -261 -108zM428 658q-126 0 -211 -90q-86 -89 -86 -218q0 -134 80 -223q79 -88 212 -88q127 0 213 90q86 91 86 221q0 129 -84 218q-84 90 -210 90z" />
    <glyph glyph-name="trademark" unicode="&#x2122;" horiz-adv-x="797" 
d="M369 677l171 -183l171 183h12v-372h-88v189h-3l-85 -103h-13l-87 101h-2v-187h-89v372h13zM324 611h-100v-306h-87v306h-102v65h289v-65z" />
    <glyph glyph-name="Ohm" unicode="&#x2126;" horiz-adv-x="795" 
d="M399 550q-96 0 -151 -67t-55 -167q0 -84 38 -172q39 -87 102 -126v-18h-301v114h98q2 2 2 4q-84 94 -84 227q0 142 98 235t253 93q153 0 250 -93q97 -91 97 -230q0 -132 -85 -232q1 -1 1 -4h97v-114h-301v18q69 38 106 123q38 87 38 173q0 100 -54 167q-53 69 -149 69z
" />
    <glyph glyph-name="angstrom" unicode="&#x212b;" horiz-adv-x="662" 
d="M653 0h-151l-45 104h-253l-46 -104h-148l307 659q-46 4 -74.5 35t-28.5 75q0 49 33.5 83t82.5 34q51 0 85 -34t34 -83q0 -42 -28 -72.5t-71 -37.5zM334 389h-4l-81 -183h164zM330 821q-19 0 -32.5 -15.5t-13.5 -36.5q0 -19 13 -32.5t33 -13.5q21 0 34.5 13.5t13.5 32.5
q0 22 -13.5 37t-34.5 15z" />
    <glyph glyph-name="estimated" unicode="&#x212e;" horiz-adv-x="817" 
d="M754 314h-561v-179q32 -51 91 -83q61 -32 123 -32t120.5 29.5t100.5 80.5h61q-58 -67 -131.5 -104t-151.5 -37q-143 0 -246 100q-102 101 -102 240q0 137 102 234q103 97 246 97q146 0 247 -99t101 -247zM193 343h425v179q-28 48 -90 78q-60 30 -121 30q-53 0 -110.5 -30
t-103.5 -82v-175z" />
    <glyph glyph-name="onethird" unicode="&#x2153;" horiz-adv-x="823" 
d="M568 191l-10 13l91 112h-154v73h294v-15l-110 -130q51 -8 79.5 -40t28.5 -78q0 -58 -46.5 -95.5t-119.5 -37.5q-79 0 -137 32v89q58 -46 125 -46q38 0 60 17.5t22 45.5q0 30 -22.5 47.5t-59.5 17.5q-16 0 -41 -5zM566 684h84l-477 -711h-84zM236 695h16v-396h-99v272
q-10 -6 -46 -21q-9 -4 -18.5 -8t-18 -8t-11.5 -6v85z" />
    <glyph glyph-name="twothirds" unicode="&#x2154;" horiz-adv-x="823" 
d="M116 534l-86 15q-4 12 -4 32q0 50 44 82q44 33 104 33q65 0 106.5 -31t41.5 -85q0 -34 -23.5 -63.5t-57.5 -48.5q-88 -49 -108 -99h191v-71h-305q-1 2 -4 8.5t-3 7.5q1 70 45 117q34 37 89 70q9 6 21.5 13.5t15.5 9.5q13 8 26 24t13 30q0 42 -52 42q-24 0 -41.5 -16.5
t-17.5 -40.5q0 -7 5 -29zM586 191l-10 13l91 112h-154v73h294v-15l-110 -130q51 -8 79.5 -40t28.5 -78q0 -58 -46.5 -95.5t-119.5 -37.5q-79 0 -137 32v89q58 -46 125 -46q38 0 60 17.5t22 45.5q0 30 -22.5 47.5t-59.5 17.5q-16 0 -41 -5zM606 684h84l-477 -711h-84z" />
    <glyph glyph-name="onefifth" unicode="&#x2155;" horiz-adv-x="823" 
d="M616 257q66 0 108.5 -34.5t42.5 -94.5q0 -58 -47 -96q-46 -37 -119 -37q-78 0 -136 31v89q56 -47 123 -47q36 0 60 18.5t24 45.5q0 28 -23.5 43.5t-61.5 15.5q-57 0 -92 -19l-12 6l25 210h238v-71h-165l-7 -64q12 4 42 4zM567 684h84l-477 -711h-84zM227 695h16v-396h-99
v272q-10 -6 -46 -21q-9 -4 -18.5 -8t-18 -8t-11.5 -6v85z" />
    <glyph glyph-name="twofifths" unicode="&#x2156;" horiz-adv-x="823" 
d="M126 534l-86 15q-4 12 -4 32q0 50 44 82q44 33 104 33q65 0 106.5 -31t41.5 -85q0 -34 -23.5 -63.5t-57.5 -48.5q-88 -49 -108 -99h191v-71h-305q-1 2 -4 8.5t-3 7.5q1 70 45 117q34 37 89 70q8 6 21 13.5t16 9.5q13 8 26 24t13 30q0 42 -52 42q-24 0 -41.5 -16.5
t-17.5 -40.5q0 -7 5 -29zM646 257q66 0 108.5 -34.5t42.5 -94.5q0 -58 -47 -96q-46 -37 -119 -37q-78 0 -136 31v89q56 -47 123 -47q36 0 60 18.5t24 45.5q0 28 -23.5 43.5t-61.5 15.5q-57 0 -92 -19l-12 6l25 210h238v-71h-165l-7 -64q12 4 42 4zM626 684h84l-477 -711h-84
z" />
    <glyph glyph-name="threefifths" unicode="&#x2157;" horiz-adv-x="823" 
d="M629 257q66 0 108.5 -34.5t42.5 -94.5q0 -58 -47 -96q-46 -37 -119 -37q-78 0 -136 31v89q56 -47 123 -47q36 0 60 18.5t24 45.5q0 28 -23.5 43.5t-61.5 15.5q-57 0 -92 -19l-12 6l25 210h238v-71h-165l-7 -64q12 4 42 4zM125 491l-11 13l92 112h-154v73h294v-15
l-110 -130q51 -8 80 -40t29 -78q0 -58 -47 -95.5t-120 -37.5q-81 0 -137 32v89q58 -46 126 -46q37 0 59 17.5t22 45.5q0 30 -22 47.5t-59 17.5q-17 0 -42 -5zM598 684h84l-477 -711h-84z" />
    <glyph glyph-name="fourfifths" unicode="&#x2158;" horiz-adv-x="823" 
d="M10 397l180 290h95l-151 -236h82v34l48 75h48v-109h45v-71h-45v-81h-95v81h-207v17zM654 257q66 0 108.5 -34.5t42.5 -94.5q0 -58 -47 -96q-46 -37 -119 -37q-78 0 -136 31v89q56 -47 123 -47q36 0 60 18.5t24 45.5q0 28 -23.5 43.5t-61.5 15.5q-57 0 -92 -19l-12 6
l25 210h238v-71h-165l-7 -64q12 4 42 4zM616 684h84l-477 -711h-84z" />
    <glyph glyph-name="onesixth" unicode="&#x2159;" horiz-adv-x="823" 
d="M762 126q0 -59 -45 -95.5t-118 -36.5q-74 0 -117.5 35t-43.5 96q0 55 64 149l77 114h111l-96 -138q5 1 21 1q67 0 107 -34.5t40 -90.5zM599 184q-26 0 -43.5 -16.5t-17.5 -40.5q0 -25 16.5 -40.5t44.5 -15.5q29 0 46.5 15.5t17.5 40.5q0 24 -18.5 40.5t-45.5 16.5z
M589 684h84l-477 -711h-84zM251 695h16v-396h-99v272q-10 -6 -46 -21q-9 -4 -18.5 -8t-18 -8t-11.5 -6v85z" />
    <glyph glyph-name="fivesixths" unicode="&#x215a;" horiz-adv-x="823" 
d="M195 557q66 0 108.5 -34.5t42.5 -94.5q0 -59 -47 -97t-119 -38q-74 0 -136 33v89q56 -47 123 -47q36 0 60 18.5t24 45.5q0 28 -23.5 43.5t-61.5 15.5q-57 0 -92 -19l-12 6l25 210h238v-71h-165l-7 -64q12 4 42 4zM783 126q0 -59 -45 -95.5t-118 -36.5q-74 0 -117.5 35
t-43.5 96q0 55 64 149l77 114h111l-96 -138q5 1 21 1q67 0 107 -34.5t40 -90.5zM620 184q-26 0 -43.5 -16.5t-17.5 -40.5q0 -25 16.5 -40.5t44.5 -15.5q29 0 46.5 15.5t17.5 40.5q0 24 -18.5 40.5t-45.5 16.5zM612 684h84l-477 -711h-84z" />
    <glyph glyph-name="oneeighth" unicode="&#x215b;" horiz-adv-x="823" 
d="M563 684h84l-477 -711h-84zM228 695h16v-396h-99v272q-10 -6 -46 -21q-9 -4 -18.5 -8t-18 -8t-11.5 -6v85zM658 275q0 19 -14 31.5t-35 12.5t-34 -12.5t-13 -31.5q0 -18 14 -30.5t35 -12.5q20 0 33.5 12.5t13.5 30.5zM668 123q0 23 -16.5 38t-40.5 15q-26 0 -43 -15
t-17 -38q0 -22 16.5 -37t43.5 -15q26 0 41.5 15t15.5 37zM752 281q0 -47 -44 -76q59 -29 59 -90q0 -54 -42.5 -88t-113.5 -34q-74 0 -117 33t-43 88q0 26 15.5 51.5t39.5 39.5q-40 25 -40 75q0 51 41 83.5t104 32.5q62 0 101.5 -32t39.5 -83z" />
    <glyph glyph-name="threeeighths" unicode="&#x215c;" horiz-adv-x="823" 
d="M676 275q0 19 -14 31.5t-35 12.5t-34 -12.5t-13 -31.5q0 -18 14 -30.5t35 -12.5q20 0 33.5 12.5t13.5 30.5zM686 123q0 23 -16.5 38t-40.5 15q-26 0 -43 -15t-17 -38q0 -22 16.5 -37t43.5 -15q26 0 41.5 15t15.5 37zM770 281q0 -47 -44 -76q59 -29 59 -90
q0 -54 -42.5 -88t-113.5 -34q-74 0 -117 33t-43 88q0 26 15.5 51.5t39.5 39.5q-40 25 -40 75q0 51 41 83.5t104 32.5q62 0 101.5 -32t39.5 -83zM127 491l-11 13l92 112h-154v73h294v-15l-110 -130q51 -8 80 -40t29 -78q0 -58 -47 -95.5t-120 -37.5q-81 0 -137 32v89
q56 -46 126 -46q37 0 59 17.5t22 45.5q0 30 -22 47.5t-59 17.5q-17 0 -42 -5zM595 684h84l-477 -711h-84z" />
    <glyph glyph-name="fiveeighths" unicode="&#x215d;" horiz-adv-x="823" 
d="M684 275q0 19 -14 31.5t-35 12.5t-34 -12.5t-13 -31.5q0 -18 14 -30.5t35 -12.5q20 0 33.5 12.5t13.5 30.5zM694 123q0 23 -16.5 38t-40.5 15q-26 0 -43 -15t-17 -38q0 -22 16.5 -37t43.5 -15q26 0 41.5 15t15.5 37zM778 281q0 -47 -44 -76q59 -29 59 -90
q0 -54 -42.5 -88t-113.5 -34q-74 0 -117 33t-43 88q0 26 15.5 51.5t39.5 39.5q-40 25 -40 75q0 51 41 83.5t104 32.5q62 0 101.5 -32t39.5 -83zM189 557q66 0 108.5 -34.5t42.5 -94.5q0 -59 -47 -97t-119 -38q-74 0 -136 33v89q56 -47 123 -47q36 0 60 18.5t24 45.5
q0 28 -23.5 43.5t-61.5 15.5q-57 0 -92 -19l-12 6l25 210h238v-71h-165l-7 -64q12 4 42 4zM600 684h84l-477 -711h-84z" />
    <glyph glyph-name="seveneighths" unicode="&#x215e;" horiz-adv-x="823" 
d="M662 275q0 19 -14 31.5t-35 12.5t-34 -12.5t-13 -31.5q0 -18 14 -30.5t35 -12.5q20 0 33.5 12.5t13.5 30.5zM672 123q0 23 -16.5 38t-40.5 15q-26 0 -43 -15t-17 -38q0 -22 16.5 -37t43.5 -15q26 0 41.5 15t15.5 37zM756 281q0 -47 -44 -76q59 -29 59 -90
q0 -54 -42.5 -88t-113.5 -34q-74 0 -117 33t-43 88q0 26 15.5 51.5t39.5 39.5q-40 25 -40 75q0 51 41 83.5t104 32.5q62 0 101.5 -32t39.5 -83zM365 673l-181 -375h-103l154 317h-176v73h306v-15zM559 684h84l-477 -711h-84z" />
    <glyph glyph-name="uni215F" unicode="&#x215f;" horiz-adv-x="453" 
d="M579 684h84l-477 -711h-84zM244 695h16v-396h-99v272q-10 -6 -46 -21q-9 -4 -18.5 -8t-18 -8t-11.5 -6v85z" />
    <glyph glyph-name="partialdiff" unicode="&#x2202;" horiz-adv-x="624" 
d="M297 -11q-95 0 -155 60q-59 61 -59 169q0 102 60 163q62 62 151 62q76 0 129 -42q-3 106 -54 167q-49 63 -129 63q-20 0 -65 -8l16 89q29 7 71 7q93 0 158 -53q120 -97 120 -323q0 -168 -68 -262q-68 -92 -175 -92zM298 82q42 0 72.5 32.5t44.5 78.5t15 99
q-58 63 -132 63q-51 0 -79 -40q-29 -41 -29 -95q0 -67 29 -102.5t79 -35.5z" />
    <glyph glyph-name="gradient" unicode="&#x2207;" horiz-adv-x="682" 
d="M14 660h652l-313 -671h-21zM480 546h-285l144 -328h1z" />
    <glyph glyph-name="product" unicode="&#x220f;" horiz-adv-x="662" 
d="M599 660v-772h-149v657h-239v-657h-149v772h537z" />
    <glyph glyph-name="summation" unicode="&#x2211;" horiz-adv-x="604" 
d="M265 545l126 -255l-139 -286h329v-115h-554v15l197 385l-186 355v16h524v-115h-297z" />
    <glyph glyph-name="minus" unicode="&#x2212;" horiz-adv-x="572" 
d="M490 333v-81h-409v81h409z" />
    <glyph glyph-name="radical" unicode="&#x221a;" horiz-adv-x="563" 
d="M27 330l142 65l88 -218l32 97q120 379 149 475h100l-262 -791h-21l-141 317q-6 -3 -29 -13t-29 -12q-10 32 -14 40q-9 21 -15 40z" />
    <glyph glyph-name="infinity" unicode="&#x221e;" horiz-adv-x="767" 
d="M214 436q84 0 174 -92q45 47 87 69.5t93 22.5q73 0 119 -46q47 -45 47 -116q0 -70 -50 -118t-125 -48q-79 0 -171 93q-47 -48 -87.5 -70.5t-91.5 -22.5q-70 0 -119 47q-47 47 -47 117t48 116q48 48 123 48zM214 350q-29 0 -48.5 -23.5t-19.5 -54.5q0 -32 20 -55t49 -23
q48 0 114 76q-24 28 -37 39q-39 41 -78 41zM563 350q-41 0 -115 -78l42 -43q37 -35 71 -35q29 0 49.5 23.5t20.5 56.5t-20 54.5t-48 21.5z" />
    <glyph glyph-name="logicaland" unicode="&#x2227;" horiz-adv-x="567" 
d="M290 472l247 -472h-119l-140 285q-52 -114 -70 -151l-62 -134h-118l239 472h23z" />
    <glyph glyph-name="logicalor" unicode="&#x2228;" horiz-adv-x="568" 
d="M278 185l140 286h119l-247 -471h-23l-239 471h118z" />
    <glyph glyph-name="intersection" unicode="&#x2229;" horiz-adv-x="578" 
d="M287 376q-58 0 -90 -34.5t-32 -87.5v-254h-110v256q0 98 64 159q65 62 168 62q110 0 173 -66q64 -64 64 -173v-238h-112v250q0 56 -32 91t-93 35z" />
    <glyph glyph-name="union" unicode="&#x222a;" horiz-adv-x="578" 
d="M287 96q60 0 92.5 35t32.5 90v250h112v-238q0 -108 -64 -172q-63 -65 -173 -65q-104 0 -168 61t-64 158v256h110v-254q0 -53 32 -87t90 -34z" />
    <glyph glyph-name="integral" unicode="&#x222b;" horiz-adv-x="367" 
d="M148 18q-1 92 -17 264q-14 160 -16 264q0 190 152 190q50 0 89 -13v-87q-50 8 -62 8q-39 0 -56 -20t-17 -68q0 -57 11 -195l12 -140q12 -156 12 -207q0 -83 -41.5 -128.5t-117.5 -45.5q-35 0 -84 15v92q50 -14 71 -14q35 0 49.5 20t14.5 65z" />
    <glyph glyph-name="approxequal" unicode="&#x2248;" horiz-adv-x="572" 
d="M372 159q-34 0 -88 22q-57 23 -80 23q-33 0 -73 -49l-46 40q42 87 112 87q32 0 89 -22t84 -22q34 0 66 47l50 -39q-18 -40 -47.5 -63.5t-66.5 -23.5zM372 318q-34 0 -88 22q-57 23 -80 23q-31 0 -73 -49l-46 40q42 88 112 88q32 0 89 -22t84 -22q33 0 66 46l50 -38
q-38 -88 -114 -88z" />
    <glyph glyph-name="notequal" unicode="&#x2260;" horiz-adv-x="572" 
d="M148 78h-73l77 89h-74v80h140l79 89h-219v81h286l65 76h72l-68 -76h56v-81h-120l-80 -89h200v-80h-265z" />
    <glyph glyph-name="lessequal" unicode="&#x2264;" horiz-adv-x="572" 
d="M504 211v-92l-438 188v16l438 183v-92l-249 -99zM504 12h-439v78h439v-78z" />
    <glyph glyph-name="greaterequal" unicode="&#x2265;" horiz-adv-x="572" 
d="M65 90h439v-78h-439v78zM504 323v-16l-439 -188v92l249 104q-21 9 -78 32l-92 36l-79 31v92z" />
    <glyph glyph-name="lozenge" unicode="&#x25ca;" horiz-adv-x="545" 
d="M285 0h-26l-216 336l216 332h26l215 -332zM406 336l-134 214l-133 -214l133 -224z" />
    <glyph glyph-name="zero.text" unicode="&#xe000;" horiz-adv-x="572" 
d="M286 672q149 0 207 -114q52 -97 52 -228q0 -127 -54 -228q-28 -52 -82 -82t-125 -30q-146 0 -206 108q-53 97 -53 232q0 130 53 229q28 53 82.5 83t125.5 30zM286 563q-124 0 -124 -232q0 -233 124 -233q122 0 122 233q0 232 -122 232z" />
    <glyph glyph-name="one.text" unicode="&#xe001;" horiz-adv-x="465" 
d="M327 667h19v-667h-141v472l-154 -68v125z" />
    <glyph glyph-name="two.text" unicode="&#xe002;" horiz-adv-x="572" 
d="M520 0h-460l-18 13q4 120 57 190q45 59 132 115l23 15l24 16q29 18 43 32q30 27 36 36q23 36 23 64q0 42 -28 65t-72 23t-71.5 -28.5t-27.5 -74.5q0 -21 7 -48l-124 22q-5 27 -5 47q0 84 67 136q68 53 160 53q97 0 164 -50q66 -50 66 -142q0 -108 -144 -202l-45 -29
q-33 -20 -50 -33l-37 -32q-41 -36 -52 -88h332v-100z" />
    <glyph glyph-name="three.text" unicode="&#xe003;" horiz-adv-x="564" 
d="M155 330l-14 19l162 207l-1 2v2h-252v99h453v-19l-180 -219q177 -40 177 -207q0 -98 -73 -161q-74 -62 -186 -62q-121 0 -210 51v120q77 -67 188 -67q70 0 111 34t41 90q0 58 -43 88t-112 30q-30 0 -61 -7z" />
    <glyph glyph-name="four.text" unicode="&#xe004;" horiz-adv-x="572" 
d="M350 338l69 109h64v-199h70v-99h-70v-149h-133v149h-345v16l300 495h144l-256 -412h157v90z" />
    <glyph glyph-name="five.text" unicode="&#xe005;" horiz-adv-x="572" 
d="M293 427q98 0 166 -56t68 -157q0 -100 -73 -161q-74 -62 -187 -62q-117 0 -208 51v121q31 -30 82.5 -49t104.5 -19q69 0 110.5 33.5t41.5 88.5q0 56 -40.5 86t-107.5 30q-79 0 -149 -35l-18 9l45 353h369v-99h-271q-5 -32 -19 -147q35 13 86 13z" />
    <glyph glyph-name="six.text" unicode="&#xe006;" horiz-adv-x="572" 
d="M87 378l173 281h146l-162 -255q0 -2 2 -4q33 15 79 15q93 0 152 -59q58 -58 58 -148q0 -97 -69 -158q-69 -60 -179 -60q-114 0 -182 58q-69 58 -69 162q0 86 51 168zM287 326q-51 0 -84.5 -32t-33.5 -82q0 -51 32 -83t86 -32q53 0 85 32t32 83q0 50 -32 82t-85 32z" />
    <glyph glyph-name="seven.text" unicode="&#xe007;" horiz-adv-x="498" 
d="M490 642l-286 -642h-139l250 559h-288v100h463v-17z" />
    <glyph glyph-name="eight.text" unicode="&#xe008;" horiz-adv-x="572" 
d="M387 475q0 40 -27.5 65.5t-70.5 25.5q-42 0 -69.5 -26t-27.5 -65t27.5 -64t70.5 -25q42 0 69.5 25.5t27.5 63.5zM288 310q-51 0 -83.5 -30t-32.5 -76q0 -47 32 -77.5t84 -30.5t84 30.5t32 77.5t-31.5 76.5t-84.5 29.5zM431 355v-4q104 -48 104 -161q0 -89 -68 -145
q-67 -55 -179 -55q-115 0 -182.5 53.5t-67.5 143.5q0 52 27.5 95t74.5 64l1 4q-78 42 -78 136q0 83 64 134q64 52 161 52q98 0 159 -52q63 -51 63 -133q0 -40 -21.5 -77t-57.5 -55z" />
    <glyph glyph-name="nine.text" unicode="&#xe009;" horiz-adv-x="572" 
d="M311 0h-146l163 257q-3 3 -3 4q-35 -15 -79 -15q-93 0 -151 58q-57 58 -57 148q0 98 68 158q68 61 180 61t180 -59q69 -58 69 -161q0 -79 -51 -167q-50 -90 -173 -284zM285 336q51 0 84 31t33 81q0 52 -31.5 84t-84.5 32t-85 -32.5t-32 -83.5q0 -48 32.5 -80t83.5 -32z
" />
    <glyph glyph-name="numbersign.text" unicode="&#xe00a;" horiz-adv-x="556" 
d="M358 457l37 170h77l-18 -84q-15 -69 -19 -86h86v-66h-100l-28 -123h92v-67h-106l-44 -201h-78q36 159 44 201h-112l-43 -201h-79l45 201h-79v67h93q21 95 28 123h-88v66h102l38 170h77l-37 -170h112zM343 391h-112l-27 -123h113q21 98 26 123z" />
    <glyph glyph-name="dollar.text" unicode="&#xe00b;" horiz-adv-x="572" 
d="M330 -106h-79v104q-108 8 -181 52v120q44 -32 105 -51q65 -20 106 -20q51 0 78.5 21.5t27.5 58.5q0 16 -7 30.5t-15 24t-27 21.5t-30 17.5t-38 18.5t-37 18q-73 34 -113.5 73.5t-40.5 105.5q0 69 46 115.5t126 56.5v110h79v-109q84 -8 147 -38v-112q-82 54 -176 54
q-95 0 -95 -76q0 -44 110 -93q40 -16 70 -32.5t63.5 -42t51.5 -59.5t17 -74q0 -74 -49.5 -126t-138.5 -63v-105z" />
    <glyph glyph-name="euro.text" unicode="&#xe00c;" horiz-adv-x="572" 
d="M455 410v-53h-423v53h48q23 116 101 187q79 73 208 73q67 0 131 -21v-120q-59 22 -116 22q-70 0 -117.5 -36.5t-65.5 -104.5h234zM32 261v53h423v-53h-238q15 -70 61 -110.5t118 -40.5q70 0 139 31v-121q-67 -27 -151 -27q-127 0 -208.5 71t-97.5 197h-46z" />
    <glyph glyph-name="florin.text" unicode="&#xe00d;" horiz-adv-x="509" 
d="M177 312h-80v91h90l8 73q19 198 180 198q53 0 102 -16v-109q-33 10 -63 10q-72 0 -83 -91l-7 -65h104v-91h-113l-17 -159q-15 -136 -59 -194q-43 -58 -132 -58q-50 0 -104 20v115q41 -16 70 -16q44 0 61 36q17 37 29 140z" />
    <glyph glyph-name="sterling.text" unicode="&#xe00e;" horiz-adv-x="572" 
d="M503 641v-112q-63 28 -114 28q-50 0 -78.5 -28t-28.5 -86l-1 -66h152v-81h-155q-5 -135 -47 -195h284v-101h-459v15q80 101 87 281h-66v81h68l2 71q2 60 22 105t52.5 69.5t68.5 36t75 11.5q72 0 138 -29z" />
    <glyph glyph-name="cent.text" unicode="&#xe00f;" horiz-adv-x="513" 
d="M338 3h-79v111q-89 12 -139 73t-50 153t52 154q53 65 137 81v112h79v-107q49 -3 94 -20v-109q-43 23 -101 23t-94 -35.5t-36 -95.5q0 -58 34.5 -92t93.5 -34q68 0 119 30v-106q-39 -21 -110 -29v-109z" />
    <glyph glyph-name="yen.text" unicode="&#xe010;" horiz-adv-x="572" 
d="M532 314v-52h-471v52h138l-171 346h157l111 -288h3l109 288h153l-174 -346h145zM61 165v52h471v-52h-165v-165h-148v165h-158z" />
    <glyph glyph-name="zero.taboldstyle" unicode="&#xe024;" horiz-adv-x="556" 
d="M279 460q116 0 184 -67q70 -66 70 -167q0 -102 -71 -170q-70 -66 -183 -66q-117 0 -187 65q-68 66 -68 169q0 100 71 168q73 68 184 68zM280 353q-53 0 -86 -36t-33 -90q0 -59 31.5 -94t87.5 -35q54 0 87 36t33 93q0 55 -33.5 90.5t-86.5 35.5z" />
    <glyph glyph-name="one.taboldstyle" unicode="&#xe025;" horiz-adv-x="556" 
d="M509 0h-428v100h150v207l-139 -49v109l258 92h20v-359h139v-100z" />
    <glyph glyph-name="two.taboldstyle" unicode="&#xe026;" horiz-adv-x="556" 
d="M189 261l-116 16q-5 18 -5 34q0 70 62 111q62 42 156 42q96 0 154 -39q59 -39 59 -106q0 -46 -44 -84q-43 -37 -97 -57q-59 -22 -99 -40q-46 -21 -49 -38h291v-100h-452q0 2 -0.5 6t-0.5 5q0 65 36 117t101 82q12 5 48.5 20.5t49.5 21.5q79 32 75 65q0 22 -22.5 36
t-63.5 14q-39 0 -64.5 -22t-25.5 -53q0 -18 7 -31z" />
    <glyph glyph-name="three.taboldstyle" unicode="&#xe027;" horiz-adv-x="556" 
d="M153 145l-13 19l145 179h-231v102h420v-19l-156 -194q154 -48 154 -200q0 -89 -68 -148q-67 -58 -173 -58q-111 0 -194 49v116q75 -63 175 -63q59 0 95 32t36 82q0 48 -36 79t-93 31q-34 0 -61 -7z" />
    <glyph glyph-name="four.taboldstyle" unicode="&#xe028;" horiz-adv-x="556" 
d="M8 14l280 431h135l-236 -350h139v77l55 83h75v-160h73v-95h-73v-169h-129v169h-319v14z" />
    <glyph glyph-name="five.taboldstyle" unicode="&#xe029;" horiz-adv-x="556" 
d="M279 235q95 0 157 -52q64 -52 64 -148q0 -92 -69 -151q-70 -59 -176 -59q-104 0 -196 50v119q32 -29 80.5 -47t96.5 -18q60 0 97.5 31.5t37.5 80.5q0 46 -37 77.5t-95 31.5q-73 0 -135 -33l-19 8l40 320h343v-102h-250l-16 -119q36 11 77 11z" />
    <glyph glyph-name="six.taboldstyle" unicode="&#xe02a;" horiz-adv-x="556" 
d="M513 194q0 -90 -67 -147q-67 -56 -173 -56q-105 0 -170 54q-63 54 -63 146q0 74 53 160l157 255h144l-146 -224q0 -4 1 -5q25 7 59 7q92 0 148 -54q57 -54 57 -136zM275 300q-44 0 -74 -30.5t-30 -73.5q0 -48 28 -76.5t76 -28.5q49 0 80 29t31 76q0 43 -32 73.5t-79 30.5
z" />
    <glyph glyph-name="seven.taboldstyle" unicode="&#xe02b;" horiz-adv-x="556" 
d="M498 426l-264 -594h-140l227 512h-276v101h453v-19z" />
    <glyph glyph-name="eight.taboldstyle" unicode="&#xe02c;" horiz-adv-x="556" 
d="M178 184q0 -40 28.5 -67t73.5 -27q44 0 72 27.5t28 66.5q0 43 -28.5 70.5t-71.5 27.5q-44 0 -73 -27.5t-29 -70.5zM484 445q0 -35 -18.5 -69.5t-49.5 -54.5q0 -1 -0.5 -1t-0.5 -1q91 -43 91 -143q0 -84 -62 -135t-164 -51q-108 0 -170.5 49t-62.5 133q0 45 25.5 85.5
t66.5 59.5v2q-32 19 -48.5 53.5t-16.5 69.5q0 77 58 126q59 50 148 50q92 0 147 -48q57 -48 57 -125zM195 434q0 -33 24 -55.5t61 -22.5q36 0 60 23t24 56q0 34 -24.5 57t-60.5 23t-60 -23t-24 -58z" />
    <glyph glyph-name="nine.taboldstyle" unicode="&#xe02d;" horiz-adv-x="556" 
d="M40 254q0 90 66 147q68 57 175 57q106 0 168 -55q64 -54 64 -146q0 -45 -15.5 -84.5t-52.5 -101.5l-145 -239h-144l149 235q0 3 -1 4q-25 -7 -60 -7q-92 0 -148 53q-56 54 -56 137zM279 148q44 0 73.5 30t29.5 73q0 48 -28 77t-75 29q-49 0 -80 -29t-31 -77
q0 -43 31.5 -73t79.5 -30z" />
    <glyph glyph-name="numbersign.taboldstyle" unicode="&#xe02e;" horiz-adv-x="556" 
d="M347 381l28 128h75l-28 -128h71v-70h-87q-2 -10 -20 -88h78v-69h-92q-30 -131 -35 -154h-76l36 154h-84q-30 -131 -35 -154h-77q5 23 35 154h-63v69h79q1 3 4 17t7 32.5t9 38.5h-71v70h86l28 128h77q-3 -18 -30 -128h85zM332 311h-84l-21 -88h83z" />
    <glyph glyph-name="dollar.taboldstyle" unicode="&#xe02f;" horiz-adv-x="556" 
d="M319 -103h-76v98q-99 7 -164 42v111q38 -27 89.5 -43t93.5 -16q43 0 70 17t27 46q0 50 -96 88q-30 13 -48 21t-45.5 24.5t-43 32t-27.5 39.5t-11 51q0 59 41.5 98t113.5 49v98h75v-97q69 -4 137 -33v-103q-69 43 -150 43q-37 0 -60 -15.5t-23 -41.5q0 -17 20 -32.5
t50 -27t64.5 -28.5t64.5 -36.5t50 -52t20 -73.5q0 -65 -45 -108t-127 -52v-99z" />
    <glyph glyph-name="euro.taboldstyle" unicode="&#xe030;" horiz-adv-x="556" 
d="M41 207v49h388v-49h-211q27 -116 177 -116q54 3 107 27v-107q-69 -21 -139 -21q-115 0 -189.5 57.5t-90.5 159.5h-42zM429 345v-50h-388v50h46q22 97 95 153.5t186 56.5q64 0 121 -17v-106q-54 19 -106 19q-124 0 -158 -106h204z" />
    <glyph glyph-name="florin.taboldstyle" unicode="&#xe031;" horiz-adv-x="556" 
d="M211 254h-76v81h85l7 64q22 175 172 175q47 0 98 -14v-97q-36 9 -59 9q-68 0 -79 -80l-7 -57h100v-81h-108l-16 -139q-14 -119 -55.5 -171t-125.5 -52q-47 0 -100 18v101q36 -13 68 -13q40 0 56 31q16 30 28 123z" />
    <glyph glyph-name="sterling.taboldstyle" unicode="&#xe032;" horiz-adv-x="556" 
d="M469 534v-104q-61 24 -108 24q-96 0 -96 -93v-45h136v-73h-140q-1 -101 -33 -142h250v-101h-426v14q73 61 79 229h-59v73h61l2 55q2 51 20.5 88.5t48.5 58t63 30t70 9.5q69 0 132 -23z" />
    <glyph glyph-name="cent.taboldstyle" unicode="&#xe033;" horiz-adv-x="556" 
d="M340 -35h-76v97q-81 10 -127 62.5t-46 130.5t47 132t126 68v98h76v-95q46 -3 79 -16v-101q-38 21 -91 21q-49 0 -79 -28.5t-30 -76.5q0 -46 29 -73.5t78 -27.5q52 0 108 29v-98q-32 -17 -94 -26v-96z" />
    <glyph glyph-name="yen.taboldstyle" unicode="&#xe034;" horiz-adv-x="556" 
d="M496 263v-51h-435v51h124l-154 282h149l99 -232h2l96 232h146l-157 -282h130zM61 126v50h435v-50h-149v-126h-143v126h-143z" />
    <glyph glyph-name="zero.textoldstyle" unicode="&#xe048;" horiz-adv-x="556" 
d="M279 459q116 0 184 -67q70 -66 70 -168t-70 -168t-184 -66q-117 0 -187 65q-68 66 -68 169q0 100 71 168q71 67 184 67zM280 352q-52 0 -85.5 -36t-33.5 -89q0 -59 31.5 -94t87.5 -35q55 0 87.5 36t32.5 93q0 54 -33.5 89.5t-86.5 35.5z" />
    <glyph glyph-name="one.textoldstyle" unicode="&#xe049;" horiz-adv-x="502" 
d="M470 0h-428v100h150v207l-139 -51v112l258 96h20v-364h139v-100z" />
    <glyph glyph-name="two.textoldstyle" unicode="&#xe04a;" horiz-adv-x="556" 
d="M194 261l-116 16q-5 18 -5 34q0 70 62 111q61 42 156 42t154 -39t59 -106q0 -46 -44 -84q-43 -37 -97 -57q-59 -22 -99 -40q-46 -21 -49 -38h291v-100h-452q0 2 -0.5 6t-0.5 5q0 65 36 117t101 82q12 5 48.5 20.5t49.5 21.5q79 32 75 65q0 22 -22.5 36t-63.5 14
q-39 0 -64.5 -22t-25.5 -53q0 -18 7 -31z" />
    <glyph glyph-name="three.textoldstyle" unicode="&#xe04b;" horiz-adv-x="516" 
d="M139 145l-13 19l145 179h-231v102h420v-19l-156 -194q154 -48 154 -200q0 -89 -68 -148q-67 -58 -173 -58q-111 0 -194 49v116q75 -63 175 -63q59 0 95 32t36 82q0 48 -36 79t-93 31q-34 0 -61 -7z" />
    <glyph glyph-name="four.textoldstyle" unicode="&#xe04c;" horiz-adv-x="556" 
d="M8 14l280 431h135l-236 -350h139v77l55 83h75v-160h73v-95h-73v-169h-129v169h-319v14z" />
    <glyph glyph-name="five.textoldstyle" unicode="&#xe04d;" horiz-adv-x="528" 
d="M259 235q93 0 157 -52t64 -148q0 -92 -69 -151q-70 -59 -175 -59t-197 50v119q32 -29 80.5 -47t96.5 -18q60 0 97.5 31.5t37.5 80.5q0 47 -37 78t-95 31q-73 0 -135 -33l-19 8l40 320h342v-102h-249l-15 -119q36 11 76 11z" />
    <glyph glyph-name="six.textoldstyle" unicode="&#xe04e;" horiz-adv-x="556" 
d="M513 194q0 -90 -67 -147q-67 -56 -173 -56q-105 0 -170 54q-63 54 -63 146q0 74 53 160l157 255h144l-146 -225q0 -3 1 -4q25 7 59 7q92 0 148 -54q57 -54 57 -136zM275 300q-44 0 -74 -30.5t-30 -73.5q0 -48 28 -76.5t76 -28.5q49 0 80 29t31 76q0 43 -32 73.5t-79 30.5
z" />
    <glyph glyph-name="seven.textoldstyle" unicode="&#xe04f;" horiz-adv-x="493" 
d="M468 426l-263 -594h-140l225 512h-274v101h452v-19z" />
    <glyph glyph-name="eight.textoldstyle" unicode="&#xe050;" horiz-adv-x="556" 
d="M178 184q0 -40 28.5 -67t73.5 -27q44 0 72 27.5t28 66.5q0 43 -28.5 70.5t-71.5 27.5q-44 0 -73 -27.5t-29 -70.5zM484 445q0 -35 -18.5 -69.5t-49.5 -54.5q0 -1 -0.5 -1t-0.5 -1q91 -43 91 -143q0 -84 -62 -135t-164 -51q-108 0 -170.5 49t-62.5 133q0 45 25.5 85.5
t66.5 59.5v2q-32 19 -48.5 53.5t-16.5 69.5q0 77 58 126q59 50 148 50q92 0 147 -48q57 -48 57 -125zM195 434q0 -33 24 -55.5t61 -22.5q36 0 60 23t24 56q0 34 -24.5 57t-60.5 23t-60 -23t-24 -58z" />
    <glyph glyph-name="nine.textoldstyle" unicode="&#xe051;" horiz-adv-x="556" 
d="M40 254q0 90 66 147q68 57 175 57q106 0 168 -55q64 -54 64 -146q0 -45 -16 -86t-52 -100l-145 -239h-144l149 235q0 3 -1 4q-25 -7 -60 -7q-92 0 -148 53q-56 54 -56 137zM279 148q44 0 73.5 30t29.5 73q0 48 -28 77t-75 29q-49 0 -80 -29t-31 -77q0 -43 31.5 -73
t79.5 -30z" />
    <glyph glyph-name="numbersign.textoldstyle" unicode="&#xe052;" horiz-adv-x="504" 
d="M317 381l28 128h75l-28 -128h71v-70h-87q-2 -10 -20 -88h78v-69h-92q-30 -131 -35 -154h-76l36 154h-84q-30 -131 -35 -154h-77q5 23 35 154h-63v69h79q1 3 4 17t7 32.5t9 38.5h-71v70h86l28 128h77q-3 -18 -30 -128h85zM302 311h-84l-21 -88h83z" />
    <glyph glyph-name="dollar.textoldstyle" unicode="&#xe053;" horiz-adv-x="507" 
d="M279 -103h-76v98q-98 7 -163 42v111q35 -27 90 -44q52 -15 93 -15q42 0 69.5 17t27.5 46q0 50 -96 88q-30 13 -48 21t-45.5 24.5t-43 32t-27.5 39.5t-11 51q0 59 41.5 98t113.5 49v98h75v-97q69 -4 137 -33v-103q-71 43 -151 43q-37 0 -60 -15.5t-23 -41.5q0 -33 95 -71
q176 -65 175 -179q0 -65 -45 -108t-128 -52v-99z" />
    <glyph glyph-name="euro.textoldstyle" unicode="&#xe054;" horiz-adv-x="546" 
d="M41 207v49h388v-49h-211q27 -116 177 -116q54 3 107 27v-107q-69 -21 -139 -21q-115 0 -189.5 57.5t-90.5 159.5h-42zM429 345v-50h-388v50h46q22 97 95 153.5t186 56.5q64 0 121 -17v-106q-54 19 -106 19q-124 0 -158 -106h204z" />
    <glyph glyph-name="florin.textoldstyle" unicode="&#xe055;" horiz-adv-x="474" 
d="M165 254h-76v81h85l7 64q16 175 172 175q45 0 99 -14v-97q-36 9 -61 9q-71 0 -79 -80q0 -7 -7 -57h101v-81h-109l-15 -139q-14 -119 -56 -171t-125 -52q-48 0 -100 18v101q36 -13 68 -13q40 0 56 31q16 30 28 123z" />
    <glyph glyph-name="sterling.textoldstyle" unicode="&#xe056;" horiz-adv-x="504" 
d="M456 534v-105q-62 24 -108 24q-96 0 -96 -93v-44h137v-73h-141q-1 -101 -33 -142h250v-101h-426v14q73 61 79 229h-59v73h62l1 55q2 51 20.5 88.5t48.5 58t63 30t70 9.5q69 0 132 -23z" />
    <glyph glyph-name="cent.textoldstyle" unicode="&#xe057;" horiz-adv-x="464" 
d="M306 -35h-77v97q-81 10 -126 62t-45 131q0 78 46.5 132t124.5 68v98h77v-95q47 -3 79 -16v-101q-37 21 -91 21q-49 0 -79 -28.5t-30 -76.5q0 -46 29.5 -73.5t77.5 -27.5q52 0 108 29v-98q-32 -17 -94 -26v-96z" />
    <glyph glyph-name="yen.textoldstyle" unicode="&#xe058;" horiz-adv-x="528" 
d="M481 263v-49h-434v49h124l-155 282h150l99 -232q20 43 97 232h147l-158 -282h130zM47 127v49h434v-49h-148v-127h-144v127h-142z" />
    <glyph glyph-name="percent.text" unicode="&#xe059;" horiz-adv-x="704" 
d="M189 585q64 0 105 -41t41 -100q0 -58 -41 -99t-105 -41q-67 0 -107.5 39t-40.5 101q0 61 41.5 101t106.5 40zM189 505q-26 0 -42 -18t-16 -43q0 -28 15.5 -45t42.5 -17q26 0 41.5 17.5t15.5 44.5q0 26 -16 43.5t-41 17.5zM518 274q65 0 106 -41t41 -99q0 -60 -41 -101
q-40 -40 -106 -40q-67 0 -107 39t-40 102q0 58 41 99q43 41 106 41zM461 134q0 -28 15 -45.5t42 -17.5q26 0 42 18t16 45q0 25 -16.5 42.5t-41.5 17.5q-24 0 -40.5 -17.5t-16.5 -42.5zM499 589h80l-377 -608h-78z" />
    <glyph glyph-name="perthousand.text" unicode="&#xe05a;" horiz-adv-x="1030" 
d="M189 585q64 0 105 -41t41 -100q0 -58 -41 -99t-105 -41q-67 0 -107.5 39t-40.5 101q0 61 41.5 101t106.5 40zM189 505q-26 0 -42 -18t-16 -43q0 -28 15.5 -45t42.5 -17q26 0 41.5 17.5t15.5 44.5q0 26 -16 43.5t-41 17.5zM518 274q65 0 106 -41t41 -99q0 -60 -41 -101
q-40 -40 -106 -40q-67 0 -107 39t-40 102q0 58 41 99q43 41 106 41zM461 134q0 -28 15 -45.5t42 -17.5q26 0 42 18t16 45q0 25 -16.5 42.5t-41.5 17.5q-24 0 -40.5 -17.5t-16.5 -42.5zM499 589h80l-377 -608h-78zM846 274q65 0 106 -41q40 -40 40 -99q0 -60 -41 -101
q-40 -40 -105 -40q-67 0 -107 39t-40 102q0 58 41 99q43 41 106 41zM846 194q-26 0 -42 -17.5t-16 -42.5q0 -28 15.5 -45.5t42.5 -17.5q26 0 42 18t16 45q0 25 -16.5 42.5t-41.5 17.5z" />
    <glyph glyph-name="asuperior" unicode="&#xe06c;" horiz-adv-x="362" 
d="M326 298h-77l-11 35q-36 -42 -109 -42q-50 0 -78.5 25.5t-28.5 63.5q0 48 41 72.5t111 24.5h50v10q0 43 -62 43q-48 0 -102 -26v76q57 23 122 23q144 0 144 -129v-176zM225 417v13h-37q-68 0 -68 -41q0 -32 49 -32q26 0 41 16.5t15 43.5z" />
    <glyph glyph-name="bsuperior" unicode="&#xe06d;" horiz-adv-x="405" 
d="M114 341l-12 -41h-68v463h97v-197q33 33 95 33q72 0 114.5 -41.5t42.5 -110.5q0 -67 -45 -111t-117 -44q-30 0 -60.5 13t-46.5 36zM211 522q-33 0 -53 -21t-20 -54q0 -35 19.5 -55.5t52.5 -20.5t53.5 21.5t20.5 54.5q0 32 -20.5 53.5t-52.5 21.5z" />
    <glyph glyph-name="dsuperior" unicode="&#xe06f;" horiz-adv-x="408" 
d="M271 570v96q1 56 1 97h99l1 -463h-74l-16 41q-39 -49 -107 -49q-72 0 -113.5 41.5t-41.5 109.5q0 70 44.5 115t114.5 45q56 0 92 -33zM194 524q-32 0 -53 -22t-21 -54q0 -35 20.5 -55.5t54.5 -20.5q32 0 52.5 21.5t20.5 55.5q0 33 -20.5 54t-53.5 21z" />
    <glyph glyph-name="esuperior" unicode="&#xe070;" horiz-adv-x="362" 
d="M181 606q73 0 114.5 -42t41.5 -113q0 -15 -1 -22h-214q5 -30 29.5 -49t55.5 -19q56 0 115 38v-72q-58 -34 -125 -34q-84 0 -130.5 43t-46.5 114q0 65 45 110q45 46 116 46zM186 539q-26 0 -43.5 -15.5t-21.5 -39.5h125q-12 55 -60 55z" />
    <glyph glyph-name="egravesuperior" unicode="&#xe071;" horiz-adv-x="366" 
d="M140 775l104 -137h-64l-112 94zM181 606q73 0 114.5 -42t41.5 -113q0 -15 -1 -22h-214q5 -30 29.5 -49t55.5 -19q56 0 115 38v-72q-58 -34 -125 -34q-84 0 -130.5 43t-46.5 114q0 65 45 110q45 46 116 46zM186 539q-26 0 -43.5 -15.5t-21.5 -39.5h125q-12 55 -60 55z" />
    <glyph glyph-name="hsuperior" unicode="&#xe073;" horiz-adv-x="380" 
d="M34 764h98v-206q38 44 100 44q54 0 83 -29t29 -83v-190h-101v170q0 53 -46 53q-26 0 -44 -21.5t-18 -59.5v-142h-101v464z" />
    <glyph glyph-name="isuperior" unicode="&#xe074;" horiz-adv-x="177" 
d="M36 594h102v-294h-102v294zM87 741q24 0 40.5 -16t16.5 -37q0 -22 -16.5 -37.5t-40.5 -15.5q-23 0 -39 15.5t-16 37.5q0 23 16 38t39 15z" />
    <glyph glyph-name="lsuperior" unicode="&#xe077;" horiz-adv-x="170" 
d="M34 763h101v-463h-101v463z" />
    <glyph glyph-name="msuperior" unicode="&#xe078;" horiz-adv-x="576" 
d="M135 300h-100v294h78l15 -43q36 49 95 49q71 0 100 -54q36 56 105 56q52 0 81 -29.5t29 -85.5v-187h-102v172q0 51 -42 51q-24 0 -40.5 -17.5t-16.5 -50.5v-155h-101v166q0 57 -44 57q-23 0 -40 -20t-17 -52v-151z" />
    <glyph glyph-name="osuperior" unicode="&#xe079;" horiz-adv-x="388" 
d="M194 605q78 0 124 -45q48 -44 48 -112t-48 -111q-49 -44 -124 -44q-79 0 -126.5 43t-47.5 112q0 67 49 112q50 45 125 45zM194 525q-30 0 -50 -22t-20 -53q0 -36 18.5 -57t51.5 -21t52.5 22t19.5 56q0 33 -19.5 54t-52.5 21z" />
    <glyph glyph-name="rsuperior" unicode="&#xe07c;" horiz-adv-x="273" 
d="M34 594h72l14 -53q25 61 97 61q23 0 50 -8v-89q-33 11 -56 11q-44 0 -60 -28.5t-16 -96.5v-91h-101v294z" />
    <glyph glyph-name="ssuperior" unicode="&#xe07d;" horiz-adv-x="276" 
d="M10 320v81q56 -41 110 -41q43 0 43 25q0 21 -73 45q-30 11 -51 34t-21 52q0 40 33 64t86 24q55 0 106 -22v-75q-50 27 -91 27q-37 0 -37 -22q0 -9 22.5 -19t49 -19t49 -32t22.5 -56q0 -41 -34 -67.5t-93 -26.5q-69 0 -121 28z" />
    <glyph glyph-name="tsuperior" unicode="&#xe07e;" horiz-adv-x="255" 
d="M65 596l66 92h25v-92h80v-75h-80v-111q0 -40 34 -40q24 0 56 19v-74q-33 -24 -85 -24q-58 0 -83 32t-25 95v103h-46v56z" />
    <glyph glyph-name="i.dot" unicode="&#xe096;" horiz-adv-x="264" 
d="M200 446v-446h-137v446h137zM134 519q-32 0 -53.5 22t-21.5 53q0 30 22.5 52t52.5 22q32 0 53 -21.5t21 -52.5t-21 -53t-53 -22z" />
    <glyph glyph-name="a.alt" unicode="&#xe0a8;" horiz-adv-x="595" 
d="M170 224q0 -58 31.5 -93t84.5 -35q52 0 84 36t32 92q0 54 -32.5 89.5t-83.5 35.5t-83.5 -35.5t-32.5 -89.5zM269 457q104 0 159 -67l20 56h89v-446h-103l-12 56h-2l-2 1q-60 -65 -158 -65q-105 0 -165 60.5t-60 165.5q0 102 64 170q65 69 170 69z" />
    <glyph glyph-name="g.alt" unicode="&#xe0a9;" horiz-adv-x="591" 
d="M406 17v32h-4q-49 -55 -142 -55q-102 0 -163 61q-60 61 -60 165t64 171q65 68 170 68q95 0 154 -65h4l13 52h96v-365q0 -313 -286 -313q-115 0 -191 47v121q95 -60 184 -60q75 0 118 38t43 103zM398 226q0 57 -31 90.5t-82 33.5t-84 -35.5t-33 -89.5q0 -55 32 -90t83 -35
q52 0 83.5 36t31.5 90z" />
    <glyph glyph-name="two.alt" unicode="&#xe0aa;" horiz-adv-x="546" 
d="M293 106l1 -4h218v-102h-484v19q331 247 331 426q0 54 -30.5 85t-81.5 31q-79 0 -177 -63v110q89 66 202 66q107 0 164 -57q58 -57 58 -144q0 -92 -58 -190q-56 -98 -143 -177z" />
    <glyph glyph-name="two_taboldstyle.alt" unicode="&#xe0ab;" horiz-adv-x="556" 
d="M344 103q0 -1 0.5 -2t0.5 -2h169v-99h-484v21q104 47 202 114q117 78 117 155q0 30 -26.5 46.5t-70.5 16.5q-90 0 -180 -46v103q101 56 205 56t157 -41.5t53 -108.5q0 -50 -42 -112q-41 -60 -101 -101z" />
    <glyph glyph-name="two_textoldstyle.alt" unicode="&#xe0ac;" horiz-adv-x="556" 
d="M335 103q0 -1 0.5 -2t0.5 -2h178v-99h-484v21q104 47 202 114q117 78 117 155q0 30 -26.5 46.5t-70.5 16.5q-90 0 -180 -46v103q101 56 205 56t157 -41.5t53 -108.5q0 -54 -41.5 -110t-110.5 -103z" />
    <glyph glyph-name="A2.alt" unicode="&#xe0b6;" horiz-adv-x="662" 
d="M653 0h-150l-171 412h-4l-173 -412h-145l314 672h19z" />
    <glyph glyph-name="F.alt" unicode="&#xe0b7;" horiz-adv-x="535" 
d="M216 265v-481h-149v876h452v-115h-303v-169h265v-111h-265z" />
    <glyph glyph-name="I.alt" unicode="&#xe0b8;" horiz-adv-x="295" 
d="M221 847v-847h-149v847h149z" />
    <glyph glyph-name="L.alt" unicode="&#xe0b9;" horiz-adv-x="532" 
d="M67 0v847h149v-732h305v-115h-454z" />
    <glyph glyph-name="P2.alt" unicode="&#xe0ba;" horiz-adv-x="590" 
d="M569 438q0 -96 -68 -161q-67 -63 -174 -63h-111v-431h-149v877h253q119 0 184 -65t65 -157zM420 436q0 50 -32.5 81.5t-92.5 31.5h-80v-225h87q57 0 87.5 32t30.5 80z" />
    <glyph glyph-name="T.alt" unicode="&#xe0bb;" horiz-adv-x="559" 
d="M546 848v-115h-192v-733h-149v733h-193v115h534z" />
    <glyph glyph-name="Y.alt" unicode="&#xe0bc;" horiz-adv-x="664" 
d="M311 -216h-146l86 222l-248 653h155q25 -76 81 -236q70 -201 88 -255h4q39 121 174 491h154z" />
    <glyph glyph-name="Q.alt" unicode="&#xe0bd;" horiz-adv-x="799" 
d="M399 -11q-161 0 -259 96q-96 97 -96 245q0 144 101 243q102 99 255 99q155 0 254 -99q99 -97 99 -243q0 -147 -100 -244q-98 -97 -254 -97zM401 549q-91 0 -149 -63q-58 -62 -58 -156q0 -95 56 -159q57 -63 151 -63q93 0 148 64q57 64 57 158q0 93 -57 156
q-55 63 -148 63zM343 -56l401 -72l-35 -122l-401 71q6 25 35 123z" />
    <glyph glyph-name="Q2.alt" unicode="&#xe0be;" horiz-adv-x="799" 
d="M469 -216h-136l-1 212q-134 17 -211 109t-77 225q0 144 101 243q102 99 255 99q155 0 254 -99q99 -97 99 -243q0 -130 -79 -222q-79 -93 -205 -112v-212zM401 549q-91 0 -149 -63q-58 -62 -58 -156q0 -71 38 -125t100 -71v194h137v-199q63 18 100 73t37 128q0 93 -57 156
q-55 63 -148 63z" />
    <glyph glyph-name="uniE0C0" unicode="&#xe0c0;" horiz-adv-x="535" 
d="M519 732h-303v-732h-149v847h452v-115z" />
    <glyph glyph-name="uniE0C4" unicode="&#xe0c4;" horiz-adv-x="868" 
d="M512 -13v-203h-148v201q-159 15 -239 109q-81 94 -81 227q0 154 115 251t277 97q163 0 275 -97q113 -96 113 -251q0 -126 -81 -222q-82 -96 -231 -112zM189 325q0 -86 46 -150q47 -63 129 -72v444q-79 -10 -127 -75q-48 -64 -48 -147zM680 327q0 81 -46 145
q-47 65 -122 74v-444q75 9 122 74q46 65 46 151z" />
    <glyph glyph-name="uniE0C5" unicode="&#xe0c5;" horiz-adv-x="825" 
d="M486 -8v-208h-149v208q-137 6 -210 84q-72 78 -72 200v384h149v-391q0 -55 36 -102q37 -46 97 -52v545h149v-544q62 4 98 45t36 103v396h149v-381q0 -121 -75 -200q-75 -80 -208 -87z" />
    <glyph glyph-name="Parenleft" unicode="&#xe0d8;" horiz-adv-x="314" 
d="M227 765l75 -30q-126 -193 -126 -405q0 -211 126 -401l-76 -36q-77 89 -122 208q-43 116 -43 229q0 114 43.5 228.5t122.5 206.5z" />
    <glyph glyph-name="Parenright" unicode="&#xe0d9;" horiz-adv-x="314" 
d="M20 735l75 30q79 -92 123 -206.5t44 -228.5q0 -111 -44 -229q-45 -119 -122 -208l-75 36q126 192 126 401t-127 405z" />
    <glyph glyph-name="Hyphen" unicode="&#xe0da;" horiz-adv-x="374" 
d="M320 231h-267v89h267v-89z" />
    <glyph glyph-name="Bracketleft" unicode="&#xe0db;" horiz-adv-x="289" 
d="M257 -98h-194v855h194v-84h-80v-692h80v-79z" />
    <glyph glyph-name="Bracketright" unicode="&#xe0dc;" horiz-adv-x="289" 
d="M36 757h193v-855h-193v79h79v692h-79v84z" />
    <glyph glyph-name="Braceleft" unicode="&#xe0dd;" horiz-adv-x="349" 
d="M165 355v-5q67 -22 67 -130v-170q0 -35 11.5 -51.5t40.5 -16.5h27v-81h-67q-82 0 -107 58q-19 44 -19 113v152q0 104 -64 117v17q64 15 64 105v117q0 54 10 93q27 85 113 85h70v-83h-23q-31 0 -43.5 -17.5t-12.5 -52.5v-145q0 -89 -67 -105z" />
    <glyph glyph-name="Braceright" unicode="&#xe0de;" horiz-adv-x="349" 
d="M188 350v5q-68 18 -68 105v145q0 35 -12 52.5t-43 17.5h-24v83h70q124 0 124 -153v-141q0 -89 64 -104v-18q-64 -13 -64 -118v-159q0 -66 -20 -110q-25 -54 -106 -54h-68v81h28q29 0 40 16.5t11 51.5v170q0 107 68 130z" />
    <glyph glyph-name="Endash" unicode="&#xe0df;" horiz-adv-x="593" 
d="M565 230h-537v96h537v-96z" />
    <glyph glyph-name="Emdash" unicode="&#xe0e0;" horiz-adv-x="880" 
d="M812 230h-781v96h781v-96z" />
    <glyph glyph-name="Exclamdown" unicode="&#xe0e1;" horiz-adv-x="317" 
d="M89 -213l15 503h110l13 -503h-138zM230 419q0 -30 -21 -51t-50 -21q-30 0 -51.5 21t-21.5 51q0 29 21.5 49.5t51.5 20.5q29 0 50 -21t21 -49z" />
    <glyph glyph-name="Questiondown" unicode="&#xe0e2;" horiz-adv-x="522" 
d="M208 -19q0 -37 28.5 -60.5t76.5 -23.5q79 0 161 46v-121q-91 -38 -182 -38q-108 0 -169 52q-61 51 -61 131q0 39 21 76.5t51 65.5t60.5 53t51.5 50t21 47q0 15 -9 30l109 20q18 -36 18 -64q0 -31 -18 -60.5t-44.5 -53t-52.5 -46.5t-44 -50t-18 -54zM233 419
q0 29 20.5 49.5t49.5 20.5q33 0 52.5 -19.5t19.5 -50.5q0 -30 -20.5 -50.5t-51.5 -20.5q-30 0 -50 20.5t-20 50.5z" />
    <glyph glyph-name="Guillemotleft" unicode="&#xe0e3;" horiz-adv-x="488" 
d="M285 429l-135 -190l135 -196h-124l-128 188v10l129 188h123zM465 429l-135 -190l135 -196h-124l-128 188v10l130 188h122z" />
    <glyph glyph-name="Guillemotright" unicode="&#xe0e4;" horiz-adv-x="488" 
d="M152 43h-124l135 196l-135 190h122l130 -188v-10zM332 43h-124l135 196l-135 190h123l129 -188v-10z" />
    <glyph glyph-name="uniE12C" unicode="&#xe12c;" horiz-adv-x="1777" 
d="M1487 0h-148l-46 114h-259l-46 -114h-368l-401 382h-4v-382h-147v673h20l414 -386h3v374h447v-115h-297v-146h266v-111h-266v-174h246l252 545h326q100 0 173 -56q72 -56 72 -153q0 -61 -39.5 -112t-112.5 -77l134 -262h-145l-137 283v14q75 9 113.5 45.5t38.5 88.5
q0 53 -36 84t-96 31h-205zM1167 429h-4l-95 -227h191z" />
    <glyph glyph-name="uniE16E" unicode="&#xe16e;" horiz-adv-x="1171" 
d="M1103 673v-673h-148v394h-3l-420 -405h-21v405h-3l-420 -405h-21v671h148v-395h4l418 408h22v-408h4l418 408h22zM939 871h68q-3 -66 -42 -114q-37 -48 -112 -48q-71 0 -110 47q-39 46 -42 115h69q2 -41 25.5 -64.5t60.5 -23.5q32 0 55 25t28 63z" />
    <glyph glyph-name="uniE16F" unicode="&#xe16f;" horiz-adv-x="1137" 
d="M659 285v-285h-148v395h-3l-423 -406h-18v671h148v-394h4l421 407h19v-272h261v259h148v-660h-148v285h-261z" />
    <glyph glyph-name="uniE170" unicode="&#xe170;" horiz-adv-x="1137" 
d="M1068 673v-673h-147v394h-3l-423 -405h-18v296h-262v-285h-148v660h148v-259h262v259h148v-393h4l421 406h18z" />
    <glyph glyph-name="uniE171" unicode="&#xe171;" horiz-adv-x="1137" 
d="M1068 673v-673h-147v395h-3l-423 -406h-18v555h-262v-544h-148v660h558v-392h4l421 405h18z" />
    <glyph glyph-name="uniE172" unicode="&#xe172;" horiz-adv-x="792" 
d="M723 673v-673h-148v196q1 86 1 198h-3l-425 -406h-17v745h-192v115h533v-115h-193v-465h4l421 405h19z" />
    <glyph glyph-name="uniE173" unicode="&#xe173;" horiz-adv-x="1148" 
d="M1080 660v-660h-148v285h-262v-285h-149v148q-42 -76 -118 -117t-179 -41q-114 0 -193 36v63q1 29 1 64q87 -45 174 -45q95 0 151.5 50t62.5 134h-277v103h268q-12 75 -64.5 115.5t-136.5 40.5q-91 0 -157 -31v123q72 30 186 30q101 0 174.5 -40.5t107.5 -112.5v140h149
v-259h262v259h148z" />
    <glyph glyph-name="uniE174" unicode="&#xe174;" horiz-adv-x="1046" 
d="M672 0h-150v152q-88 -162 -297 -162q-117 0 -194 36v63q1 29 1 64q87 -45 174 -45q95 0 151.5 50t62.5 134h-277v103h268q-12 75 -64.5 115.5t-136.5 40.5q-91 0 -157 -31v123q72 30 186 30q202 0 283 -156v142h253q119 0 184 -65t65 -156q0 -96 -68 -161
q-67 -64 -174 -64h-110v-213zM750 548h-80v-224h48q38 0 49 1q52 3 80.5 34.5t28.5 75.5q0 49 -33 81t-93 32z" />
    <glyph glyph-name="uniE175" unicode="&#xe175;" horiz-adv-x="941" 
d="M186 0h-172l189 261q-72 26 -109.5 76.5t-37.5 112.5q0 98 71 154q70 55 173 55h371q120 0 184 -64q65 -63 65 -154q0 -97 -67 -160q-68 -62 -175 -62h-111v-219h-149v546h-94q-54 0 -87.5 -32.5t-33.5 -83.5q0 -42 44 -83q45 -40 122 -51v-14zM646 549h-79v-222h47
q38 0 49 1q52 2 80 33.5t28 76.5q0 49 -32 80t-93 31z" />
    <glyph glyph-name="uniE176" unicode="&#xe176;" horiz-adv-x="1165" 
d="M908 0h-321v297h-371v-182h317v-115h-466v660h447v-115h-298v-138h371v253h468v-109h-317v-146h140q70 0 123 -20t78 -54q48 -60 48 -134q0 -90 -63 -144q-64 -53 -156 -53zM865 301h-127v-191h98q60 0 97 16q45 19 45 78q0 46 -31.5 71.5t-81.5 25.5z" />
    <glyph glyph-name="A.alt" unicode="&#xe188;" horiz-adv-x="662" 
d="M454 118l-432 -149l-13 15l313 687h21l307 -671h-146zM327 425l-123 -298l219 76l-92 222h-4z" />
    <glyph glyph-name="P.alt" unicode="&#xe189;" horiz-adv-x="579" 
d="M216 0h-149v660h242q118 0 183 -65q66 -65 66 -162q0 -93 -57.5 -155.5t-165.5 -87.5l-119 -27v-163zM413 431q0 54 -32.5 85.5t-89.5 31.5h-76v-267l82 19q56 13 86 47t30 84z" />
    <glyph glyph-name="R.alt" unicode="&#xe18a;" horiz-adv-x="609" 
d="M216 0h-149v660h242q115 0 182 -62q67 -61 67 -159q0 -126 -116 -191l137 -248h-155l-105 204l-103 -26v-178zM413 440q0 49 -31.5 78.5t-87.5 29.5h-79v-252l60 15q74 18 106 46t32 83z" />
    <glyph glyph-name="K.alt" unicode="&#xe18b;" horiz-adv-x="650" 
d="M408 350v-3q22 -9 45 -32q11 -11 19 -20t18 -24.5t14 -22.5t19 -33l119 -215h-163l-109 218q-21 41 -45 56.5t-62 7.5l-47 -10v-272h-149v660h149v-278l45 8q38 8 60 26q25 20 54 73l96 171h159l-85 -142q-84 -139 -137 -168z" />
    <glyph glyph-name="B.alt" unicode="&#xe18c;" horiz-adv-x="639" 
d="M452 205q0 41 -22 62.5t-62 21.5q-22 0 -37 -4l-118 -25v-145h131q54 0 81 25.5t27 64.5zM327 548h-115v-171l110 24q91 19 91 75q0 33 -22.5 52.5t-63.5 19.5zM477 361v-4q56 -20 86 -65t30 -100q0 -81 -59 -137q-58 -55 -150 -55h-317v660h251q236 0 236 -165
q0 -39 -20.5 -75t-56.5 -59z" />
    <glyph glyph-name="A_P.3" unicode="&#xe196;" horiz-adv-x="982" 
d="M608 0h-151v104h-223l-80 -104h-162l508 660h212q120 0 184 -64q65 -65 65 -155q0 -97 -67 -160q-68 -62 -175 -62h-111v-219zM687 549h-80v-222h48q38 0 49 1q52 2 80 33.5t28 76.5q0 49 -32 80t-93 31zM463 410h-4l-157 -204h161v204z" />
    <glyph glyph-name="A_R.4" unicode="&#xe197;" horiz-adv-x="1027" 
d="M822 260l192 -260h-161l-186 283v13q75 9 116 46.5t41 87.5q0 53 -32.5 84.5t-88.5 31.5h-94v-546h-152v104h-223l-80 -104h-162l508 660h167q51 0 66 -1q98 -1 168 -58q70 -55 70 -151q0 -62 -38 -112.5t-111 -77.5zM463 410h-4l-157 -204h161v204z" />
    <glyph glyph-name="A_B" unicode="&#xe198;" horiz-adv-x="1018" 
d="M764 0h-308v104h-226l-80 -104h-158l508 660h241q87 0 139 -46q54 -45 54 -119q0 -40 -20 -76.5t-56 -59.5q0 -1 0.5 -2t0.5 -2q56 -20 85 -64t29 -99q0 -81 -59 -137q-58 -55 -150 -55zM830 206q0 41 -30 65t-81 24h-126v-180h134q53 0 78 25.5t25 65.5zM708 548h-116
v-155h111q32 0 61 19q30 20 30 60q0 34 -23.5 55t-62.5 21zM459 412h-4l-157 -206h161v206z" />
    <glyph glyph-name="A_B.2" unicode="&#xe199;" horiz-adv-x="955" 
d="M702 0h-197l-43 104h-266l-43 -104h-143l308 661h361q86 0 139 -45.5t53 -119.5q0 -40 -20 -76.5t-56 -59.5l1 -4q56 -20 85 -64t29 -98q0 -82 -59 -138t-149 -56zM646 549h-243l68 -155h170q36 0 63.5 21t27.5 58q0 34 -23.5 55t-62.5 21zM658 296h-140l79 -181h68
q53 0 78 25.5t25 65.5q0 41 -30 65.5t-80 24.5zM332 429h-4l-93 -223h188z" />
    <glyph glyph-name="A_D" unicode="&#xe19a;" horiz-adv-x="1033" 
d="M153 0h-144l308 660h321q162 0 256 -92q93 -92 93 -236q0 -140 -87 -236t-227 -96h-169l-43 104h-266zM634 545h-230l192 -430h43q96 0 149 58.5t53 158.5q0 97 -55 155t-152 58zM332 418h-4q0 -1 -46 -103q-24 -53 -47 -109h187z" />
    <glyph glyph-name="A_D.2" unicode="&#xe19b;" horiz-adv-x="1075" 
d="M701 0h-245v104h-226l-80 -104h-158l508 660h187q162 0 252 -92q90 -91 90 -236q0 -143 -86 -238q-85 -94 -242 -94zM883 332q0 100 -49.5 156.5t-143.5 56.5h-97v-430h90q38 0 71.5 11t63.5 34.5t47.5 67.5t17.5 104zM459 410h-4l-157 -204h161v204z" />
    <glyph glyph-name="A_E.2" unicode="&#xe19c;" horiz-adv-x="864" 
d="M828 0h-324q-32 74 -43 104h-266l-42 -104h-144l308 660h493v-115h-406l64 -146h311v-111h-258l75 -173h232v-115zM332 417h-4q-6 -16 -46 -103q-18 -39 -47 -108h187l-39 90z" />
    <glyph glyph-name="A_F" unicode="&#xe19d;" horiz-adv-x="927" 
d="M609 265v-265h-150v104h-226l-77 -104h-164l508 660h412v-115h-303v-169h265v-111h-265zM459 412h-4l-146 -205h150v205z" />
    <glyph glyph-name="A_H" unicode="&#xe19e;" horiz-adv-x="1005" 
d="M653 0h-151l-45 104h-253l-46 -104h-148l313 672h22l124 -271h320v260h148v-661h-148v289h-269zM334 389h-4l-81 -183h164z" />
    <glyph glyph-name="A_K" unicode="&#xe1a0;" horiz-adv-x="1041" 
d="M609 0h-150v104h-216l-87 -104h-164l589 660h28v-303l240 303h162l-259 -318l277 -342h-172l-248 327v-327zM459 355h-4l-125 -148h129v148z" />
    <glyph glyph-name="A_M" unicode="&#xe1a1;" horiz-adv-x="1218" 
d="M612 333v-333h-143v104h-252l-76 -104h-163l491 671h22l320 -371l317 371h22v-671h-144v328h-3l-181 -203h-24l-183 208h-3zM469 454h-2l-182 -248h184v248z" />
    <glyph glyph-name="A_N" unicode="&#xe1a2;" horiz-adv-x="1123" 
d="M617 381v-381h-148v104h-252l-77 -104h-162l491 673h22q71 -71 209 -197q143 -129 203 -189h4v373h148v-671h-21l-414 392h-3zM469 456h-2l-184 -250h186v250z" />
    <glyph glyph-name="A_P.2" unicode="&#xe1a3;" horiz-adv-x="872" 
d="M609 219h-58l101 -219h-148l-46 113h-258l-47 -113h-144l308 660h285q120 0 184 -64q65 -65 65 -155q0 -97 -67 -160q-68 -62 -175 -62zM577 549h-175l98 -222h83q57 0 88 31.5t31 79.5q0 49 -32.5 80t-92.5 31zM332 414h-4l-94 -213h191z" />
    <glyph glyph-name="A_R" unicode="&#xe1a4;" horiz-adv-x="933" 
d="M653 0h-148l-47 114h-258l-47 -114h-143l308 660h317q100 0 172 -60t72 -159q0 -59 -36 -112.5t-98 -79.5l135 -249h-164l-136 283v14q75 9 113.5 45.5t38.5 88.5q0 53 -36.5 84t-96.5 31h-195zM332 419h-4l-94 -217h191z" />
    <glyph glyph-name="A_R.2" unicode="&#xe1a5;" horiz-adv-x="933" 
d="M9 0l308 659h320q80 0 153 -46q40 -24 64 -69t24 -103q0 -56 -33.5 -105t-99.5 -81l133 -255h-163l-136 282v14q74 9 113 46t39 88q0 53 -36 84.5t-96 31.5h-198l251 -546h-151l-170 408h-3l-174 -408h-145z" />
    <glyph glyph-name="A_R.3" unicode="&#xe1a6;" horiz-adv-x="933" 
d="M9 0l308 659h320q80 0 153 -46q40 -24 64 -69t24 -103q0 -56 -33.5 -105t-99.5 -81l133 -255h-163l-136 282v14q74 9 113 46t39 88q0 53 -36 84.5t-96 31.5h-198l251 -546h-143l-178 413h-3l-180 -413h-139zM388 133q0 -24 -16.5 -40t-40.5 -16q-38 -3 -53.5 34t12.5 63
q27 27 62.5 12t35.5 -53z" />
    <glyph glyph-name="A_V" unicode="&#xe1a7;" horiz-adv-x="869" 
d="M558 -12h-24l-54 123h-279l-48 -111h-143l318 672h22l189 -423h5l164 411h152zM342 422h-3l-97 -224h197z" />
    <glyph glyph-name="A_W" unicode="&#xe1a8;" horiz-adv-x="1195" 
d="M889 -12l-180 419l-170 -419h-22l-49 116h-270l-45 -104h-144l319 671h22l181 -408h5l165 404h22l166 -395h4l140 387h154l-276 -671h-22zM340 417h-3l-92 -211h179z" />
    <glyph glyph-name="A_W_A" unicode="&#xe1a9;" horiz-adv-x="1416" 
d="M894 259h4l135 318l43 94h22l308 -671h-147l-43 104h-257l-44 -117h-22l-180 430l-174 -430h-22l-49 117h-270l-45 -104h-144l319 671h22l181 -408h5l165 404h22zM1088 421h-3l-85 -215h177zM340 417h-3l-92 -211h179z" />
    <glyph glyph-name="uniE1AB" unicode="&#xe1ab;" horiz-adv-x="1090" 
d="M1022 660v-660h-149v545h-264v-545h-150v104h-226l-77 -104h-164l508 660h522zM459 412h-4l-146 -205h150v205z" />
    <glyph glyph-name="uniE1AC" unicode="&#xe1ac;" horiz-adv-x="1011" 
d="M529 289l135 -289h-654l320 673h20l126 -272h319v260h149v-661h-149v289h-266zM338 431h-4l-142 -318h284z" />
    <glyph glyph-name="uniE1AD" unicode="&#xe1ad;" horiz-adv-x="1082" 
d="M737 673h17l317 -673h-1004v660h447v-115h-298v-146h267v-111h-267v-173h257zM743 442h-2l-142 -329h284z" />
    <glyph glyph-name="uniE1AE" unicode="&#xe1ae;" horiz-adv-x="1000" 
d="M627 219v-219h-149v285h-262v-285h-149v660h149v-259h262v258h252q120 0 184 -64q65 -63 65 -154q0 -97 -67 -160q-68 -62 -175 -62h-110zM705 549h-78v-222h46q38 0 49 1q52 2 80.5 33.5t28.5 76.5q0 49 -32.5 80t-93.5 31z" />
    <glyph glyph-name="uniE1AF" unicode="&#xe1af;" horiz-adv-x="926" 
d="M462 545h-246v-545h-149v660h395v187h452v-115h-303v-732h-149v545z" />
    <glyph glyph-name="C_A" unicode="&#xe1ba;" horiz-adv-x="1095" 
d="M1085 0h-148l-43 104h-266l-43 -104h-77q-58 -12 -110 -12q-165 0 -260 95q-93 95 -93 244q0 145 98 246q99 100 259 100q102 0 167 -27v-125q-68 31 -146 31q-96 0 -162 -60q-65 -59 -65 -165q0 -102 58.5 -160t160.5 -58q43 0 82 10l258 553h22zM764 421h-4l-92 -214
h187z" />
    <glyph glyph-name="C_K" unicode="&#xe1bb;" horiz-adv-x="1000" 
d="M812 0l-255 331v19l247 310h170l-256 -318l274 -342h-180zM589 153v-126q-80 -39 -191 -39q-165 0 -260 95q-93 95 -93 244q0 145 98 246q99 100 259 100q102 0 167 -27v-125q-68 31 -146 31q-96 0 -162 -60q-65 -59 -65 -165q0 -102 58.5 -160t160.5 -58q88 0 174 44z
" />
    <glyph glyph-name="D_E" unicode="&#xe1cb;" horiz-adv-x="1101" 
d="M747 115h317v-115h-466v136q-87 -136 -275 -136h-256v660h242q199 0 289 -137v137h447v-115h-298v-146h267v-111h-267v-173zM505 332q0 100 -49 156.5t-143 56.5h-98v-430h104q86 0 136 56.5t50 160.5z" />
    <glyph glyph-name="D_H" unicode="&#xe1cc;" horiz-adv-x="1224" 
d="M1155 660v-660h-149v285h-261v-285h-149v133q-88 -133 -273 -133h-256v660h242q195 0 287 -134v134h149v-259h261v259h149zM505 332q0 100 -49 156.5t-143 56.5h-98v-430h104q86 0 136 56.5t50 160.5z" />
    <glyph glyph-name="D_L" unicode="&#xe1cd;" horiz-adv-x="1059" 
d="M596 526v134h149v-545h305v-115h-454v133q-88 -133 -273 -133h-256v660h242q195 0 287 -134zM505 332q0 100 -49 156.5t-143 56.5h-98v-430h104q86 0 136 56.5t50 160.5z" />
    </font>
</defs>
</svg>
